<svg xmlns="http://www.w3.org/2000/svg" viewBox="0 0 22.17 37.27"><defs><style>.cls-1{fill:#009e96;}</style></defs><g id="圖層_2" data-name="圖層 2"><g id="圖層_1-2" data-name="圖層 1"><path class="cls-1" d="M14.88,29.36c-1-.21-1.94-.4-2.92-.59a18,18,0,0,0,2-5.1,17.39,17.39,0,0,0,.22-6.35,13,13,0,0,0,4.33-3.05C21.84,10.63,23.22,5.14,21.28.5c-.37-.88-1.82-.5-1.45.39,2.26,5.42-.57,12.62-5.92,15-.49-2-1.41-4.17-3.19-5.32s-4.48-1-5.62.94a4.43,4.43,0,0,0,1.11,5.34,6.8,6.8,0,0,0,6.61,1,17.58,17.58,0,0,1-.43,5.95,16.72,16.72,0,0,1-2,4.68c-2.84-.55-5.67-1.05-8.52-1.52A1.52,1.52,0,0,0,.19,29.14a33.14,33.14,0,0,0,3.9,6,1.48,1.48,0,0,0,1.4,1.91h.33a1.29,1.29,0,0,0,1.39,0,23.47,23.47,0,0,0,6.16-1.17c1.78-.6,7-2.23,5.33-5C18,29.68,16.1,29.61,14.88,29.36ZM10.51,16.65c-2,.07-4.32-.9-4.38-3.22-.07-2.79,3.29-2.42,4.64-.87a8.7,8.7,0,0,1,1.8,3.77A9.23,9.23,0,0,1,10.51,16.65ZM5.75,32.42l.89.23L6.17,33C6,32.81,5.89,32.61,5.75,32.42ZM7.32,34c.42-.32.82-.66,1.21-1,.88.16,1.76.28,2.64.38A21.93,21.93,0,0,1,7.32,34ZM13,32l.14,0c-1.12-.06-2.22-.17-3.32-.33l.24-.28C11.05,31.63,12,31.82,13,32Zm-5-.63c-1.21-.24-2.43-.53-3.62-.89l-.08-.13c1.33.23,2.66.48,4,.73C8.25,31.21,8.15,31.3,8.05,31.4Z"/></g></g></svg>