<svg xmlns="http://www.w3.org/2000/svg" viewBox="0 0 241.83 315.91"><defs><style>.cls-1{opacity:0.47;}.cls-2,.cls-3{fill:#ed4848;}.cls-3{opacity:0.2;}</style></defs><g id="圖層_2" data-name="圖層 2"><g id="圖層_1-2" data-name="圖層 1"><g class="cls-1"><path class="cls-2" d="M226.75,16.11A31.09,31.09,0,0,1,222.31,35c-3.58,5.84-9.05,9.87-15,13s-12.44,5.7-18.58,8.7a112,112,0,0,0-17.2,10,69,69,0,0,0-22.22,28.41c-4.93,11.28-7.58,23.4-9.43,35.52-4,25.83-4.28,53.6-18.09,76.66C107.56,231,81.52,243.08,58,255.46,35.67,267.25,12,282,2.52,306.74A55.94,55.94,0,0,0,0,315.45c-.1.47.63.67.72.19,5.46-26.8,29.12-44,51.68-56.32,23.1-12.62,49-23.29,65.4-44.85,16.29-21.35,18.31-49.16,21.54-74.85,3.06-24.31,8.33-51.05,27.46-68.15,10.22-9.15,23-14.51,35.3-20.16,6-2.75,12.08-5.84,16.74-10.65a31.59,31.59,0,0,0,8.65-24.55c0-.48-.79-.49-.75,0Z"/></g><polygon class="cls-3" points="219.75 0 208.54 16.64 241.83 16.64 231.7 0 219.75 0"/></g></g></svg>