<svg xmlns="http://www.w3.org/2000/svg" viewBox="0 0 610.41 355.31"><defs><style>.cls-1,.cls-3{fill:#ed4848;}.cls-1{opacity:0.2;}.cls-2{opacity:0.47;}</style></defs><g id="圖層_2" data-name="圖層 2"><g id="圖層_1-2" data-name="圖層 1"><polygon class="cls-1" points="579.89 0 564.41 23 610.41 23 596.41 0 579.89 0"/><g class="cls-2"><path class="cls-3" d="M.68,355.12c5.55-13,16.51-21.32,28.07-28.69a366.72,366.72,0,0,0,34.51-24.87c18.11-14.76,34.43-31.4,49.93-48.84,12.79-14.4,25.11-29.32,39.25-42.45a169.74,169.74,0,0,1,54.86-33.91c25.38-9.83,52.36-14.84,79.42-17.07,21-1.73,41.95-1.37,62.95-2.06a678.56,678.56,0,0,0,70.6-6.32c25.81-3.58,52.07-8,76.62-16.95,22-8.05,42.75-19.89,60.17-35.66a89.79,89.79,0,0,0,20.3-25.78,135.55,135.55,0,0,0,11.72-33.94A136.59,136.59,0,0,0,591.46,23c0-.48-.7-.48-.75,0a143.13,143.13,0,0,1-8,35.18c-4.13,11.4-9.76,22.75-18.09,31.69-16,17.16-36.53,30.28-58,39.44-24.14,10.29-50.18,15.35-76,19.33a702.52,702.52,0,0,1-74.22,7.57c-20.26.95-40.56.45-60.81,1.69-25.77,1.59-51.53,5.41-76.16,13.36-21.4,6.91-41.7,16.76-59.11,31.1-14.61,12-27.06,26.38-39.51,40.56C106.28,259.51,91.47,275.84,75,290.55a356.35,356.35,0,0,1-32.26,25.61c-11,7.75-23.48,14-32.85,23.85A49.63,49.63,0,0,0,0,354.74c-.18.44.46.82.65.38Z"/></g></g></g></svg>