<svg xmlns="http://www.w3.org/2000/svg" viewBox="0 0 49.34 257.13"><defs><style>.cls-1,.cls-3{fill:#ed4848;}.cls-1{opacity:0.2;}.cls-2{opacity:0.47;}</style></defs><g id="圖層_2" data-name="圖層 2"><g id="圖層_1-2" data-name="圖層 1"><polygon class="cls-1" points="22.32 0 8.63 20.36 49.34 20.36 36.95 0 22.32 0"/><g class="cls-2"><path class="cls-3" d="M29.31,18.41a78,78,0,0,1-9.78,47.92c-7.21,12.83-17.14,25-19.15,40-2.08,15.59,4.69,30.44,10.85,44.34,3.31,7.44,6.59,14.92,8.81,22.78A123.08,123.08,0,0,1,24.29,199c1.15,17.17-.54,34.37-2.55,51.41-.25,2.14-.51,4.28-.76,6.41-.06.48.69.48.75,0,2.06-17,4.08-34.2,3.61-51.41a138.35,138.35,0,0,0-2.82-25A124.93,124.93,0,0,0,15,157.4C8.84,143,.7,128.22.74,112.11c.05-15.9,9.57-28.78,17.38-41.85a89,89,0,0,0,9.64-21.49,76.91,76.91,0,0,0,2.82-24.14c-.09-2.08-.27-4.16-.52-6.22-.06-.48-.81-.48-.75,0Z"/></g></g></g></svg>