<svg xmlns="http://www.w3.org/2000/svg" viewBox="0 0 207.67 289.86"><defs><style>.cls-1{opacity:0.66;}.cls-2,.cls-4{fill:#ffc517;}.cls-2{opacity:0.2;}.cls-3{opacity:0.47;}</style></defs><g id="圖層_2" data-name="圖層 2"><g id="圖層_1-2" data-name="圖層 1"><g class="cls-1"><polygon class="cls-2" points="12.28 0 0 18.25 36.49 18.25 25.39 0 12.28 0"/></g><g class="cls-3"><path class="cls-4" d="M16.09,17.42c7.14,23.07,4.18,47.49,3.63,71.21-.27,11.59,0,23.28,2.3,34.69a89.84,89.84,0,0,0,12.11,30.07C46,172.21,63.49,186.59,82,198.56c20.63,13.37,42.66,24.43,63,38.29a379.39,379.39,0,0,1,56,46.6q3.09,3.1,6.1,6.29c.33.35.86-.18.53-.53a382.77,382.77,0,0,0-53.86-47.14c-9.82-7.09-20-13.66-30.43-19.84-10.64-6.31-21.46-12.31-32-18.74-19.36-11.77-38.16-25.33-51.82-43.69a92.55,92.55,0,0,1-14.75-28.87c-3.36-11.37-4.27-23.29-4.29-35.1,0-23.4,3.46-47.19-1.43-70.34q-.87-4.18-2.15-8.27a.37.37,0,0,0-.72.2Z"/></g></g></g></svg>