<svg xmlns="http://www.w3.org/2000/svg" viewBox="0 0 393.69 204.38"><defs><style>.cls-1,.cls-3{fill:#00a4ef;}.cls-1{opacity:0.2;}.cls-2{opacity:0.47;}</style></defs><g id="圖層_2" data-name="圖層 2"><g id="圖層_1-2" data-name="圖層 1"><polygon class="cls-1" points="10.66 0 0 15.84 31.67 15.84 22.03 0 10.66 0"/><g class="cls-2"><path class="cls-3" d="M15.62,16.18c1.15,13.19,7.38,25.61,15,36.23,7.83,10.92,17.66,20.85,29.15,27.91,13.13,8.07,27.78,14,42.51,18.38a255,255,0,0,0,46.3,9.08c15.57,1.66,31.18,1.9,46.83,1.86,15,0,30-.12,44.93,1.76s29.57,5.86,42.35,13.83,22.66,19.49,32,31.08,18.33,23.42,30,32.65c10.93,8.62,24.29,15.49,38.51,15.41a42.16,42.16,0,0,0,10.18-1.31c.46-.11.26-.84-.2-.72C378.47,206,363.6,201,351.29,192.8s-21.94-19.48-31.17-31-18.16-23-29.67-32.07c-11-8.65-24-14.07-37.6-17-29.08-6.3-59.2-2.77-88.67-4.45-31.41-1.8-63-8-91.44-21.84a115.27,115.27,0,0,1-18.36-10.7,104.24,104.24,0,0,1-15.26-14c-9.31-10.33-17.31-22.63-21-36.14a53.2,53.2,0,0,1-1.72-9.46c0-.47-.79-.48-.75,0Z"/></g></g></g></svg>