<svg xmlns="http://www.w3.org/2000/svg" viewBox="0 0 269.95 298.46"><defs><style>.cls-2{fill:#c7ecf9}.cls-3{fill:#140304}.cls-4{fill:#403a39}.cls-11,.cls-5{fill:#fff}.cls-6{fill:#150301}.cls-8{fill:none;stroke:#fcecdb;stroke-miterlimit:10}.cls-9{fill:#0066ca}.cls-11{opacity:.5;mix-blend-mode:soft-light}.cls-12{fill:#ffab2b}.cls-14{fill:#ed4848}.cls-15{fill:#666}.cls-16{fill:#4d4d4d}.cls-17{fill:#009e96}</style></defs><g style="isolation:isolate"><g id="圖層_2" data-name="圖層 2"><g id="圖層_1-2" data-name="圖層 1"><path class="cls-2" d="M247.32 265.2c-5.8-2.47-17.43 6.46-21.51-7.81-2-6.93-5.73-14.1-16.86-11.62-7.32 1.63-10.14 6.78-11.84 11.85a.47.47 0 01-.66.28 11.94 11.94 0 00-4.71-1.2c-5.91-.44-10.25 4.93-10.57 9.88a1.22 1.22 0 01-1.23 1.14c-4.43 0-9.64 1.36-12.33 6.59-5.27 10.2 36.07 8.22 61.15 8.55s25.06-14.86 18.56-17.66zM127.87 228.17c-5.8-2.47-17.43 6.46-21.51-7.81-2-6.93-5.73-14.1-16.86-11.62-7.32 1.63-10.14 6.78-11.84 11.85a.47.47 0 01-.66.28 12.12 12.12 0 00-4.71-1.2c-5.91-.44-10.25 4.93-10.57 9.88a1.23 1.23 0 01-1.23 1.15c-4.43 0-9.63 1.35-12.33 6.58-5.27 10.2 36.07 8.22 61.15 8.55s25.06-14.9 18.56-17.66z"/><g id="Mask_Group_6" data-name="Mask Group 6"><g id="Group_85" data-name="Group 85"><g id="Group_84" data-name="Group 84"><path id="Path_126" data-name="Path 126" class="cls-3" d="M115.16 160.72l-10.57-1.84c-13.45-2.75-9-17.73-9-17.73-.08-9 13.33-10.66 13.33-10.66 11.47-.93 14.26 16.55 14.26 16.55z"/><path id="Path_127" data-name="Path 127" class="cls-3" d="M180.46 160.31c25.29-6.87 17.31-23.41 17.31-23.41a10.12 10.12 0 00-9.22-8.12c-24.06-1.56-16.28 24.14-16.28 24.14z"/><path id="Path_128" data-name="Path 128" class="cls-4" d="M192.78 143.87c.6 3.73-5.18 8.54-5.18 8.54l-10.4-7a25.54 25.54 0 016.11-9.76c7.09-2.2 8.87 4.5 9.47 8.22z"/><path id="Path_129" data-name="Path 129" class="cls-4" d="M116.48 152.47c-13 2.3-14.91-11.59-8.91-14.15s10.93 5.94 10.93 5.94z"/><path id="Path_130" data-name="Path 130" class="cls-3" d="M100.39 238c-16.19-12.74-14.21-34.64-13-46.59.83-8.53 9.4-25.88 20.43-41.46 19.85-28 73.22-12.47 80-3.77 27.53 35.25 38.94 64 16 87.89-47.32 47.1-101.6 5.37-103.43 3.93z"/><path id="Path_131" data-name="Path 131" class="cls-3" d="M140.13 246.9a16 16 0 00-2.86 3.12c-2.73 3.73-5.82 7.51-7.63 11.88-1.7 4.1.55 7.73.28 11.89s.89 7.67 5 9.48a27.55 27.55 0 0013.08 2.32c1.1-.13 2.27-1.09 3.29-1.11 1.28 0 4.19 2.22 5.25.55 5.14-8.15 3-30.77 3-31.91-.02 0-9.42 4.47-19.41-6.22z"/><path id="Path_132" data-name="Path 132" class="cls-3" d="M138.84 279.26c.3-5.84-2.63-7.74-3.39-8.09 0 0-.3 2.58-.43 4.78a35.41 35.41 0 003.82 3.31z"/><path id="Path_134" data-name="Path 134" class="cls-3" d="M126.79 283.52a5 5 0 012.45 1.25c.81.86 1.17 2.82-.46 2.68a9.8 9.8 0 01-2.77-1c-.66-.27-1.6-.76-2.33-.5-1 .35-1 1.65-1 2.49-3.44.65-1.28-4.05-.75-5.58a24.23 24.23 0 014.86.66z"/><path id="Path_135" data-name="Path 135" class="cls-3" d="M131.29 286.53c-1.07 1-3.38 1.36-4.39 0A19.4 19.4 0 01124 279a16.39 16.39 0 01.85-10.76 38.36 38.36 0 014.55-7c.92-1.2 2.42-3.41 3.4-.93.62 1.56-.56 3.57.12 5.19s2.35 3.18 3.14 5 1.33 3.88 2.17 5.75a5.1 5.1 0 002.27 2.75c.73.49 2.19 1.14 2.49 2 .61 1.69-1.39 3.56-2.74 3.94-2.2.61-4.53-.91-6.57-.28a6.93 6.93 0 00-2.39 1.87z"/><path id="Path_136" data-name="Path 136" class="cls-3" d="M144 289.13c.69 1.13.94 2.38 2.48 2.58a11.94 11.94 0 002.07-.06 10.9 10.9 0 001.89-.11c2.09-.44 3.1-1.94 4.26-3.55a28.88 28.88 0 003.47-5.64 11 11 0 00.57-4.69 3.46 3.46 0 00-.59-2 4 4 0 00-2.34-1.18 10.93 10.93 0 00-2.9-.42 8 8 0 00-2.63.89c-.94.36-2 .58-3 .88a49.49 49.49 0 00-6.68 2.46c-1.18.57-2.42 1.06-2.11 2.5s2.11 3.15 2.89 4.36 1.83 2.63 2.62 3.98z"/><path id="Path_137" data-name="Path 137" class="cls-3" d="M145.05 290.33a.64.64 0 01.14-.76 1.83 1.83 0 01.72-.4 18.71 18.71 0 016.92-1 .64.64 0 01.75.9 4.94 4.94 0 01-.65 1.53 16 16 0 00-2.19 4.58 16.59 16.59 0 012.43 1.1c.4.36.93 1.64.39 2.09a.66.66 0 01-.35.11 16.28 16.28 0 01-4.15-.78c-.78-.16-2.68-.32-3.14-1.12-.15-.27.45-1.46.4-1.91a11.88 11.88 0 00-1.56-4.27"/><g id="Group_83" data-name="Group 83"><path id="Path_138" data-name="Path 138" class="cls-5" d="M127 173c3 .54 4.87 4.42 4.12 8.64s-3.82 7.21-6.85 6.68-4.87-4.4-4.12-8.64S124 172.4 127 173z"/><path id="Path_139" data-name="Path 139" class="cls-5" d="M179.19 171.62c2.87-1.1 6.46 1.25 8 5.26s.46 8.17-2.42 9.27-6.46-1.25-8-5.27-.46-8.15 2.42-9.26z"/><path id="Path_140" data-name="Path 140" class="cls-5" d="M176.33 192.87c4.79 17.72-19.57 20.71-19.57 20.71-20.25 2.47-25-13.25-25-13.25-1-18.57 23.56-19.18 23.56-19.18a21.94 21.94 0 0121.01 11.72z"/><g id="Group_80" data-name="Group 80"><path id="Path_141" data-name="Path 141" class="cls-6" d="M155.65 188.25c-3.29.57-7.66-.81-8.63-.5s-1.14 4.18-.17 4.94 7.34 3.5 9.59 3.35 5.79-4.25 6.06-5.27-.92-2.53-2.05-3.11a18.09 18.09 0 00-4.8.59z"/><path id="Path_142" data-name="Path 142" d="M155.9 188.55a35.83 35.83 0 01-7.32-.18c-.85 0-1.1 3.31-.26 3.94s6 2.87 8 2.79 5.37-3.68 5.62-4.49-.75-2.05-1.73-2.53a20.18 20.18 0 00-4.31.47z" fill="#2b1e1d"/><path id="Path_143" data-name="Path 143" class="cls-4" d="M156.15 188.85c-2.52.23-4.54.68-6 .12-.72-.27-1.06 2.47-.36 3a19.17 19.17 0 006.41 2.22c1.64 0 4.93-3.12 5.18-3.72s-.59-1.56-1.41-1.94a28.7 28.7 0 00-3.82.32z"/></g><g id="Group_81" data-name="Group 81"><path id="Path_144" data-name="Path 144" class="cls-6" d="M182.78 180a3.46 3.46 0 11.7-4.85 3.47 3.47 0 01-.71 4.85z"/><path id="Path_145" data-name="Path 145" class="cls-5" d="M180.25 176.53a1.18 1.18 0 11-1.66-.24 1.19 1.19 0 011.66.23z"/></g><g id="Group_82" data-name="Group 82"><path id="Path_146" data-name="Path 146" class="cls-6" d="M128.21 182.41a3.46 3.46 0 11.69-4.85 3.47 3.47 0 01-.69 4.86z"/><path id="Path_147" data-name="Path 147" class="cls-5" d="M125.69 179a1.19 1.19 0 11-1.67-.24 1.18 1.18 0 011.67.24z"/></g><path id="Path_148" data-name="Path 148" class="cls-3" d="M159.3 199.44a15 15 0 01-11.74-1.05c-.6-.32-1 .13-.63.86 6.16 11.82 9.46 5.07 13 1 .51-.5-.06-1.01-.63-.81z"/></g></g><path id="Path_149" data-name="Path 149" class="cls-3" d="M125.85 273.9a3.85 3.85 0 01-2 2.76c-10.81 6-8.22-14.29-.5-7.37a3.46 3.46 0 011.15 3.2"/></g></g><g id="Group_88" data-name="Group 88"><g id="Group_86" data-name="Group 86"><path id="Path_124" data-name="Path 124" class="cls-3" d="M156 257.4c-7.86 3.9 7.31 10.85 7.31 10.85a21.4 21.4 0 0011.58 1.64c1.54-.36 2.79-.11 4-1.79a1.24 1.24 0 000-1.18 3.15 3.15 0 00.48-.78c.28-.56-.57-1.13-.57-1.13s.05.23.32-.42-.44-1.07-.44-1.07c-.89-.55-1.18-.84-6-.67-5.52.2-12.4-6.61-12.4-6.61-2.42-1.76-4.28 1.14-4.28 1.16z"/></g><g id="Group_87" data-name="Group 87"><path id="Path_125" data-name="Path 125" class="cls-3" d="M133.59 252.89c7.86 3.9-7.31 10.85-7.31 10.85a21.47 21.47 0 01-11.57 1.64c-1.55-.36-2.8-.11-4-1.79a1.24 1.24 0 010-1.18 3.15 3.15 0 01-.48-.78c-.28-.56.57-1.13.57-1.13s0 .23-.32-.42.45-1.06.45-1.06c.88-.56 1.17-.85 6-.68 5.51.2 12.39-6.61 12.39-6.61 2.42-1.73 4.27 1.15 4.27 1.16z"/></g><path id="Path_150" data-name="Path 150" class="cls-5" d="M146.53 259.58c3.6 4.58 5 5.22 6.2 5a8.93 8.93 0 006.44-4.72 22 22 0 01-4.57 1.68c-3.58.75-8.63-5.38-9.66-7.34a19.86 19.86 0 001.59 5.38z"/></g><path class="cls-8" d="M78.12 186.14s10.61 19.24 31.61 57.08c0 0 5.16 8.49 2.89 17.47"/><path class="cls-8" d="M36.58 169.83s34.24 41.22 54.51 56.42S114 260.69 114 260.69"/><path class="cls-8" d="M53.91 114.2s19.18 63 29.25 78.18 29.88 60 27.21 70.21"/><path class="cls-9" d="M49.06 164.42c3.56 13.7 15.89 25 27 22.63l.66-.15.85-.25c6.81-2.22 11.4-9.38 12.93-17.78a35.27 35.27 0 00-.5-15.07c-.26-1-.57-2-.91-2.93-4.38-11.94-15-17.3-25.47-14.58a20.61 20.61 0 00-9.39 5.28c-4.8 4.76-7.17 12-5.69 20.39.13.81.31 1.63.52 2.46z"/><path d="M48.53 162c6 12.47 18.16 21.35 29.1 18.51 5.66-1.47 10.07-5.83 12.89-11.6A35.27 35.27 0 0090 153.8c-.26-1-.57-2-.91-2.93-4.38-11.94-15-17.3-25.47-14.58a20.61 20.61 0 00-9.39 5.28c-4.81 4.76-7.18 11.99-5.7 20.43z" fill="#0079d9"/><path class="cls-9" d="M76.31 185l3.13 4s-.54 1.72-3.69 1z"/><path class="cls-11" d="M54.51 149.38a18.09 18.09 0 0034.57 1.49c-4.38-11.94-15-17.3-25.47-14.58a20.61 20.61 0 00-9.39 5.28 18 18 0 00.29 7.81z"/><path class="cls-5" d="M71.85 141.31a.71.71 0 10.51-.87.71.71 0 00-.51.87zM75.22 144.94a1.64 1.64 0 101.18-2 1.65 1.65 0 00-1.18 2z"/><path class="cls-12" d="M26.37 94c3.76 13.65 16.24 24.74 27.34 22.25l.66-.17.85-.26c6.77-2.32 11.26-9.54 12.67-18a35.29 35.29 0 00-.74-15.06c-.28-1-.6-2-1-2.91C61.65 68 51 62.77 40.51 65.64a20.6 20.6 0 00-9.31 5.41c-4.73 4.83-7 12.09-5.4 20.46q.2 1.22.57 2.49z"/><path d="M25.8 91.51c6.22 12.39 18.47 21.1 29.37 18.1 5.63-1.55 10-6 12.72-11.79a35.29 35.29 0 00-.74-15.06c-.28-1-.6-2-1-2.91C61.65 68 51 62.77 40.51 65.64a20.6 20.6 0 00-9.31 5.41c-4.73 4.83-7 12.09-5.4 20.46z" fill="#ffc213"/><path class="cls-12" d="M53.91 114.2l3.19 3.87s-.52 1.72-3.68 1z"/><path class="cls-11" d="M31.6 78.86a18.1 18.1 0 0034.59 1C61.65 68 51 62.77 40.51 65.64a20.6 20.6 0 00-9.31 5.41 18.2 18.2 0 00.4 7.81z"/><path class="cls-5" d="M48.82 70.54a.72.72 0 10.5-.88.72.72 0 00-.5.88zM52.25 74.12a1.64 1.64 0 101.15-2 1.65 1.65 0 00-1.15 2z"/><path class="cls-14" d="M3.72 156.2c7 12.3 21.86 19.94 32 14.78l.6-.32c.26-.15.51-.31.75-.47 6-3.92 8.55-12 7.83-20.54a35.37 35.37 0 00-4.45-14.41 30 30 0 00-1.65-2.58c-7.34-10.38-19-12.78-28.4-7.41a20.59 20.59 0 00-7.67 7.55c-3.39 5.85-3.79 13.45-.17 21.16.34.75.73 1.5 1.16 2.24z"/><path class="cls-14" d="M2.55 154c9.1 10.46 23.12 15.86 32.93 10.26 5.08-2.9 8.2-8.26 9.41-14.57a35.37 35.37 0 00-4.45-14.41 30 30 0 00-1.65-2.58c-7.34-10.38-19-12.78-28.4-7.41a20.59 20.59 0 00-7.67 7.55c-3.39 5.81-3.79 13.41-.17 21.16zM35.41 169l4 3s-.07 1.79-3.31 1.88z"/><path class="cls-11" d="M5 140.26a18.1 18.1 0 0033.76-7.6c-7.34-10.38-19-12.78-28.4-7.41a20.59 20.59 0 00-7.67 7.55A18 18 0 005 140.26z"/><path class="cls-5" d="M19.66 127.94a.71.71 0 101.24-.71.73.73 0 00-1-.27.72.72 0 00-.24.98zM23.87 130.56a1.64 1.64 0 10.61-2.25 1.64 1.64 0 00-.61 2.25z"/><path class="cls-3" d="M115.55 258.37s-2.86 1.21-2.86 2.73 6.09-1.52 6.09-1.52"/><path class="cls-15" d="M158.31 73.52A29.31 29.31 0 00144.18 77c-1.35.72-2.9 2.06-1.86 3.73.83 1.34 3.12 1.41 4.5 1.7 1.76.36 3.51.72 5.27 1.06q5.37 1.05 10.77 1.92a1.52 1.52 0 001.69-2.2 41.65 41.65 0 00-6.46-9.38c-1.31-1.43-3.42.7-2.12 2.12a38.75 38.75 0 016 8.78l1.69-2.21q-4.92-.8-9.82-1.74c-1.63-.31-3.26-.64-4.89-1l-2.26-.48-1.13-.3-.75-.16q-.62-.22.12.3V80c0-.17.86-.48 1.07-.59q.84-.43 1.71-.81a26.11 26.11 0 013.43-1.16 26.74 26.74 0 017.17-.89 1.5 1.5 0 000-3z"/><path class="cls-15" d="M158 75.89a21.76 21.76 0 00-10.16 21.9c.46 2.83 1.52 6.14 4 7.86 2.09 1.47 5.43 1.47 6.84-.94a5.28 5.28 0 00-1.46-6.53c-4.67-3.65-11.69-.3-15.05 3.57-3.85 4.46-5.43 11-3.09 16.51.36.88 1.82.5 1.44-.39-3.4-8.09 2.4-19.41 11.69-19.66 2.57-.07 5.44 1.16 5.55 4.08.13 3.28-3.69 3.48-5.61 1.68s-2.64-4.75-2.94-7.23a20.32 20.32 0 019.57-19.55.75.75 0 00-.76-1.3z"/><path class="cls-15" d="M147.19 79.11a46.81 46.81 0 0112.6 2c.93.29 1.32-1.16.4-1.44a48.52 48.52 0 00-13-2.1.75.75 0 000 1.5z"/><path class="cls-16" d="M114.45 2.89a19.55 19.55 0 01-2.64 3.43 13.12 13.12 0 00-1.1-.73A15.69 15.69 0 00114.55 0l1.22.35c-.21.47-.43 1-.68 1.42h10.3v1.12zm9.13 6.53c-.06 1.08-.11 2-.2 2.67h2v1.1h-2.14a3.92 3.92 0 01-.48 1.56 1.54 1.54 0 01-1.18.6 17.68 17.68 0 01-2.14 0 2.53 2.53 0 00-.31-1 17 17 0 001.94.07.67.67 0 00.62-.23 2.57 2.57 0 00.33-1h-9.55c.18-1 .42-2.35.64-3.77h-2.36V8.28h2.52c.17-1.29.35-2.58.47-3.7h10v.6c0 1.17-.09 2.2-.12 3.1H126v1.14zm-1.42 2.67c.07-.68.14-1.57.2-2.71h-8c-.13 1-.28 1.91-.41 2.71h5.16a15 15 0 00-3-2l.7-.69a12.89 12.89 0 013.19 2.07l-.57.62zm-7.31-6.4c-.11.85-.23 1.73-.36 2.62h5a12.12 12.12 0 00-3-1.87l.7-.7a12.19 12.19 0 013 1.84l-.72.73h2.86c0-.78.07-1.64.1-2.62zM140.39 13.55c0 .87-.25 1.3-.87 1.5a13.24 13.24 0 01-3.53.24 5.25 5.25 0 00-.53-1.29c1.4.05 2.74 0 3.12 0s.52-.13.52-.5v-3.32h-8a9.52 9.52 0 01-2.88 5.21 5 5 0 00-.92-.91c2.66-2.34 2.93-5.73 2.93-8.39V1h10.18zM139.1 9V6.15h-7.64a21.54 21.54 0 01-.18 2.85zm-7.64-6.77V5h7.64V2.19zM149.74 8.45l-2 .63v4.85c0 .69-.17 1-.6 1.22a6.26 6.26 0 01-2.19.22 4.53 4.53 0 00-.39-1.14h1.66c.2 0 .31-.08.31-.32V9.45l-2.19.68-.34-1.2c.7-.18 1.57-.43 2.52-.72V4.6h-2.3V3.45h2.3V.1h1.21v3.35h1.85V4.6h-1.88v3.29l1.87-.57zm9.38-4.54V15.2h-1.22v-1.07h-6.57v1.19h-1.19V3.91H154V.12h1.19v3.79zm-7.79 1.19v3.26H154V5.1zm0 7.84H154V9.53h-2.62zm3.81-7.84v3.26h2.76V5.1zm2.76 7.84V9.53h-2.76v3.41zM169.79 11.76c2.09.77 4.9 1.89 6.4 2.61l-.6 1c-1.47-.75-4.43-2-6.6-2.84l.51-.75h-.78c-.65 1.38-2.46 2.84-7.18 3.64a4.14 4.14 0 00-.7-1c3.87-.64 5.62-1.66 6.42-2.64H161V10.7h6.79a2.85 2.85 0 00.06-.63v-1h1.22v1.6h3.41a13.16 13.16 0 00-1.34-1.08l.51-.46H171a3.92 3.92 0 00-.35-1h1.62c.18 0 .27-.07.27-.25V6.32h-3.9a7 7 0 011.77 1.47l-.81.67a8.26 8.26 0 00-1.81-1.59l.7-.55h-2v-.89h6V4.21h1.19v1.22h2.1v.89h-2.1V8c0 .59-.12.84-.57 1a4.59 4.59 0 01-1.31.15 11.93 11.93 0 011.49 1.17l-.35.37h3.13v1.06zm-6.42-5.35A4.29 4.29 0 01162 9.68a8 8 0 00-1-.55 3.47 3.47 0 001.26-2.76v-.15H161v-1h3.67V3.93h-2.88V.5h1.07v2.43h1.81V.13h1.15v9.42h-1.15V6.22h-1.34zm11.92-5.14c-1.49 2.56-4.9 3.66-8.36 4.15a2.71 2.71 0 00-.52-.79 17.2 17.2 0 004.7-1.12A12 12 0 00169.49 2a20.49 20.49 0 01-2.23.82 3.11 3.11 0 00-.68-.72 12 12 0 004.5-2l1.08.23a5.85 5.85 0 01-.85.67h3.33zm-5.45 2.34c-1 .1-1.94.17-2.79.24l-.14-.74 2.91-.18zm.53-1.89a10.62 10.62 0 011.54 1.42 6.55 6.55 0 001.86-1.42zM181.49 9c-.16-.45-.53-1.23-.88-1.94v8.28h-1.09v-8a18.55 18.55 0 01-1.52 4.43 8.74 8.74 0 00-.54-1.2 21.15 21.15 0 002-6.11h-1.67V3.29h1.77V.08h1.09v3.21h1.32v1.17h-1.32v1.09c.37.59 1.27 2.14 1.49 2.54zm10.24 1.24a9.65 9.65 0 01-2.06 2.68 2.41 2.41 0 001.74 1.2c.35 0 .57-.6.7-1.8a3.69 3.69 0 00.89.68c-.32 1.82-.84 2.44-1.5 2.39a3.39 3.39 0 01-2.65-1.7 14.17 14.17 0 01-2.92 1.62 4.4 4.4 0 00-.67-.79 12 12 0 003.11-1.74 16.25 16.25 0 01-1-3.06h-2.73v.64a25.44 25.44 0 012.3 2l-.77.75c-.38-.4-1-1-1.68-1.57a6.56 6.56 0 01-2.46 3.9 3.67 3.67 0 00-.82-.76 5.62 5.62 0 002.37-4.71v-.29h-1.27v-1h4.88a63.55 63.55 0 01-.71-8.46h1.07a56.63 56.63 0 00.73 8.46h2.39a12.06 12.06 0 00-1.49-1.07l.64-.59a12.22 12.22 0 011.74 1.21l-.44.45h1.39v1h-4a14.16 14.16 0 00.72 2.29 7.68 7.68 0 001.49-2.1zm-5.92-2.51c-.05-.2-.12-.43-.19-.7a13.36 13.36 0 00-3 .57 5.22 5.22 0 00-.29-.94 2 2 0 00.85-.75 17.78 17.78 0 001.07-1.5 6.81 6.81 0 00-1.79.35 5.3 5.3 0 00-.28-.92c.2-.05.4-.27.62-.62a13.63 13.63 0 001.4-2.87l.94.3a17 17 0 01-1.67 3l1.32-.14c.2-.36.4-.73.57-1.12l.9.36a22.51 22.51 0 01-2.51 3.69l1.63-.22c-.12-.36-.26-.71-.39-1l.79-.22a15.58 15.58 0 01.85 2.48zm6-.28c0-.2-.12-.47-.22-.75a13.68 13.68 0 00-3 .58c-.06-.2-.22-.72-.33-1 .27-.05.52-.33.83-.73a13.91 13.91 0 001-1.49 6.16 6.16 0 00-1.69.33 6.06 6.06 0 00-.32-.93c.2 0 .39-.24.59-.56a12.41 12.41 0 001.2-2.62l.94.28a16.37 16.37 0 01-1.46 2.74l1.22-.13a11.36 11.36 0 00.59-1.15l.95.35a23.46 23.46 0 01-2.44 3.74l1.67-.23c-.13-.33-.27-.69-.4-1l.75-.22a18.88 18.88 0 01.94 2.47zM203 .43c-.08.11-.17.22-.23.32a16.34 16.34 0 007.05 3.48 4.82 4.82 0 00-.78.95 19.42 19.42 0 01-4.1-1.67V4h-5.84v-.42a22.78 22.78 0 01-4.1 1.7 10.15 10.15 0 00-.71-1c3-.8 6-2.27 7.56-4.3zm-6.57 4.42h11.17v4.21h-11.22zm1 5h9.4v5.44h-1.26v-.51h-6.92v.55h-1.22zm.1-1.64h3.94V5.72h-3.94zm1.89-2.31a7 7 0 011 1.89l-1 .35a7.33 7.33 0 00-.94-1.95zm-.77 4.84v1.13h6.92v-1.13zm6.92 3.16v-1.14h-6.92v1.14zm-1.33-10.77A15.23 15.23 0 01202 1.46a13.34 13.34 0 01-2.16 1.67zm2.19 2.59h-4v2.49h4zm-2.91 2.12a14.94 14.94 0 00.92-2l1.05.33a17 17 0 01-1.14 2zM226.11 2.51h-2.06v11.07c0 .9-.21 1.34-.85 1.52a13.12 13.12 0 01-3.46.23 5.83 5.83 0 00-.54-1.33c1.34.07 2.71.05 3.1 0s.48-.14.48-.49v-11h-11.47V1.27h14.8zm-11.89 8.64v1.34H213V5h6.79v6.2zm0-5V10h4.37V6.15zM242.85 13.55v1.17H228v-1.17h6.74v-3.08h-5.29V9.31h5.29V7.14H236v2.17h5.44v1.16H236v3.08zm-1.71-6a10.56 10.56 0 00-1.07-1.2c-9 .43-9.91.47-10.53.68a9.19 9.19 0 00-.4-1.23 2.59 2.59 0 001.15-.8 18.47 18.47 0 002.51-2.83h-4.42V1h13.94v1.19h-7.9a25.68 25.68 0 01-3.11 3.45l7.69-.32c-.69-.62-1.41-1.24-2.08-1.76l1-.63a26.34 26.34 0 014.25 3.86z"/><path class="cls-17" d="M88.52 32.75a20.86 20.86 0 01-1.83 2.52v8.8h-1.24v-7.43a18.5 18.5 0 01-1.89 1.74 13.22 13.22 0 00-.87-1 18.21 18.21 0 004.68-5zm-.65-3.53a20.54 20.54 0 01-4.28 4.15 10.54 10.54 0 00-.73-1 16.87 16.87 0 003.83-3.63zm10.25 6.3H95.6v6.91c0 .77-.18 1.15-.74 1.36a12.87 12.87 0 01-3.14.18 4.57 4.57 0 00-.4-1.2h2.61c.32 0 .41-.08.41-.37v-6.88h-5.58v-1.18h9.36zm-.48-4.58h-8.16v-1.17h8.16zM101.37 39.61a23.57 23.57 0 01-.82 4 5.61 5.61 0 00-.92-.34 19.39 19.39 0 00.78-3.85zm3.31-4.5a28.28 28.28 0 011.12 3.19l-.94.37c0-.24-.13-.52-.2-.8-3.73.58-4.23.7-4.55.87a4.73 4.73 0 00-.35-1.09c.34-.07.7-.49 1.19-1.12a20.34 20.34 0 001.37-2A8.27 8.27 0 00100 35a11 11 0 00-.35-1.07c.27-.07.55-.42.89-.92a22.2 22.2 0 002.14-4.21l1 .45a26 26 0 01-2.52 4.48l1.75-.17a23.89 23.89 0 001.22-2.3l1 .58a33.13 33.13 0 01-3.66 5.55l2.88-.4c-.19-.53-.4-1.07-.59-1.55zM103 39.39a25.86 25.86 0 01.46 3.51l-.93.23a35.62 35.62 0 00-.4-3.58zm1.75-.44a24.34 24.34 0 011 3.21l-.87.32a24.33 24.33 0 00-.94-3.24zm9.77 3.68c0 .69-.13 1-.57 1.19a5.5 5.5 0 01-2.11.22 4.61 4.61 0 00-.31-1.11h1.57c.2 0 .28-.08.28-.32v-12h-6.25v13.44H106v-14.5h8.51zm-2.69-2.76a4.58 4.58 0 001-.08c0 .28.07.67.1.92a4.42 4.42 0 01-1.07.08h-2.14c-1.1 0-1.35-.4-1.35-1.5v-1.62h-.62v-1H110a9.54 9.54 0 00-.65-1.47l.77-.3h-2.56v-1h3.18a20 20 0 00.79-2.76l.9.27c-.25.82-.55 1.77-.82 2.49H113v1h-2.81a12.08 12.08 0 01.74 1.5l-.6.27h2.47v1h-3.45v1.63c0 .44.06.57.41.57zm-2.93-8.74a7.94 7.94 0 01.9 2.37l-.8.29a9.23 9.23 0 00-.87-2.4zM122.76 41l.11 1.05c-2.12.51-4.38 1.06-6 1.42l-.33-1.18 2.72-.55V37h-2.56v-1.1h2.54v-1.83h-1.65v-.8l-.75.6a7.39 7.39 0 00-.57-1.17 11.83 11.83 0 003.59-3.91l1.06.38a6.17 6.17 0 01-.34.58 26.82 26.82 0 012.66 2.35l-.77.88a24.51 24.51 0 00-2.47-2.32 15.25 15.25 0 01-2 2.32h4.18v1.09h-1.74v1.81h2.32V37h-2.32v4.55zM118 37.85a18 18 0 01.73 3.09l-.92.25a19 19 0 00-.68-3.12zm2.76 2.81a23.3 23.3 0 00.81-3l1 .3c-.32 1-.69 2.24-1 3zm10.75-2.46a22.44 22.44 0 01-2.66 1.87 7.26 7.26 0 002.89 2.73 4.3 4.3 0 00-.85 1c-2.29-1.29-3.76-3.9-4.55-7H125v5.44l2.77-.79a7.55 7.55 0 00.12 1.11c-3.5 1.08-4 1.27-4.33 1.5a3.46 3.46 0 00-.44-1.07 1 1 0 00.67-1V29.5h7.09v7.31h-3.39a11.13 11.13 0 00.92 2.36 16.63 16.63 0 002.32-1.84zM125 30.59v2h4.68v-2zm0 5.12h4.68v-2.08H125zM137.82 43.89l-.9.3-3.71-7.8 3.71-7.79.9.3-3.59 7.49zm2.64 0l-.9.3-3.71-7.8 3.71-7.79.9.3-3.59 7.49zM155.7 36.08a16.89 16.89 0 01-2.91 3.92c.63 1.75 1.39 2.82 2.22 2.82.45 0 .66-.85.76-3a3 3 0 001 .67c-.23 2.76-.67 3.56-1.92 3.56s-2.33-1.17-3.1-3.13a17 17 0 01-3.53 2.46 4.53 4.53 0 00-.85-1 16.16 16.16 0 004-2.7 32 32 0 01-.93-4.85h-3.93v2.67l3-.65.08 1.12c-1 .25-2.05.48-3.07.72v3.71c0 .8-.2 1.17-.72 1.37a9.15 9.15 0 01-2.8.23 5.11 5.11 0 00-.47-1.26h2.35c.29 0 .4-.08.4-.39V39l-3.47.77-.35-1.25c1-.17 2.36-.46 3.82-.76v-2.9h-3.58v-1.19h3.58V31c-1 .2-2.09.37-3.08.5a4.62 4.62 0 00-.4-1 38.51 38.51 0 006.6-1.5l.89 1a24 24 0 01-2.79.77v2.91h3.83c-.15-1.52-.22-3.13-.24-4.77h1.27c0 1.67.07 3.28.2 4.77h4.92v1.19h-4.78a30.61 30.61 0 00.68 3.81 14.35 14.35 0 002.2-3.05zm-.6-3.38a16.4 16.4 0 00-2.63-2.84l.95-.66a17.64 17.64 0 012.68 2.8zM162.84 29c-.29.82-.59 1.74-.87 2.46h2.78v10.82h-4.65v1.32H159V31.43h1.87a21.85 21.85 0 00.67-2.71zm.77 3.58h-3.51V36h3.51zm0 8.61v-4h-3.51v4zm9.31-9.19c-.26 7.63-.48 10.2-1.15 11a1.66 1.66 0 01-1.32.67 17.12 17.12 0 01-2.48 0 2.82 2.82 0 00-.42-1.23c1.09.11 2.1.11 2.48.11s.52 0 .69-.26c.55-.58.8-3.12 1-9.78h-4.25a14.57 14.57 0 01-1.57 2.93 10.85 10.85 0 00-1-.71 17 17 0 002.56-6.07l1.18.29a22.26 22.26 0 01-.72 2.41h5zm-3.69 7.54a30.14 30.14 0 00-2.54-3.86l1-.57a33.61 33.61 0 012.62 3.78zM179.19 29.17a30 30 0 01-1.19 3.21V44h-1.19v-9.3a15.89 15.89 0 01-1.44 2.16 10.08 10.08 0 00-.65-1.26 20.41 20.41 0 003.33-6.79zM188.63 40a7.14 7.14 0 01-2.8 2.27 23.62 23.62 0 004.25.76 5.05 5.05 0 00-.65 1 21.76 21.76 0 01-5-1.15 25.7 25.7 0 01-5.12 1.17 4.35 4.35 0 00-.64-.94 25.85 25.85 0 004.37-.82 9 9 0 01-1.69-1.07 16.37 16.37 0 01-1.72.94 2.89 2.89 0 00-.74-.74 14.34 14.34 0 001.71-.85 7.27 7.27 0 01-.64-.73l1-.37a4.34 4.34 0 00.5.57 9.24 9.24 0 001.41-1.22c-.49-.12-.64-.41-.64-1v-1h1v1c0 .32.1.37.65.37H186c.39 0 .47-.09.52-.74a2.56 2.56 0 00.86.28c-.11 1-.39 1.21-1.26 1.21h-2a6.36 6.36 0 01-.67.72H187.89zm1.53-4.53v2.24H189v-1.4h-4.59a7.86 7.86 0 011.48 1.07l-.7.5a9.46 9.46 0 00-1.62-1.2l.55-.37h-4v1.44h-1.09v-2.24h1.64v-4.18h2.91c.09-.29.15-.59.22-.87h-4.33v-1h10.43v1h-4.74c-.11.3-.23.6-.35.87h3.8v4.18zm-8 1.74a6.37 6.37 0 01-1.75 1.85l-.74-.58a5.41 5.41 0 001.71-1.69zm-.28-5.2v.71h5.57v-.71zm5.57 1.37h-5.57v.72h5.57zm-5.57 2.09h5.57v-.72h-5.57zm.35 5.17a9.35 9.35 0 002.23 1.17 8.22 8.22 0 002.39-1.38h-4.38zm6.64-1.51a10.74 10.74 0 00-1.89-2l.7-.42a12 12 0 011.93 1.89zM191.82 42.93a10.13 10.13 0 001.57-3.09l1.06.42a12.56 12.56 0 01-1.56 3.26zm.38-5.06h6.34v-1.33h-5.18v-4.66h5.18v-1.07h-6.32v-1h6.32v-1h1.26v1h6.5v1h-6.5v1.07h5.33v4.66h-2.62a14.52 14.52 0 013.93 2.46l-.86.72a8.68 8.68 0 00-1.1-.94c-4.47.1-9.17.19-12.21.22zm2.34-4.07h4v-1.09h-4zm4 1.91V34.6h-4v1.11zm2.88 7c.8 0 1-.2 1-1.67a3.76 3.76 0 001.1.43c-.17 1.86-.55 2.29-2.06 2.29h-3.78c-1.89 0-2.39-.32-2.39-1.54v-2.31h1.22v2.34c0 .43.19.5 1.24.5zm-1-1.14a12.1 12.1 0 00-2.75-1.9l.78-.67a12.22 12.22 0 012.83 1.82zm-.66-8.9v1.13h4.11v-1.09zm4.11 1.89h-4.07v1.11h4.11zm-4.11 3.23h3.19a14.92 14.92 0 00-1.39-.69l.77-.57h-2.53zm4.73 2a11.91 11.91 0 012 3.12l-1.12.4a14.21 14.21 0 00-1.92-3.16zM207.89 43.89l3.6-7.5-3.6-7.49.9-.3 3.72 7.79-3.72 7.8zm2.64 0l3.6-7.5-3.6-7.49.91-.3 3.71 7.79-3.71 7.8z"/><path class="cls-16" d="M231.72 32h-5.38a50 50 0 015.35 3.56l-.81.87a50 50 0 00-6-4.08v3.13h-1.23v-3.4a15.59 15.59 0 01-6.23 4.58 7.74 7.74 0 00-.82-1 14.58 14.58 0 005.7-3.68H217v-1.1h6.7v-2.11h1.23v2.11h6.8zm-14.45 10.4h14.22v1.1h-14.22zM229 36v5.42h-9.24V36zm-1.28.89h-6.74v1.38h6.74zm0 2.25h-6.74v1.39h6.74zM239.55 32.61h-6v-1h6zM238.88 43h-3.68v.78h-1v-5.6h4.68zm-4.67-8.25v-1h4.65v1zm0 1.19h4.67v1h-4.67zm1 3.26V42h2.66v-2.78zm1.32-7.81a16 16 0 00-1.25-2.22l.88-.52a12.66 12.66 0 011.29 2.14zm11.92-.17v.66c-.24 7.92-.45 10.56-1.07 11.38a1.56 1.56 0 01-1.24.69 17.81 17.81 0 01-2.29 0 2.4 2.4 0 00-.39-1.22c1 .07 1.84.09 2.19.09a.68.68 0 00.66-.29c.51-.57.73-3.14.93-10.13h-5.43c-.32.58-.65 1.15-1 1.64h4.38v6.65h-3.61v.85h-1v-7.17c-.15.2-.32.4-.47.59a9 9 0 00-1.11-.76 12.81 12.81 0 002.85-5.45l1.22.29a22 22 0 01-.79 2.2zm-6.87 3.82v1.79h2.58v-1.77zm2.58 4.6v-1.79h-2.58v1.81zM254.93 39.62h-3.13v1.59h-1.07V30.34h4.2zm-3.13-8.13v7h2v-7zm7.63.09a26.73 26.73 0 01-1.92 2.31l5.3-.29c-.4-.45-.85-.89-1.24-1.27l.89-.62a26.12 26.12 0 012.86 3.06l-.94.7c-.17-.25-.42-.56-.7-.9-6.49.44-7.24.5-7.69.69a9.1 9.1 0 00-.39-1.14 2.68 2.68 0 001.17-1 19.49 19.49 0 001.29-1.55h-2.41v-1.06h3.14A19.42 19.42 0 00260 28.6l1.22.44c-.32.48-.64 1-1 1.47h5.18v1.07zm4.68 11.07c0 .63-.13.92-.6 1.1a9.64 9.64 0 01-2.41.15 3.54 3.54 0 00-.33-1h1.84c.23 0 .3-.07.3-.29v-2.25c-1.62.42-3.28.82-4.6 1.14l-.38-1c1.27-.27 3.12-.67 5-1.11v-2.58h-5.14v2.49a8.42 8.42 0 01-1.12 4.79 4 4 0 00-.93-.76 7.11 7.11 0 00.9-4.06v-3.41h7.49zm-5.58-5.32a17.2 17.2 0 013.61 1.17l-.45.87a17.79 17.79 0 00-3.6-1.29zM267.74 41.81a1.11 1.11 0 112.21 0 1.11 1.11 0 11-2.21 0zm.39-9.85l-.05-1.74h1.55l-.05 1.78-.2 7.09h-1.05z"/></g></g></g></svg>