<svg xmlns="http://www.w3.org/2000/svg" viewBox="0 0 68.41 472.06"><defs><style>.cls-1,.cls-3{fill:#00a4ef;}.cls-1,.cls-2{opacity:0.2;}</style></defs><g id="圖層_2" data-name="圖層 2"><g id="圖層_1-2" data-name="圖層 1"><polygon class="cls-1" points="16.44 0 0 24.43 48.85 24.43 33.99 0 16.44 0"/><g class="cls-2"><path class="cls-3" d="M21.53,22.87C35.85,50.21,29.67,82.15,24.3,111c-3,15.83-5.82,31.89-5.15,48.06.59,14.29,4.44,28,9.76,41.2,10.94,27.15,26.62,52.5,29.24,82.29,1.44,16.4-1,32.35-4.49,48.35-3.25,15-6,29.89-6.59,45.27a200,200,0,0,0,16,85.65q2.19,5.1,4.67,10.07c.21.44.86.06.65-.37A199.27,199.27,0,0,1,47.7,384.07a214.23,214.23,0,0,1,5.21-46.18C56.24,322.36,59.65,307,59.35,291a129,129,0,0,0-8.87-43.54c-5-13.12-11.37-25.65-17-38.48-5.85-13.19-11-26.88-12.82-41.28-2.09-16.57.22-33.28,3.14-49.6,5.05-28.2,12.49-58.49,2.43-86.5a72.1,72.1,0,0,0-4-9.09c-.22-.43-.87,0-.64.38Z"/></g></g></g></svg>