<svg xmlns="http://www.w3.org/2000/svg" viewBox="0 0 110.35 291.37"><defs><style>.cls-1,.cls-3{fill:#ffc517;}.cls-1{opacity:0.2;}.cls-2{opacity:0.47;}</style></defs><g id="圖層_2" data-name="圖層 2"><g id="圖層_1-2" data-name="圖層 1"><polygon class="cls-1" points="79.83 0 64.35 23 110.35 23 96.35 0 79.83 0"/><g class="cls-2"><path class="cls-3" d="M35.12,290.64a44.51,44.51,0,0,1-28.3-17C-.35,264-.55,251.06,3.37,240a46.36,46.36,0,0,1,9.52-15.86c4.47-4.86,9.87-8.72,15.29-12.45a161.45,161.45,0,0,0,15.08-11.22,100.39,100.39,0,0,0,12.65-13.42,127.78,127.78,0,0,0,17.82-31.24,116.17,116.17,0,0,0,6.87-23.34c3.21-17.82,4.65-36,6.07-54C88,61.63,89,44.79,90.12,28c.09-1.33.18-2.65.28-4,0-.48-.72-.48-.75,0-1.18,16-2.05,32-3.24,48-1.41,18.85-2.87,37.8-5.89,56.47A118.8,118.8,0,0,1,75,150.35a133,133,0,0,1-17.36,33.16,103.37,103.37,0,0,1-12.4,14.11,125.54,125.54,0,0,1-15.39,12c-5.3,3.64-10.66,7.27-15.3,11.74A47.68,47.68,0,0,0,4.18,236c-4.54,10-6,22.75-1.12,32.93,4.71,9.69,14.33,16.92,24.31,20.52a40,40,0,0,0,7.55,1.92c.47.07.68-.65.2-.72Z"/></g></g></g></svg>