<svg xmlns="http://www.w3.org/2000/svg" viewBox="0 0 131.51 176.02"><defs><style>.cls-1{fill:#100;}.cls-2{fill:#403736;}.cls-3{fill:#fff;}.cls-4{fill:#291c1b;}.cls-5{fill:#150301;}</style></defs><g id="圖層_2" data-name="圖層 2"><g id="圖層_1-2" data-name="圖層 1"><path class="cls-1" d="M41.25,17.76S39.63-.15,27.94,0c0,0-13.71.72-14.25,9.9,0,0-5.6,14.88,7.85,18.6l10.59,2.59Z"/><path class="cls-1" d="M91.13,26.55S85,0,109.31,3.19c0,0,7.8.93,8.8,8.88,0,0,7,17.32-19.18,22.55Z"/><path class="cls-2" d="M103.52,9.81s-3.87,2.9-6.87,9.48l10.06,7.8s6.19-4.47,5.84-8.3S110.86,8.06,103.52,9.81Z"/><path class="cls-2" d="M36.66,14.62S32.23,5.66,26,7.86s-5.22,16.4,8.07,15Z"/><path class="cls-1" d="M117,111.56C141.89,88.86,132.3,59,106.8,21.33,100.5,12,47.45-7.44,25.39,19.65c-12.26,15-22.14,32-23.58,40.63-2,12-5.52,34.11,10,48.16C13.6,110,65.77,156.08,117,111.56Z"/><path class="cls-3" d="M40.31,58.91c-1,4.07.53,8,3.44,8.69s6.1-2,7.12-6-.53-8-3.44-8.69S41.32,54.84,40.31,58.91Z"/><path class="cls-3" d="M95.34,63.93c1.23,4,4.56,6.55,7.43,5.67s4.21-4.85,3-8.86-4.56-6.55-7.43-5.66S94.12,59.92,95.34,63.93Z"/><path class="cls-3" d="M74.41,62.74s-24-1.06-24.23,17.1c0,0,3.6,15.63,23.48,14.58,0,0,21.38-2.75,20.45-18.85A21.43,21.43,0,0,0,74.41,62.74Z"/><path class="cls-1" d="M79,69.43c1.06.64,2.11,2.2,1.79,3.17s-4.15,4.72-6.26,4.72-8.21-3.09-9.11-3.91-.48-4.55.49-4.79,5.14,1.39,8.38,1.06C76.64,69.43,78.6,69.19,79,69.43Z"/><path class="cls-4" d="M78.74,69.83c.92.52,1.82,1.8,1.52,2.57s-3.93,4-5.78,4-6.83-2.58-7.6-3.25-.31-3.91.52-3.82a35.64,35.64,0,0,0,7.11.67C76.59,69.85,78.39,69.62,78.74,69.83Z"/><path class="cls-2" d="M78.48,70.22c.78.43,1.52,1.41,1.24,2s-3.69,3.37-5.3,3.27S69,73.4,68.33,72.87s-.14-3.17.55-2.85c1.38.63,3.39.33,5.85.28A25.43,25.43,0,0,1,78.48,70.22Z"/><path class="cls-1" d="M48.36,60.33a3.8,3.8,0,0,0-2.15-1.86A3,3,0,0,0,43,59.57a1.33,1.33,0,0,0-.37.89,1.28,1.28,0,0,0,.37.89,1.3,1.3,0,0,0,.89.37,1.26,1.26,0,0,0,.89-.37,3.24,3.24,0,0,1,.49-.49l-.25.2a2.14,2.14,0,0,1,.41-.25l-.3.13a1.82,1.82,0,0,1,.4-.11l-.33,0a1.7,1.7,0,0,1,.39,0l-.33-.05a1.71,1.71,0,0,1,.44.13l-.3-.13a2,2,0,0,1,.47.28l-.25-.2a3.2,3.2,0,0,1,.52.52l-.2-.25a2.62,2.62,0,0,1,.27.43,1.27,1.27,0,0,0,1.72.45,1.29,1.29,0,0,0,.45-1.73Z"/><path class="cls-1" d="M97.6,60.8a3.19,3.19,0,1,0,3.86-2.32A3.2,3.2,0,0,0,97.6,60.8Z"/><path class="cls-3" d="M100.87,60.33a1.09,1.09,0,0,0,2.12.52,1.09,1.09,0,1,0-2.12-.52Z"/><path class="cls-1" d="M48,126.12c-.87.31-1.72.67-2.55,1a4.29,4.29,0,0,1-1.55.51,3.72,3.72,0,0,1-1.1-.12C39,126.75,36,124.74,32.15,124a3.5,3.5,0,0,0-.14-3.2,1.21,1.21,0,0,0-.34-.28c-.16-.8-.63-1.58-1.37-1.55a4.82,4.82,0,0,0-1,.17c-.5-.88-1.58-1.82-2.82-1a1.87,1.87,0,0,0-.65.66c-.7-.41-1.53-.58-1.95-.11a3.71,3.71,0,0,0-.59,1l-.27.14A9.1,9.1,0,0,0,27,126a3.14,3.14,0,0,0,1,1.16,53.79,53.79,0,0,0,13.4,7.54,7.68,7.68,0,0,0,2.53.65,8.1,8.1,0,0,0,2.71-.52q5-1.58,9.91-3.42"/><path class="cls-3" d="M48,126.12l-1.92.82a12.12,12.12,0,0,1-2,.76,5.46,5.46,0,0,1-2.09-.25c-.68-.17-1.34-.37-2-.6-1.32-.46-2.59-1-3.89-1.53a23.52,23.52,0,0,0-4-1.2l-.18,0,.07-.16a4.42,4.42,0,0,0,.28-1.79,2.77,2.77,0,0,0-.2-.86,2.32,2.32,0,0,0-.21-.38,1.14,1.14,0,0,0-.32-.26l0,0,0-.07a2,2,0,0,0-.7-1.26.89.89,0,0,0-.65-.13,4,4,0,0,0-.76.16l-.14,0-.07-.13A2.32,2.32,0,0,0,27.66,118a1.45,1.45,0,0,0-.93.17,1.61,1.61,0,0,0-.69.65l-.1.18-.17-.1a3.24,3.24,0,0,0-.7-.29,1.45,1.45,0,0,0-.71,0,.89.89,0,0,0-.49.44,3.83,3.83,0,0,0-.37.69l0,.06-.07,0-.25.13.09-.18a8.49,8.49,0,0,0,.48,1.79,9.62,9.62,0,0,0,.81,1.68,8.15,8.15,0,0,0,1.14,1.47,7,7,0,0,0,1.45,1.15l.06,0,0,0a3.78,3.78,0,0,0,1.33,1.4c.54.42,1.1.82,1.65,1.21,1.12.78,2.27,1.52,3.45,2.21A56.75,56.75,0,0,0,41,134.37a7.06,7.06,0,0,0,3.9.81A29.61,29.61,0,0,0,48.78,134l7.79-2.59-7.73,2.77a26.48,26.48,0,0,1-3.94,1.23,5.08,5.08,0,0,1-2.09-.09,16.66,16.66,0,0,1-2-.68,52.17,52.17,0,0,1-7.41-3.59c-1.19-.69-2.35-1.43-3.48-2.21-.56-.39-1.12-.8-1.67-1.21a4.28,4.28,0,0,1-1.46-1.55l.09.09A7.61,7.61,0,0,1,25.38,125a8,8,0,0,1-1.19-1.54,10.56,10.56,0,0,1-.85-1.76,9.72,9.72,0,0,1-.49-1.91v-.12l.1,0,.29-.16-.09.11a4.23,4.23,0,0,1,.4-.76,2.86,2.86,0,0,1,.28-.35,1,1,0,0,1,.44-.24,1.74,1.74,0,0,1,.91,0,3.69,3.69,0,0,1,.79.34l-.27.08a2,2,0,0,1,.86-.81,1.77,1.77,0,0,1,1.17-.21,2.12,2.12,0,0,1,1.05.51,3.61,3.61,0,0,1,.72.89l-.21-.08a4.59,4.59,0,0,1,.82-.17A1.29,1.29,0,0,1,31,119a2.35,2.35,0,0,1,.85,1.49l-.07-.1a1.45,1.45,0,0,1,.4.34,2.73,2.73,0,0,1,.23.45,3,3,0,0,1,.22,1,4.75,4.75,0,0,1-.33,1.91l-.11-.2a24.16,24.16,0,0,1,4,1.27c1.3.52,2.57,1.09,3.87,1.58.65.24,1.31.46,2,.65a5.68,5.68,0,0,0,2,.29A12,12,0,0,0,46,126.9Z"/><ellipse class="cls-1" cx="72.27" cy="85.38" rx="3.29" ry="4.16"/><path class="cls-5" d="M77.71,124.41c.42,1.2,8.34,15.08,5.74,25.62-.58,2.33-3.71,10.12-15.2,10.32-3.23.05-6.86-1.83-9.62-3.28-6.18-3.24-10.31-4.78-9.73-12.67.39-5.3,2.34-10.44,3.94-15.4a17.06,17.06,0,0,1,1.94-4.34C69.24,132.53,77.71,124.41,77.71,124.41Z"/><path class="cls-3" d="M56.58,134c2.08,2,10.8,7.48,14.91,5.08a27.45,27.45,0,0,0,5-3.93c-.65,2.28-1.22,5.81-6,8.46-1.43.8-3.36.57-9.68-3.6C59.06,138.78,56.58,134,56.58,134Z"/><path class="cls-5" d="M77.59,158.65c1.16,0,2.32,0,3.48.15,2.87.32,2.78-.49,4,2.55,1,2.49-1,5.91,2,6.37h0c1.64.26,3.34,1.42,3.32.17,0-1.86-2.79-1.35-2.4-2.93s.52-3.56,1.6-8,.27-7.7-2.8-8.89-6.58-1.91-9.38,0c-2.46,1.67-6.74,6.66-7.23,9.59C72.54,158.64,75.06,158.62,77.59,158.65Z"/><path class="cls-5" d="M49.1,146.79c-.2.49-1.14,13.12,2.78,18.88l4.35,6.39s.72.62-1,1.93c-1.39,1.06-1.23,2.59.31,1.82a23,23,0,0,1,3.22-1.59c1.63-.63.66-2.4.25-3.38s-1.32-4.1,4.08-8.2,9.24-4.39,6.71-6.72S53.71,147.79,49.1,146.79Z"/></g></g></svg>