<svg xmlns="http://www.w3.org/2000/svg" viewBox="0 0 19.41 30.52"><defs><style>.cls-1{fill:#100;}.cls-2{fill:#fff;}</style></defs><g id="圖層_2" data-name="圖層 2"><g id="圖層_1-2" data-name="圖層 1"><path class="cls-1" d="M6.6,28.83A14.64,14.64,0,0,0,8.3,28c1.64-.9,3.45-1.35,4.88-2.62s1.9-3,2.56-4.51A49,49,0,0,0,19,10a3.25,3.25,0,0,0-.05-1.58c1.16-3.7-1.2-7.53-1.32-7.7l-.3,0A4.1,4.1,0,0,0,16.18.23C15.53.07,15,.7,14.78,1.47a1.93,1.93,0,0,0-.93-.18c-1.47.08-1.63,1.51-1.4,2.56a3.69,3.69,0,0,0-.84.43c-.58.41-.4,1.35,0,2.13a1.24,1.24,0,0,0-.07.45,4.36,4.36,0,0,0,2.1,2.81c-.23-.15-4.62,8.17-5.12,8.87-.82,1.12-1.85,1.31-3.12,1.81A27.87,27.87,0,0,1,.59,21.78a.52.52,0,0,0-.27.1.55.55,0,0,0-.09.42,9.58,9.58,0,0,1,.1,2.07A12.66,12.66,0,0,0,0,25.93C0,27.29.38,28.62.3,30a.61.61,0,0,0,.09.46c.29.32,2.49-.49,2.92-.59A20.32,20.32,0,0,0,6.6,28.83Z"/><path class="cls-2" d="M1.71,21.56a34.24,34.24,0,0,0,4.34-1.15,3.27,3.27,0,0,0,1.78-1.22c.24-.29.45-.6.67-.9.11-.15.24-.3.35-.44s.19-.31.29-.47c.73-1.3,1.41-2.63,2.12-3.95l1.06-2,.56-1q.13-.24.3-.48c.05-.09.1-.16.16-.25l.1-.12.07-.06a.16.16,0,0,1,.06-.05l.07,0a.35.35,0,0,1,.13,0l-.19.29a5.9,5.9,0,0,1-1.53-1.42,3.78,3.78,0,0,1-.5-.93,2.47,2.47,0,0,1-.13-.52,1.26,1.26,0,0,1,.05-.57l0,.13a3.89,3.89,0,0,1-.33-.79,2,2,0,0,1-.08-.89,1,1,0,0,1,.18-.45,1.19,1.19,0,0,1,.36-.32,3.68,3.68,0,0,1,.77-.38l-.12.22a3.62,3.62,0,0,1-.08-1.14,1.93,1.93,0,0,1,.44-1.1,1.57,1.57,0,0,1,1.07-.54,2,2,0,0,1,1.18.19l-.29.11A3.19,3.19,0,0,1,15,.62,1.41,1.41,0,0,1,15.71,0a1,1,0,0,1,.51,0l.41.13a5.56,5.56,0,0,1,.77.39l-.14,0,.32,0,.11,0,.06.1a10.78,10.78,0,0,1,.9,1.84,12.24,12.24,0,0,1,.58,2,9.93,9.93,0,0,1,.18,2,8.2,8.2,0,0,1-.33,2V8.32a3.36,3.36,0,0,1,.09,1.44c-.07.47-.16.91-.24,1.37-.18.9-.4,1.8-.63,2.69a51,51,0,0,1-1.7,5.25,46.09,46.09,0,0,1-2.28,5,7.75,7.75,0,0,1-1.57,2.27,6.82,6.82,0,0,1-2.47,1.19A6.7,6.7,0,0,0,12.7,26.3,7.56,7.56,0,0,0,14.19,24a52.12,52.12,0,0,0,2.18-5A48.75,48.75,0,0,0,18,13.74c.22-.89.42-1.78.59-2.68a5.4,5.4,0,0,0,.15-2.63V8.32A7.34,7.34,0,0,0,19,6.4a9.94,9.94,0,0,0-.19-2,11.27,11.27,0,0,0-.56-1.88A11,11,0,0,0,17.43.8l.16.08-.27,0h-.07l-.07,0a4.16,4.16,0,0,0-.7-.35L16.12.42a.61.61,0,0,0-.3,0,1,1,0,0,0-.52.42,2.68,2.68,0,0,0-.33.68l-.07.23-.21-.11a1.7,1.7,0,0,0-.95-.15,1.17,1.17,0,0,0-.82.4,1.6,1.6,0,0,0-.35.89,3.2,3.2,0,0,0,.07,1l0,.16L12.51,4a3.37,3.37,0,0,0-.69.33.7.7,0,0,0-.37.52,1.54,1.54,0,0,0,.06.73,3.36,3.36,0,0,0,.3.71l0,.06,0,.07a1.18,1.18,0,0,0-.05.43,2.39,2.39,0,0,0,.12.46,3.16,3.16,0,0,0,.45.85,5.34,5.34,0,0,0,1.43,1.33l-.19.29a.13.13,0,0,0,.1,0h0l0,0-.08.1-.16.22c-.1.15-.2.31-.29.47l-.57,1-1.09,2c-.72,1.31-1.42,2.63-2.18,3.93-.1.16-.19.32-.31.49l-.35.43c-.23.29-.45.6-.7.89a4.06,4.06,0,0,1-.83.77,3.47,3.47,0,0,1-1,.45A36.06,36.06,0,0,1,1.71,21.56Z"/></g></g></svg>