<svg xmlns="http://www.w3.org/2000/svg" viewBox="0 0 33.59 46.4"><defs><style>.cls-1,.cls-2{fill:#fedb41;}.cls-1{opacity:0.53;}.cls-3{fill:#f7caa5;}</style></defs><g id="圖層_2" data-name="圖層 2"><g id="圖層_1-2" data-name="圖層 1"><circle class="cls-1" cx="12.59" cy="7.7" r="7.7"/><circle class="cls-2" cx="12.59" cy="7.7" r="5.39"/><path class="cls-3" d="M27.56,22.77a3.08,3.08,0,0,1,3-3.19h.06a3.09,3.09,0,0,1,3,3.18c0,5.75,0,6.31,0,14.91,0,4.82-3.66,8.73-8.16,8.73H15.75a8.09,8.09,0,0,1-7.13-4.49L0,25.35l.9-.75a4.28,4.28,0,0,1,6.29.48L9.61,28V7.81a3.09,3.09,0,0,1,3-3.19h0a3.09,3.09,0,0,1,3,3.19V20a3.08,3.08,0,0,1,3-3.11h.07a3.1,3.1,0,0,1,3,3.19v1a3.09,3.09,0,0,1,3-3.19h0a3.09,3.09,0,0,1,3,3.19Z"/></g></g></svg>