<svg xmlns="http://www.w3.org/2000/svg" viewBox="0 0 100.39 45.03"><defs><style>.cls-1{fill:#fff;}</style></defs><g id="圖層_2" data-name="圖層 2"><g id="圖層_1-2" data-name="圖層 1"><path class="cls-1" d="M96,23.87c-7-3-20.87,7.73-25.76-9.36C67.88,6.22,63.39-2.37,50.06.6,41.29,2.55,37.92,8.72,35.88,14.8a.56.56,0,0,1-.79.32,14.45,14.45,0,0,0-5.64-1.43c-7.08-.53-12.28,5.9-12.66,11.84a1.47,1.47,0,0,1-1.47,1.37C10,26.94,3.78,28.52.55,34.78-5.76,47,43.76,44.63,73.79,45S103.8,27.18,96,23.87Z"/></g></g></svg>