<svg xmlns="http://www.w3.org/2000/svg" xmlns:xlink="http://www.w3.org/1999/xlink" viewBox="0 0 55.84 49.44"><defs><style>.cls-1{opacity:0.71;fill:url(#未命名漸層_3);}.cls-2{fill:#f9bc00;}.cls-3{fill:#ffcd1a;}.cls-4{fill:#fff;}</style><linearGradient id="未命名漸層_3" x1="-400.32" y1="-405.82" x2="-402.17" y2="-405.82" gradientTransform="matrix(14.19, -10.04, -7.7, -10.89, 2585.59, -8414.26)" gradientUnits="userSpaceOnUse"><stop offset="0" stop-color="#ffcd1a" stop-opacity="0.86"/><stop offset="0.68" stop-color="#ffeebf" stop-opacity="0.31"/><stop offset="1" stop-color="#fff" stop-opacity="0.06"/></linearGradient></defs><g id="圖層_2" data-name="圖層 2"><g id="圖層_1-2" data-name="圖層 1"><g id="圖層_1-3" data-name="圖層 1"><path id="Path_1714" data-name="Path 1714" class="cls-1" d="M29.44,3.09,6.64,19.22A15.7,15.7,0,0,0,2.88,41.1l1.21,1.72A15.71,15.71,0,0,0,26,46.56l22.8-16.13Z"/><rect id="Rectangle_445" data-name="Rectangle 445" class="cls-2" x="20.21" y="0.64" width="35.83" height="33.63" rx="16.82" transform="translate(-3.08 25.21) rotate(-35.26)"/><rect id="Rectangle_446" data-name="Rectangle 446" class="cls-3" x="22.16" y="0.03" width="33.63" height="33.63" rx="16.82" transform="translate(-2.57 25.6) rotate(-35.26)"/><path id="Path_1715" data-name="Path 1715" class="cls-4" d="M46.93,28.11a13.8,13.8,0,1,1,3.3-19.24,13.81,13.81,0,0,1-3.3,19.24ZM31.4,6.14A13.12,13.12,0,1,0,49.69,9.28h0A13.12,13.12,0,0,0,31.39,6.14Z"/></g></g></g></svg>