<svg xmlns="http://www.w3.org/2000/svg" xmlns:xlink="http://www.w3.org/1999/xlink" viewBox="0 0 107.37 95.07"><defs><style>.cls-1{opacity:0.71;fill:url(#未命名漸層_3);}.cls-2{fill:#f9bc00;}.cls-3{fill:#ffcd1a;}.cls-4{fill:#fff;}</style><linearGradient id="未命名漸層_3" x1="-921.9" y1="27.51" x2="-925.44" y2="27.51" gradientTransform="matrix(-14.19, 10.04, 7.7, 10.89, -13245.45, 9002.05)" gradientUnits="userSpaceOnUse"><stop offset="0" stop-color="#ffcd1a" stop-opacity="0.86"/><stop offset="0.68" stop-color="#ffeebf" stop-opacity="0.31"/><stop offset="1" stop-color="#fff" stop-opacity="0.06"/></linearGradient></defs><g id="圖層_2" data-name="圖層 2"><g id="圖層_1-2" data-name="圖層 1"><g id="圖層_1-3" data-name="圖層 1"><path id="Path_1714" data-name="Path 1714" class="cls-1" d="M50.76,89.12l43.85-31A30.19,30.19,0,0,0,101.83,16l-2.32-3.29a30.2,30.2,0,0,0-42.07-7.2l-43.85,31Z"/><rect id="Rectangle_445" data-name="Rectangle 445" class="cls-2" x="-0.38" y="29.18" width="68.91" height="64.67" rx="32.33" transform="translate(-29.26 30.96) rotate(-35.26)"/><rect id="Rectangle_446" data-name="Rectangle 446" class="cls-3" x="0.09" y="30.34" width="64.67" height="64.67" rx="32.33" transform="translate(-30.24 30.22) rotate(-35.26)"/><path id="Path_1715" data-name="Path 1715" class="cls-4" d="M17.13,41a26.55,26.55,0,1,1-6.35,37,26.54,26.54,0,0,1,6.35-37ZM47,83.26a25.23,25.23,0,1,0-35.17-6l0,0a25.22,25.22,0,0,0,35.16,6Z"/></g></g></g></svg>