<svg xmlns="http://www.w3.org/2000/svg" viewBox="0 0 110.62 84.35"><defs><style>.cls-1{fill:#c6c6c6;}.cls-2{fill:#f85965;}.cls-3{fill:#ffcbcc;}.cls-4{fill:#99dff2;}.cls-5{fill:#fcb64f;}.cls-6{fill:#fffddc;}.cls-7{font-size:8.75px;}.cls-12,.cls-7{fill:#f99512;font-family:DFLiHeiStd-W5-B5pc-H, DFLiHei Std;}.cls-8{fill:#c69c6d;}.cls-9{fill:#754c24;}.cls-10{fill:#fdd065;}.cls-11{fill:#8cc0c3;}.cls-12{font-size:13.67px;}.cls-13{fill:#ffbc00;}.cls-14{fill:#fff;}</style></defs><g id="圖層_2" data-name="圖層 2"><g id="圖層_1-2" data-name="圖層 1"><polygon class="cls-1" points="34.27 54.23 34.73 54.01 17.18 17.25 16.73 17.46 34.27 54.23"/><path class="cls-2" d="M9.57,1.55a7,7,0,0,1,9.69,4.19c1.93,5.7-1.54,10.37-2.31,11.61-1.44-.21-7.26-.54-10.38-5.68A7,7,0,0,1,9.57,1.55Z"/><path class="cls-2" d="M16.6,18.19c0-.59.13-1,.16-1.26.2.14.57.35,1,.69Z"/><polygon class="cls-1" points="34.28 54.28 34.68 53.98 13.43 25.39 13.03 25.69 34.28 54.28"/><path class="cls-3" d="M3,11.44A7,7,0,0,1,13.27,13.7c3,5.22.47,10.48,0,11.84C11.78,25.61,6,26.39,2,22A7,7,0,0,1,3,11.44Z"/><path class="cls-3" d="M13.05,26.42c-.07-.58-.08-1-.09-1.25.23.09.63.23,1.17.47Z"/><polygon class="cls-1" points="27.36 39.37 27.87 39.37 28.04 17.44 27.53 17.44 27.36 39.37"/><path class="cls-4" d="M28.11,0A6.94,6.94,0,0,1,35,8c-.77,6-5.95,8.63-7.18,9.41-1.2-.82-6.27-3.69-6.82-9.68A7,7,0,0,1,28.11,0Z"/><path class="cls-4" d="M27.1,18c.3-.5.56-.84.69-1.05.13.21.37.57.65,1.08Z"/><circle class="cls-5" cx="86.04" cy="48.18" r="5.66"/><circle class="cls-6" cx="86.04" cy="48.18" r="4.04"/><text class="cls-7" transform="translate(83.61 51.19)">$</text><path class="cls-8" d="M73.3,72a2.94,2.94,0,0,1-2.38,3.41l-56.5,8.88a2.94,2.94,0,0,1-3.31-2.52L4.49,39.61A2.93,2.93,0,0,1,6.86,36.2l56.5-8.88a2.94,2.94,0,0,1,3.31,2.52Z"/><rect class="cls-9" x="17.68" y="34.38" width="5.32" height="48.71" transform="translate(-8.87 3.87) rotate(-8.93)"/><path class="cls-9" d="M29.48,32.64c-.28-1.8.21-3.38,1.11-3.52l7.59-1.19c.9-.15,1.86,1.2,2.15,3l3.32-.52-.43-2.73c-.29-1.8-1.66-3.09-3.08-2.86L28.2,26.7c-1.41.23-2.33,1.87-2.05,3.67l.43,2.73Z"/><path class="cls-10" d="M20.11,47.16,17,47.65a2.49,2.49,0,0,1-2.64-2.27l-.59-3.8a2.47,2.47,0,0,1,1.82-3l3.1-.49a2.47,2.47,0,0,1,2.64,2.26l.6,3.8A2.48,2.48,0,0,1,20.11,47.16Zm-4.37-7.57a1.5,1.5,0,0,0-1,1.84l.6,3.8c.14.91.82,1.55,1.51,1.45L20,46.19a1.52,1.52,0,0,0,1-1.84l-.6-3.8c-.14-.91-.82-1.56-1.51-1.45Z"/><path class="cls-11" d="M18.33,43.7a.35.35,0,1,1-.4-.29A.35.35,0,0,1,18.33,43.7Z"/><path class="cls-11" d="M19.54,51.4a.35.35,0,1,1-.4-.29A.35.35,0,0,1,19.54,51.4Z"/><path class="cls-11" d="M20.18,55.46a.35.35,0,0,1-.69.11.34.34,0,0,1,.29-.4A.35.35,0,0,1,20.18,55.46Z"/><rect class="cls-10" x="17.18" y="38.84" width="0.47" height="2.49" transform="matrix(0.99, -0.16, 0.16, 0.99, -6.01, 3.19)"/><rect class="cls-9" x="54.81" y="28.55" width="5.32" height="48.71" transform="translate(-7.51 9.56) rotate(-8.93)"/><path class="cls-10" d="M57.24,41.33l-3.11.49a2.49,2.49,0,0,1-2.64-2.27l-.59-3.8a2.48,2.48,0,0,1,1.81-3l3.11-.49a2.48,2.48,0,0,1,2.64,2.27l.6,3.8A2.49,2.49,0,0,1,57.24,41.33Zm-4.37-7.58a1.52,1.52,0,0,0-1,1.85l.6,3.8c.14.9.82,1.55,1.51,1.44l3.11-.49a1.51,1.51,0,0,0,1-1.84l-.6-3.8c-.14-.9-.82-1.55-1.51-1.44Z"/><path class="cls-11" d="M55.46,37.87a.35.35,0,1,1-.4-.29A.35.35,0,0,1,55.46,37.87Z"/><path class="cls-11" d="M56.67,45.56a.35.35,0,1,1-.69.11.35.35,0,1,1,.69-.11Z"/><path class="cls-11" d="M57.31,49.62a.35.35,0,1,1-.69.11.35.35,0,1,1,.69-.11Z"/><rect class="cls-10" x="54.3" y="33.01" width="0.47" height="2.49" transform="translate(-4.66 8.88) rotate(-8.93)"/><circle class="cls-5" cx="87.41" cy="19.3" r="8.84"/><circle class="cls-6" cx="87.41" cy="19.3" r="6.32"/><text class="cls-12" transform="translate(83.61 24)">$</text><rect class="cls-13" x="49.72" y="38.91" width="33.65" height="28.91" rx="3.55" transform="translate(-7.83 11.6) rotate(-9.41)"/><rect class="cls-13" x="82.98" y="34.04" width="25.89" height="28.91" rx="2.91" transform="translate(-6.64 16.33) rotate(-9.41)"/><path class="cls-14" d="M58.78,52.76a4,4,0,0,0-2.62-.54c-.9.15-1.46.52-1.34,1.2.24,1.45,5.36,0,5.91,3.31.27,1.57-.55,3-2.48,3.61l.3,1.8L57,62.41l-.29-1.75a5.82,5.82,0,0,1-3.56-.78l.79-1.81a4.16,4.16,0,0,0,2.93.57c1.25-.21,1.72-.64,1.61-1.31-.25-1.46-5.37,0-5.92-3.35A3,3,0,0,1,55,50.45l-.29-1.77,1.58-.27.3,1.78a5.3,5.3,0,0,1,3.18.92Z"/><path class="cls-14" d="M62.84,58.22c2.15-2.73,3.55-4.86,3.3-6.33a1.28,1.28,0,0,0-1.56-1.21A2.48,2.48,0,0,0,63,52l-1.54-1.09a4.29,4.29,0,0,1,3.11-2.13,3.12,3.12,0,0,1,3.86,2.63c.3,1.75-.88,3.92-2.17,5.76a13.85,13.85,0,0,1,1.62-.42l1.87-.31.35,2-7.05,1.19Z"/><path class="cls-14" d="M70.51,53.09c-.58-3.49.58-5.46,2.72-5.81s3.9,1.14,4.48,4.6-.57,5.57-2.71,5.93S71.1,56.58,70.51,53.09Zm4.91-.82C75,49.5,74.27,49,73.54,49.14s-1.2.8-.73,3.57,1.15,3.34,1.87,3.22S75.88,55.05,75.42,52.27Z"/><path class="cls-14" d="M81.52,56.42a1.38,1.38,0,0,1-1.68-1.12,1.42,1.42,0,0,1,1.29-1.62c1.06-.18,1.79.57,2,2a3.76,3.76,0,0,1-2.29,4.15l-.71-1.22c1.1-.6,1.61-1.43,1.48-2.2Z"/><path class="cls-14" d="M83.62,50.89c-.58-3.49.58-5.46,2.72-5.81s3.89,1.14,4.48,4.6-.57,5.57-2.71,5.93S84.21,54.38,83.62,50.89Zm4.9-.82c-.46-2.77-1.14-3.25-1.87-3.13s-1.2.8-.73,3.57,1.15,3.34,1.87,3.22S89,52.85,88.52,50.07Z"/><path class="cls-14" d="M91.94,49.5c-.59-3.5.57-5.46,2.71-5.82s3.9,1.14,4.48,4.61-.57,5.57-2.71,5.93S92.52,53,91.94,49.5Zm4.9-.83c-.47-2.77-1.15-3.24-1.87-3.12s-1.2.79-.74,3.56,1.15,3.34,1.88,3.22S97.31,51.46,96.84,48.67Z"/><path class="cls-14" d="M100.25,48.1c-.58-3.5.58-5.46,2.72-5.82s3.89,1.15,4.48,4.61-.57,5.57-2.71,5.93S100.84,51.59,100.25,48.1Zm4.9-.82c-.46-2.77-1.14-3.25-1.87-3.13s-1.2.79-.73,3.56,1.15,3.35,1.87,3.23S105.62,50.06,105.15,47.28Z"/></g></g></svg>