<svg xmlns="http://www.w3.org/2000/svg" viewBox="0 0 155.32 67.32"><defs><style>.cls-1{fill:#c7def9;}.cls-2{fill:#003693;}.cls-3{fill:none;stroke:#fff;stroke-miterlimit:10;stroke-dasharray:3;}.cls-4{fill:#fff;}.cls-5{fill:#ffd83b;}</style></defs><g id="圖層_2" data-name="圖層 2"><g id="圖層_1-2" data-name="圖層 1"><rect class="cls-1" x="29.29" y="2.76" width="65.87" height="56.58" rx="6.95"/><rect class="cls-2" x="95.16" y="2.76" width="50.67" height="56.58" rx="5.7"/><line class="cls-3" x1="95.58" y1="12.89" x2="95.58" y2="47.51"/><path class="cls-4" d="M114,32.22c-.42.33-.89.66-1.35,1a4.55,4.55,0,0,0,2.53,2.89,6.05,6.05,0,0,0-1.12,1.4,5.71,5.71,0,0,1-2.76-3.43l-.23.14a3.6,3.6,0,0,1-.58,3.19A1.83,1.83,0,0,1,109,38c-.27,0-.6,0-.93,0a3.64,3.64,0,0,0-.44-1.54,21.43,21.43,0,0,1-2.72,1.09,7,7,0,0,0-.88-1.41,14.33,14.33,0,0,0,5.26-2.3,2.5,2.5,0,0,0-.09-.25A19.76,19.76,0,0,1,105,35.42a7.68,7.68,0,0,0-.83-1.3,14.68,14.68,0,0,0,4.36-1.61l-.19-.21a16.81,16.81,0,0,1-3.18,1.15,9.37,9.37,0,0,0-.86-1.33,13.57,13.57,0,0,0,3.51-1.07h-1.62V29.62h6.51v1.43H110.3a4.73,4.73,0,0,1-.64.5,4.75,4.75,0,0,1,.93,1.23,17.29,17.29,0,0,0,2-1.69Zm-8-1.69h-1.67V27.71h4.19c-.07-.18-.14-.36-.21-.51l1.82-.52a6.39,6.39,0,0,1,.47,1h4.09v2.82H113V29.25H106Zm3.25,5.6a1.37,1.37,0,0,0,.25-.73,17,17,0,0,1-1.75,1c.36,0,.67,0,.93,0A.54.54,0,0,0,109.27,36.13Z"/><path class="cls-4" d="M120.13,35.48a6.71,6.71,0,0,1-3.5,2.21,7.24,7.24,0,0,0-1.12-1.41A6.74,6.74,0,0,0,118.74,35Zm6.23-4.84a20.74,20.74,0,0,1,.44,2.16l-1.11.29c0-.13,0-.29,0-.44a9.36,9.36,0,0,0-2.25.34c-.07-.23-.24-.82-.39-1.18v.71h-3.45V29a15.93,15.93,0,0,1-1.22,1.72l.84-.19a19.33,19.33,0,0,1,.41,2.16l-1.12.27a4.28,4.28,0,0,0,0-.46,8.23,8.23,0,0,0-2.21.43,8.26,8.26,0,0,0-.42-1.24,1.7,1.7,0,0,0,.78-.6c.1-.11.3-.35.54-.67a2.49,2.49,0,0,0-.85.2,12.52,12.52,0,0,0-.42-1.2,1,1,0,0,0,.5-.45,8.11,8.11,0,0,0,.91-2l1.3.45a11.28,11.28,0,0,1-1.05,1.85l.38,0a7.83,7.83,0,0,0,.51-.94l1.17.66V27.8h1a6.46,6.46,0,0,0,.18-1.07l1.52.25-.37.82H123v1.61a1.18,1.18,0,0,0,.41-.42,9,9,0,0,0,.91-2l1.37.38a11,11,0,0,1-1.06,1.89l.55-.05a8.85,8.85,0,0,0,.47-.84l1.22.69a15.13,15.13,0,0,1-1.31,1.76Zm-4.18,4V38h-1.71v-3.3h-4.58V33.26h4.58v-.49h1.71v.49h4.45v1.39Zm-3.93-3.16c0-.19-.07-.37-.11-.54-.17.21-.35.41-.53.6ZM121.5,29H121v.57h.51Zm0,1.71H121v.57h.51Zm2.2,4.07a22.21,22.21,0,0,1,3,1.79l-1.1,1.2a19,19,0,0,0-2.89-1.93Zm-.7-3.09a1.94,1.94,0,0,0,.76-.57c.12-.12.32-.37.56-.68a3.2,3.2,0,0,0-1,.22,10,10,0,0,0-.34-1Zm2.45-.13c0-.17-.07-.35-.1-.51l-.53.56Z"/><path class="cls-4" d="M131.92,32.51h6.37V38h-1.64v-.42h-3.16V38h-1.57V33.64l-.57.79c-.18-.26-.44-.59-.71-.91V38H129V34.38a8.47,8.47,0,0,1-1,.77,6.72,6.72,0,0,0-.78-1.64,7.66,7.66,0,0,0,2.79-3h-2.34V29h1.46a16.43,16.43,0,0,0-.82-1.54l1.32-.59a13.61,13.61,0,0,1,1,1.69l-.88.44h1.14l.28-.06.94.6A11.71,11.71,0,0,1,131,31.91c.27.2.66.52,1,.78Zm6.4-5.23V28.7h-6.47V27.28ZM137.8,29v3.11h-5.3V29Zm-4.31,4.84v.54h.82v-.54Zm0,2.34h.82v-.55h-.82Zm2.73-5.91H134v.58h2.22Zm.43,3.57h-.82v.54h.82Zm0,2.34v-.55h-.82v.55Z"/><path class="cls-2" d="M40.17,30.18a4.25,4.25,0,0,0-2.63-1c-1,0-1.61.29-1.61,1,0,1.55,5.58.94,5.58,4.47,0,1.68-1.09,3-3.21,3.33v1.93H36.6V38A6.2,6.2,0,0,1,33,36.61l1.14-1.76a4.39,4.39,0,0,0,3,1.11c1.33,0,1.9-.36,1.9-1.08,0-1.56-5.58-1-5.58-4.52a3.21,3.21,0,0,1,3.15-3.24v-1.9h1.7v1.9a5.66,5.66,0,0,1,3.15,1.51Z"/><path class="cls-2" d="M43.19,36.77l1.19-1.64a3.27,3.27,0,0,0,2.23,1,1.54,1.54,0,0,0,1.71-1.69,1.51,1.51,0,0,0-1.59-1.68,2.42,2.42,0,0,0-1.54.52l-1.14-.74.28-5.38h6.11v2.16H46.57l-.16,1.84A2.72,2.72,0,0,1,47.53,31a3.17,3.17,0,0,1,3.39,3.43A3.75,3.75,0,0,1,47,38.27,5.2,5.2,0,0,1,43.19,36.77Z"/><path class="cls-2" d="M52.32,32.58c0-3.74,1.55-5.58,3.84-5.58S60,28.87,60,32.58s-1.56,5.69-3.86,5.69S52.32,36.32,52.32,32.58Zm5.25,0c0-3-.63-3.58-1.41-3.58s-1.38.61-1.38,3.58.61,3.68,1.38,3.68S57.57,35.56,57.57,32.58Z"/><path class="cls-2" d="M63.19,38a1.46,1.46,0,0,1-1.55-1.46A1.5,1.5,0,0,1,63.26,35C64.4,35,65,36,65,37.47a4,4,0,0,1-3.11,3.91L61.39,40c1.26-.44,1.93-1.22,1.93-2Z"/><path class="cls-2" d="M66.35,32.58c0-3.74,1.54-5.58,3.84-5.58S74,28.87,74,32.58s-1.56,5.69-3.85,5.69S66.35,36.32,66.35,32.58Zm5.24,0c0-3-.63-3.58-1.4-3.58s-1.39.61-1.39,3.58.61,3.68,1.39,3.68S71.59,35.56,71.59,32.58Z"/><path class="cls-2" d="M75.24,32.58c0-3.74,1.55-5.58,3.84-5.58s3.86,1.87,3.86,5.58-1.56,5.69-3.86,5.69S75.24,36.32,75.24,32.58Zm5.24,0c0-3-.62-3.58-1.4-3.58s-1.38.61-1.38,3.58.61,3.68,1.38,3.68S80.48,35.56,80.48,32.58Z"/><path class="cls-2" d="M84.14,32.58C84.14,28.84,85.69,27,88,27s3.85,1.87,3.85,5.58S90.27,38.27,88,38.27,84.14,36.32,84.14,32.58Zm5.24,0c0-3-.63-3.58-1.4-3.58s-1.39.61-1.39,3.58.62,3.68,1.39,3.68S89.38,35.56,89.38,32.58Z"/><path class="cls-5" d="M9.33,18.66c0-3.49-5.84-9.33-9.33-9.33C3.49,9.33,9.33,3.49,9.33,0c0,3.49,5.84,9.33,9.33,9.33C15.17,9.33,9.33,15.17,9.33,18.66Z"/><path class="cls-5" d="M150.3,67.32c0-1.88-3.14-5-5-5,1.88,0,5-3.14,5-5,0,1.88,3.14,5,5,5C153.44,62.3,150.3,65.44,150.3,67.32Z"/><path class="cls-5" d="M18.77,28.46c0-2.6-4.36-7-7-7,2.6,0,7-4.36,7-7,0,2.61,4.36,7,7,7C23.13,21.5,18.77,25.86,18.77,28.46Z"/></g></g></svg>