<svg xmlns="http://www.w3.org/2000/svg" viewBox="0 0 106.51 51.71"><defs><style>.cls-1{fill:#d3e5ab;}.cls-2{fill:#029f41;}.cls-3{fill:none;stroke:#fff;stroke-miterlimit:10;stroke-dasharray:3;}.cls-4{fill:#fff;}.cls-5{fill:#058dd0;}</style></defs><g id="圖層_2" data-name="圖層 2"><g id="圖層_1-2" data-name="圖層 1"><rect class="cls-1" width="60.2" height="51.71" rx="6.35"/><rect class="cls-2" x="60.2" width="46.31" height="51.71" rx="5.21"/><line class="cls-3" x1="60.59" y1="9.26" x2="60.59" y2="40.91"/><path class="cls-4" d="M79.48,30.28h3.85v1.38h-9.2V30.28h3.7v-1H75.19V27.9h2.64v-1h-2.1V26a11.77,11.77,0,0,1-1.32.74,6.28,6.28,0,0,0-1-1.27,11.39,11.39,0,0,0,3.24-1.94H75.58V22.05h3.94A9.18,9.18,0,0,0,84,25.29a8,8,0,0,0-1,1.44A11.46,11.46,0,0,1,81.59,26v.9H79.48v1h2.68v1.35H79.48Zm-.81-6.79a14,14,0,0,1-2.32,2.05h4.56a13.41,13.41,0,0,1-2.23-2.05Z"/><path class="cls-4" d="M93.57,26.61c-.38.31-.81.61-1.23.9a4.13,4.13,0,0,0,2.31,2.64,5,5,0,0,0-1,1.28,5.25,5.25,0,0,1-2.53-3.14l-.21.13a3.26,3.26,0,0,1-.53,2.91A1.67,1.67,0,0,1,89,31.9c-.25,0-.55,0-.85,0a3.18,3.18,0,0,0-.4-1.41,19.91,19.91,0,0,1-2.49,1,5.91,5.91,0,0,0-.81-1.29,13,13,0,0,0,4.82-2.1l-.09-.23a18.68,18.68,0,0,1-3.83,1.69,6.51,6.51,0,0,0-.76-1.2,13.44,13.44,0,0,0,4-1.47l-.17-.19a14.77,14.77,0,0,1-2.92,1,7.73,7.73,0,0,0-.78-1.21,13,13,0,0,0,3.21-1H86.43V24.24h5.95v1.31H90.15a5.26,5.26,0,0,1-.58.45,4.79,4.79,0,0,1,.85,1.13,15,15,0,0,0,1.86-1.55Zm-7.33-1.54H84.71V22.49h3.84c-.07-.16-.13-.32-.2-.46L90,21.55a7.3,7.3,0,0,1,.43.94h3.74v2.58h-1.6V23.9H86.24Zm3,5.12a1.17,1.17,0,0,0,.23-.66,15.17,15.17,0,0,1-1.6.9c.33,0,.61,0,.85,0A.5.5,0,0,0,89.21,30.19Z"/><path class="cls-5" d="M19.42,24.27a4.21,4.21,0,0,0-2.63-1c-1,0-1.61.3-1.61,1,0,1.55,5.59.93,5.59,4.48,0,1.68-1.1,3-3.22,3.33V34h-1.7V32.14a6.2,6.2,0,0,1-3.57-1.43L13.42,29a4.41,4.41,0,0,0,3,1.11c1.33,0,1.9-.36,1.9-1.08,0-1.57-5.59-1-5.59-4.54a3.23,3.23,0,0,1,3.16-3.25v-1.9h1.7v1.9a5.75,5.75,0,0,1,3.16,1.53Z"/><path class="cls-5" d="M22.69,30.68c2.73-2.48,4.55-4.45,4.55-6a1.36,1.36,0,0,0-1.42-1.54A2.62,2.62,0,0,0,24,24.17l-1.42-1.41a4.56,4.56,0,0,1,3.62-1.68,3.31,3.31,0,0,1,3.57,3.42c0,1.87-1.61,3.94-3.28,5.62A16.26,16.26,0,0,1,28.24,30h2v2.2H22.69Z"/><path class="cls-5" d="M31.59,26.67c0-3.75,1.55-5.59,3.85-5.59S39.3,23,39.3,26.67s-1.57,5.7-3.86,5.7S31.59,30.41,31.59,26.67Zm5.25,0c0-3-.63-3.59-1.4-3.59s-1.39.62-1.39,3.59.61,3.68,1.39,3.68S36.84,29.65,36.84,26.67Z"/><path class="cls-5" d="M40.5,26.67c0-3.75,1.55-5.59,3.84-5.59s3.87,1.87,3.87,5.59-1.57,5.7-3.87,5.7S40.5,30.41,40.5,26.67Zm5.25,0c0-3-.63-3.59-1.41-3.59S43,23.7,43,26.67s.62,3.68,1.39,3.68S45.75,29.65,45.75,26.67Z"/></g></g></svg>