<svg xmlns="http://www.w3.org/2000/svg" viewBox="0 0 106.51 51.71"><defs><style>.cls-1{fill:#c7def9;}.cls-2{fill:#003693;}.cls-3{fill:none;stroke:#fff;stroke-miterlimit:10;stroke-dasharray:3;}.cls-4{fill:#fff;}</style></defs><g id="圖層_2" data-name="圖層 2"><g id="圖層_1-2" data-name="圖層 1"><rect class="cls-1" width="60.2" height="51.71" rx="6.35"/><rect class="cls-2" x="60.2" width="46.31" height="51.71" rx="5.21"/><line class="cls-3" x1="60.59" y1="9.26" x2="60.59" y2="40.91"/><path class="cls-4" d="M77.47,25.61c-.39.3-.82.61-1.24.9a4.18,4.18,0,0,0,2.31,2.64,5.28,5.28,0,0,0-1,1.28A5.2,5.2,0,0,1,75,27.29l-.22.13a3.27,3.27,0,0,1-.53,2.91,1.65,1.65,0,0,1-1.37.57c-.25,0-.55,0-.85,0a3.18,3.18,0,0,0-.4-1.41,19.32,19.32,0,0,1-2.49,1,5.64,5.64,0,0,0-.8-1.29,13,13,0,0,0,4.81-2.1,2.18,2.18,0,0,0-.09-.23,18.6,18.6,0,0,1-3.82,1.69,6.57,6.57,0,0,0-.77-1.2,13.24,13.24,0,0,0,4-1.47l-.17-.19a15.34,15.34,0,0,1-2.91,1,7.82,7.82,0,0,0-.79-1.21,13,13,0,0,0,3.21-1H70.32V23.24h6v1.31H74a4.46,4.46,0,0,1-.58.45,4.79,4.79,0,0,1,.85,1.13,15.88,15.88,0,0,0,1.87-1.55Zm-7.34-1.54H68.6V21.49h3.84L72.25,21l1.66-.48a7.3,7.3,0,0,1,.43.94h3.74v2.58h-1.6V22.9H70.13Zm3,5.12a1.18,1.18,0,0,0,.23-.67,12.85,12.85,0,0,1-1.6.91c.33,0,.61,0,.85,0A.49.49,0,0,0,73.1,29.19Z"/><path class="cls-4" d="M83,28.6a6.15,6.15,0,0,1-3.2,2,6.42,6.42,0,0,0-1-1.29,6.13,6.13,0,0,0,3-1.2Zm5.69-4.43a19.48,19.48,0,0,1,.41,2l-1,.26a3.12,3.12,0,0,0,0-.4,8.32,8.32,0,0,0-2,.31,11.3,11.3,0,0,0-.36-1.08v.65H82.5v-3.2a13.69,13.69,0,0,1-1.12,1.57l.77-.17a16,16,0,0,1,.37,2l-1,.25c0-.13,0-.27,0-.42a7.31,7.31,0,0,0-2,.39,9,9,0,0,0-.39-1.13,1.5,1.5,0,0,0,.71-.55,7.17,7.17,0,0,0,.5-.61,2.59,2.59,0,0,0-.78.18,10.53,10.53,0,0,0-.39-1.09.87.87,0,0,0,.47-.42,7.32,7.32,0,0,0,.82-1.82l1.2.41a10.64,10.64,0,0,1-1,1.7l.35,0a6.59,6.59,0,0,0,.47-.86l1.07.6V21.57h.87a6.31,6.31,0,0,0,.16-1l1.39.22-.34.75h1.07v1.48a1.08,1.08,0,0,0,.37-.39,7.55,7.55,0,0,0,.84-1.82l1.25.35a9.81,9.81,0,0,1-1,1.73l.51-.05a8.35,8.35,0,0,0,.43-.77l1.11.63A14.7,14.7,0,0,1,88,24.35Zm-3.81,3.67v3H83.34v-3H79.15V26.57h4.19v-.45h1.57v.45H89v1.27ZM81.31,25c0-.17-.07-.34-.1-.5-.16.2-.32.38-.48.55Zm3-2.26h-.47v.52h.47Zm0,1.56h-.47v.53h.47Zm2,3.73A20.8,20.8,0,0,1,89,29.61l-1,1.1a18,18,0,0,0-2.64-1.77Zm-.64-2.83a1.75,1.75,0,0,0,.7-.52c.1-.11.29-.34.51-.63a2.88,2.88,0,0,0-.9.21,7.18,7.18,0,0,0-.31-.93ZM87.89,25l-.09-.47-.49.52Z"/><path class="cls-4" d="M93.81,25.88h5.82v5h-1.5v-.39H95.24v.39H93.81v-4l-.53.72c-.16-.23-.4-.53-.64-.82v4.1H91.11V27.59a7.1,7.1,0,0,1-.89.71,5.94,5.94,0,0,0-.71-1.5,7.08,7.08,0,0,0,2.55-2.73H89.92v-1.4h1.33a13.77,13.77,0,0,0-.75-1.41l1.21-.53a11.1,11.1,0,0,1,.89,1.54l-.8.4h1l.26-.05.86.54a10.54,10.54,0,0,1-1,2.17l.88.71Zm5.84-4.78v1.3H93.74V21.1Zm-.47,1.59v2.85H94.33V22.69Zm-3.94,4.43v.49H96v-.49Zm0,2.14H96v-.51h-.75Zm2.5-5.41h-2v.53h2Zm.39,3.27h-.76v.49h.76Zm0,2.14v-.51h-.76v.51Z"/><path class="cls-2" d="M12.4,24.27a4.21,4.21,0,0,0-2.64-1c-1,0-1.6.29-1.6,1,0,1.55,5.59.93,5.59,4.47,0,1.69-1.1,3-3.22,3.34V34H8.83V32.14a6.2,6.2,0,0,1-3.57-1.43L6.4,29a4.41,4.41,0,0,0,3,1.11c1.33,0,1.9-.36,1.9-1.08,0-1.57-5.59-1-5.59-4.54a3.23,3.23,0,0,1,3.16-3.25v-1.9h1.7v1.9a5.75,5.75,0,0,1,3.16,1.53Z"/><path class="cls-2" d="M16.2,30.06h2.31V23.87h-2V22.26a7.31,7.31,0,0,0,2.69-1h1.92v8.78h2v2.11H16.2Z"/><path class="cls-2" d="M26.54,32.07A1.46,1.46,0,0,1,25,30.6a1.5,1.5,0,0,1,1.62-1.46c1.15,0,1.78.91,1.78,2.43a4,4,0,0,1-3.12,3.92l-.53-1.39c1.26-.44,1.93-1.21,1.93-2Z"/><path class="cls-2" d="M29.7,26.67c0-3.75,1.55-5.59,3.85-5.59s3.86,1.87,3.86,5.59-1.56,5.7-3.86,5.7S29.7,30.41,29.7,26.67Zm5.25,0c0-3-.63-3.59-1.4-3.59s-1.39.62-1.39,3.59.61,3.68,1.39,3.68S35,29.65,35,26.67Z"/><path class="cls-2" d="M38.61,26.67c0-3.75,1.55-5.59,3.85-5.59s3.86,1.87,3.86,5.59-1.56,5.7-3.86,5.7S38.61,30.41,38.61,26.67Zm5.25,0c0-3-.63-3.59-1.4-3.59s-1.39.62-1.39,3.59.61,3.68,1.39,3.68S43.86,29.65,43.86,26.67Z"/><path class="cls-2" d="M47.52,26.67c0-3.75,1.55-5.59,3.85-5.59s3.86,1.87,3.86,5.59-1.57,5.7-3.86,5.7S47.52,30.41,47.52,26.67Zm5.25,0c0-3-.63-3.59-1.4-3.59S50,23.7,50,26.67s.62,3.68,1.4,3.68S52.77,29.65,52.77,26.67Z"/></g></g></svg>