<svg xmlns="http://www.w3.org/2000/svg" viewBox="0 0 139.05 95.27"><defs><style>.cls-1{opacity:0.69;}.cls-2{fill:#9acded;}.cls-3{fill:#88c0e8;}.cls-4{fill:#fff;}.cls-5{opacity:0.3;}.cls-6{fill:#9fe2d5;}.cls-7{fill:#3093d0;}.cls-8{fill:#5bc5c9;}</style></defs><g id="圖層_2" data-name="圖層 2"><g id="圖層_1-2" data-name="圖層 1"><g class="cls-1"><polyline class="cls-2" points="125.5 57.21 99.58 57.21 99.58 46.49 89.17 46.49 89.17 25.63 73.89 25.63 73.89 31.82 65.79 31.95 65.79 9.17 43.82 9.17 42.1 10.13 42.1 43.37 33.12 43.37 33.12 33.33 18.99 33.33 18.99 60.75 3.67 60.75 3.67 91.85 4.36 91.72 4.26 91.23 4.17 91.25 4.17 61.26 19.5 61.26 19.5 33.83 32.61 33.83 32.61 43.87 42.6 43.87 42.6 10.42 43.95 9.68 65.29 9.68 65.29 32.46 74.4 32.31 74.4 26.13 88.67 26.13 88.67 47 99.08 47 99.08 57.72 126.01 57.72"/><path class="cls-3" d="M113.55,95.27h.56V9A9.08,9.08,0,0,0,96,9v3.41h.55V9a8.52,8.52,0,0,1,17,0Z"/><path class="cls-4" d="M87.86,14.86a10.33,10.33,0,0,1,16.75,0Z"/><path class="cls-3" d="M87.64,14.7a10.6,10.6,0,0,1,17.2,0l.31.44H87.32Zm8.6-3.85a10,10,0,0,0-7.82,3.74h15.63A10,10,0,0,0,96.24,10.85Z"/><g class="cls-5"><path class="cls-2" d="M85,28.6H70.23v6.19l-8.61.14V12.15H40L38.44,13V46.35H29V36.3H15.32V63.73H0V88.82a6.45,6.45,0,0,0,6.45,6.45h89V49.47H85Z"/><rect class="cls-2" x="95.47" y="61.97" width="30.36" height="33.3"/></g></g><circle class="cls-6" cx="122.19" cy="65" r="16.86" transform="translate(30.85 168.99) rotate(-76.72)"/><circle class="cls-6" cx="122.19" cy="45.74" r="9.46"/><rect class="cls-7" x="121.88" y="66.16" width="0.62" height="28.94"/><path class="cls-8" d="M122.14,79.55a.31.31,0,0,1-.22-.09l-4.21-4.21a.3.3,0,0,1,0-.43.31.31,0,0,1,.44,0l4,4,4.09-4.1a.31.31,0,0,1,.44.44l-4.31,4.31A.31.31,0,0,1,122.14,79.55Z"/><path class="cls-7" d="M122.16,73.6h0a.31.31,0,0,1-.22-.09l-2.8-2.81a.3.3,0,1,1,.43-.43l2.59,2.58,2.65-2.65a.31.31,0,0,1,.44.44l-2.88,2.87A.27.27,0,0,1,122.16,73.6Z"/></g></g></svg>