<svg xmlns="http://www.w3.org/2000/svg" viewBox="0 0 64.09 31.83"><defs><style>.cls-1{fill:#fff;}</style></defs><g id="圖層_2" data-name="圖層 2"><g id="圖層_1-2" data-name="圖層 1"><path class="cls-1" d="M29.16,31.83H23l-.23-.08c-5-1.69-17-6-19.91-9.8A13.61,13.61,0,0,1,5.29,2.85a13.6,13.6,0,0,1,19.1,2.44c3.36,4.33,4.44,20.2,4.69,25Zm-5.67-3H26c-.66-10.69-2.26-19.5-4-21.71a10.62,10.62,0,0,0-16.8,13C6.83,22.2,14,25.61,23.49,28.83Z"/><path class="cls-1" d="M41.09,31.83H34.93L35,30.25c.25-4.76,1.34-20.63,4.69-25A13.62,13.62,0,1,1,61.24,22h0c-2.91,3.76-14.9,8.11-19.92,9.8Zm-3-3h2.5c9.5-3.22,16.66-6.63,18.27-8.71h0a10.62,10.62,0,1,0-16.79-13C40.37,9.33,38.77,18.14,38.1,28.83Z"/></g></g></svg>