<svg xmlns="http://www.w3.org/2000/svg" xmlns:xlink="http://www.w3.org/1999/xlink" viewBox="0 0 90.6 106.97"><defs><style>.cls-1{fill:#eff0f4;}.cls-2{fill:#c6c7cb;}.cls-3{fill:#9e9fa3;}.cls-4{fill:url(#未命名漸層_6);}.cls-5{fill:url(#未命名漸層_6-2);}.cls-6{fill:#54ec87;}.cls-7{fill:#fff;}.cls-8{fill:#edeef2;}.cls-9{fill:#f9fafe;}.cls-10{fill:#1f1f1f;}.cls-11{fill:#f3f3f5;}</style><linearGradient id="未命名漸層_6" x1="3.74" y1="71.08" x2="14.72" y2="86.85" gradientUnits="userSpaceOnUse"><stop offset="0" stop-color="#fff"/><stop offset="1" stop-color="#fff" stop-opacity="0"/></linearGradient><linearGradient id="未命名漸層_6-2" x1="-5100.02" y1="71.08" x2="-5089.04" y2="86.85" gradientTransform="matrix(-1, 0, 0, 1, -5012.89, 0)" xlink:href="#未命名漸層_6"/></defs><g id="圖層_2" data-name="圖層 2"><g id="圖層_1-2" data-name="圖層 1"><rect class="cls-1" y="30.12" width="90.6" height="31.39" rx="15.45"/><path class="cls-2" d="M10.14,35.53s5-3.39,14-3.18,14.09.18,17.62,6.58-1.38,13.59-9.55,15.18S10.77,59.2,6.74,51.24,10.14,35.53,10.14,35.53Z"/><path class="cls-2" d="M79.94,35.53s-5-3.39-14-3.18-14.09.18-17.62,6.58,1.38,13.59,9.55,15.18S79.3,59.2,83.34,51.24,79.94,35.53,79.94,35.53Z"/><path class="cls-3" d="M24.84,57.19H65.23a0,0,0,0,1,0,0v2.7a1.63,1.63,0,0,1-1.63,1.63H26.47a1.63,1.63,0,0,1-1.63-1.63v-2.7A0,0,0,0,1,24.84,57.19Z"/><path class="cls-1" d="M.21,61.51H90.38a0,0,0,0,1,0,0V85.25A21.72,21.72,0,0,1,68.67,107H21.93A21.72,21.72,0,0,1,.21,85.25V61.51A0,0,0,0,1,.21,61.51Z"/><path class="cls-4" d="M5.64,61.51H9.49s-.21,19.88,0,21.68.32,9.34,3.83,12.42l-2.76,2.13S5.25,94.13,5,85.53,5.64,61.51,5.64,61.51Z"/><path class="cls-5" d="M85.22,61.51H81.37s.21,19.88,0,21.68-.32,9.34-3.82,12.42l2.76,2.13s5.31-3.61,5.52-12.21S85.22,61.51,85.22,61.51Z"/><circle class="cls-6" cx="45.3" cy="72.89" r="2.44"/><path class="cls-7" d="M25.38,61.51H65.21a0,0,0,0,1,0,0v0a2,2,0,0,1-2,2H27.35a2,2,0,0,1-2-2v0A0,0,0,0,1,25.38,61.51Z"/><path class="cls-8" d="M16.9,12.71h0a2.57,2.57,0,0,1,2.57,2.57V43.06a4,4,0,0,1-4,4h0a4,4,0,0,1-4-4V18.22a5.52,5.52,0,0,1,5.52-5.52Z" transform="translate(-11.39 9.58) rotate(-25.56)"/><ellipse class="cls-9" cx="18.4" cy="13.37" rx="14.33" ry="13.37"/><rect class="cls-10" x="9.59" y="9.45" width="13.06" height="4.99" rx="2.49"/><path class="cls-11" d="M29.63,4.61s8-2.48,11.51,3.63L40.4,20.79a11.6,11.6,0,0,1-11.65,2.54Z"/><path class="cls-8" d="M74.46,12.71h0a4,4,0,0,1,4,4V44.53a2.57,2.57,0,0,1-2.57,2.57h0a5.52,5.52,0,0,1-5.52-5.52V16.75a4,4,0,0,1,4-4Z" transform="translate(128.73 89) rotate(-154.44)"/><ellipse class="cls-9" cx="71.48" cy="13.37" rx="14.33" ry="13.37"/><rect class="cls-10" x="67.24" y="9.45" width="13.06" height="4.99" rx="2.49" transform="translate(147.53 23.88) rotate(-180)"/><path class="cls-11" d="M60.26,4.61s-8-2.48-11.51,3.63l.73,12.55a11.61,11.61,0,0,0,11.65,2.54Z"/></g></g></svg>