<svg xmlns="http://www.w3.org/2000/svg" viewBox="0 0 19.8 32"><defs><style>.cls-1{opacity:0.13;}.cls-2{fill:#878787;}.cls-3{fill:#5e5e5e;}</style></defs><g id="圖層_2" data-name="圖層 2"><g id="圖層_1-2" data-name="圖層 1"><g class="cls-1"><path d="M3.51,16.67l-.12,0a.4.4,0,0,1-.18-.53c1.27-2.52,2.76-5.56,4.27-9A.38.38,0,0,1,8,7a.39.39,0,0,1,.2.52c-1.51,3.4-3,6.45-4.28,9a.41.41,0,0,1-.4.22Z"/><path d="M3.27,31.22A3.78,3.78,0,0,1,2.35,31,4.11,4.11,0,0,1,0,27c0-1.72,1.76-4.87,3.32-7.64.59-1,1.13-2,1.53-2.78,1.5-3,2.67-5.64,3.61-7.75,2.1-4.71,3.26-7.3,5.19-8a4.61,4.61,0,0,1,3.64.54c3.44,1.68,3.38,3.41-.43,11.57l-.67,1.41a.39.39,0,1,1-.71-.33l.67-1.41c4-8.52,3.4-9.27.79-10.54a3.91,3.91,0,0,0-3-.51c-1.62.59-2.8,3.22-4.75,7.59-.94,2.12-2.12,4.75-3.62,7.77-.41.81-1,1.79-1.55,2.82C2.56,22.25.77,25.43.78,26.94a3.38,3.38,0,0,0,1.87,3.32,2.38,2.38,0,0,0,2.5-.35c.7-.69.95-1.25,1.75-3.14.73-1.71,1.83-4.31,4.07-8.87a.4.4,0,0,1,.52-.18.38.38,0,0,1,.18.52c-2.23,4.54-3.33,7.13-4,8.84C6.79,29,6.51,29.67,5.7,30.47a3,3,0,0,1-2.43.75Z"/></g><path class="cls-2" d="M3.64,17.43l-.13,0a.4.4,0,0,1-.24-.5c.95-2.66,2.07-5.86,3.16-9.41a.39.39,0,1,1,.74.23C6.08,11.29,5,14.5,4,17.17a.4.4,0,0,1-.37.26Z"/><path class="cls-3" d="M3.64,17.52a.45.45,0,0,1-.16,0,.51.51,0,0,1-.28-.24.48.48,0,0,1,0-.37c.94-2.66,2.06-5.86,3.15-9.4a.48.48,0,0,1,.6-.32.47.47,0,0,1,.32.6C6.17,11.33,5.05,14.54,4.1,17.2a.5.5,0,0,1-.46.32ZM6.8,7.32a.29.29,0,0,0-.28.21c-1.09,3.55-2.21,6.75-3.16,9.41a.31.31,0,0,0,0,.23.35.35,0,0,0,.17.15.31.31,0,0,0,.38-.18c1-2.67,2.07-5.87,3.16-9.43a.26.26,0,0,0,0-.23.29.29,0,0,0-.17-.14l-.09,0Z"/><path class="cls-2" d="M5.16,31.91a3.8,3.8,0,0,1-.94-.13A4.11,4.11,0,0,1,1.4,28.06c-.23-1.71,1.15-5,2.37-8C4.22,19,4.65,18,5,17.13,6.07,14,6.92,11.21,7.6,9,9.12,4.08,10,1.36,11.78.43a4.66,4.66,0,0,1,3.68.1c3.62,1.25,3.77,3,1,11.54l-.49,1.48a.39.39,0,0,1-.5.25.4.4,0,0,1-.24-.5l.49-1.47C18.61,2.89,18,2.21,15.2,1.27a3.94,3.94,0,0,0-3.07-.14c-1.53.78-2.38,3.53-3.79,8.11-.68,2.21-1.53,5-2.66,8.15-.3.85-.73,1.89-1.19,3C3.37,23.09,2,26.46,2.17,28A3.38,3.38,0,0,0,4.43,31a2.37,2.37,0,0,0,2.44-.65c.61-.77.78-1.36,1.35-3.33.52-1.79,1.3-4.5,3-9.3a.39.39,0,1,1,.74.26c-1.67,4.78-2.44,7.47-3,9.26-.58,2-.78,2.71-1.49,3.6a3,3,0,0,1-2.32,1Z"/><path class="cls-3" d="M5.16,32a3.54,3.54,0,0,1-1-.13,4.22,4.22,0,0,1-2.89-3.8C1.07,26.34,2.46,23,3.69,20c.45-1.09.87-2.12,1.17-2.94C6,13.93,6.83,11.19,7.51,9,9,4,9.87,1.3,11.74.35a4.65,4.65,0,0,1,3.75.09c3.7,1.28,3.85,3,1,11.66L16,13.58a.51.51,0,0,1-.62.31.49.49,0,0,1-.3-.62l.49-1.47c2.89-8.86,2.25-9.52-.43-10.44a3.8,3.8,0,0,0-3-.15C10.68,2,9.83,4.72,8.43,9.27c-.68,2.21-1.53,5-2.66,8.15-.3.85-.73,1.89-1.19,3C3.46,23.11,2.07,26.47,2.26,28a3.29,3.29,0,0,0,2.19,3,2.74,2.74,0,0,0,.7.09,2.09,2.09,0,0,0,1.64-.71C7.4,29.57,7.57,29,8.13,27s1.3-4.51,3-9.31a.49.49,0,0,1,.61-.3A.49.49,0,0,1,12,18c-1.67,4.78-2.44,7.47-3,9.25-.59,2-.79,2.73-1.51,3.64A3,3,0,0,1,5.16,32ZM13.26.19a3.21,3.21,0,0,0-1.44.32C10,1.43,9.2,4.13,7.69,9,7,11.24,6.16,14,5,17.16c-.3.83-.73,1.86-1.18,2.95C2.64,23,1.27,26.37,1.49,28.05a4,4,0,0,0,2.75,3.64,3.57,3.57,0,0,0,.92.12,2.89,2.89,0,0,0,2.25-1c.7-.88.89-1.56,1.47-3.57.52-1.78,1.3-4.48,3-9.26a.3.3,0,0,0,0-.23.35.35,0,0,0-.17-.15.31.31,0,0,0-.38.18c-1.67,4.8-2.45,7.5-3,9.3-.57,2-.74,2.58-1.37,3.36a2.28,2.28,0,0,1-1.79.78,2.72,2.72,0,0,1-.75-.11A3.44,3.44,0,0,1,2.08,28c-.2-1.52,1.2-4.91,2.33-7.63.45-1.1.88-2.13,1.18-3,1.13-3.18,2-5.94,2.66-8.15C9.67,4.61,10.52,1.84,12.09,1a4,4,0,0,1,3.14.14c2.81,1,3.5,1.65.55,10.68l-.49,1.47a.3.3,0,0,0,0,.23.35.35,0,0,0,.17.15.31.31,0,0,0,.38-.19c.16-.48.33-1,.49-1.48C19.11,3.55,19,1.84,15.43.62A6.74,6.74,0,0,0,13.26.19Z"/></g></g></svg>