<?xml version="1.0" encoding="utf-8"?>
<!-- Generator: Adobe Illustrator 24.1.0, SVG Export Plug-In . SVG Version: 6.00 Build 0)  -->
<svg version="1.1" id="圖層_1" xmlns="http://www.w3.org/2000/svg" xmlns:xlink="http://www.w3.org/1999/xlink" x="0px" y="0px"
	 viewBox="0 0 117 117" style="enable-background:new 0 0 117 117;" xml:space="preserve">
<style type="text/css">
	.st0{fill:url(#SVGID_1_);}
	.st1{fill:url(#SVGID_2_);}
	.st2{fill:url(#SVGID_3_);}
	.st3{fill:url(#SVGID_4_);}
	.st4{fill:#F76C60;}
	.st5{fill:#FFFFFF;}
</style>
<g id="圖層_2_1_">
	<g id="圖層_1-2">
		
			<linearGradient id="SVGID_1_" gradientUnits="userSpaceOnUse" x1="35.6292" y1="90.5853" x2="30.5507" y2="4.3145" gradientTransform="matrix(1 0 0 -1 0 116.9308)">
			<stop  offset="0" style="stop-color:#FBA363"/>
			<stop  offset="1" style="stop-color:#FC7E56"/>
		</linearGradient>
		<path class="st0" d="M29.1,78.4h5.1c4.3,0,7.8,3.5,7.8,7.8v13.6c0,4.3-3.5,7.8-7.8,7.8h-5.1c-4.3,0-7.8-3.5-7.8-7.8V86.2
			C21.4,81.9,24.9,78.4,29.1,78.4z"/>
		
			<linearGradient id="SVGID_2_" gradientUnits="userSpaceOnUse" x1="64.0068" y1="89.1109" x2="58.928" y2="2.6328" gradientTransform="matrix(1 0 0 -1 0 116.9308)">
			<stop  offset="0" style="stop-color:#FBA363"/>
			<stop  offset="1" style="stop-color:#FC7E56"/>
		</linearGradient>
		<path class="st1" d="M58,64.5h5.1c4.3,0,7.8,3.5,7.8,7.8v27.5c0,4.3-3.5,7.8-7.8,7.8H58c-4.3,0-7.8-3.5-7.8-7.8V72.2
			C50.3,67.9,53.7,64.5,58,64.5z"/>
		
			<linearGradient id="SVGID_3_" gradientUnits="userSpaceOnUse" x1="92.8684" y1="87.5229" x2="87.7773" y2="0.9497" gradientTransform="matrix(1 0 0 -1 0 116.9308)">
			<stop  offset="0" style="stop-color:#FBA363"/>
			<stop  offset="1" style="stop-color:#FC7E56"/>
		</linearGradient>
		<path class="st2" d="M87.5,46.6h5.1c4.3,0,7.8,3.5,7.8,7.8v45.4c0,4.3-3.5,7.8-7.8,7.8h-5.1c-4.3,0-7.8-3.5-7.8-7.8V54.4
			C79.7,50.1,83.2,46.6,87.5,46.6z"/>
		
			<linearGradient id="SVGID_4_" gradientUnits="userSpaceOnUse" x1="-303.9163" y1="54.2401" x2="-438.7411" y2="-5.9327" gradientTransform="matrix(0.97 -0.23 -0.23 -0.97 413.743 -19.6693)">
			<stop  offset="0" style="stop-color:#C1E24A"/>
			<stop  offset="1" style="stop-color:#9FD252"/>
		</linearGradient>
		<path class="st3" d="M90.8,13.3l-8.3,1.4c-0.4,0.1-0.7,0.5-0.7,0.9c0,0.2,0.1,0.4,0.3,0.5l2.4,1.9L65,43.5L41.6,28.1
			c-1.1-0.7-2.6-0.5-3.4,0.6L17.3,58.1c-1,1-0.9,2.6,0.1,3.6c1,1,2.6,0.9,3.6-0.1c0.2-0.2,0.3-0.4,0.4-0.6l19.5-27.4L64.2,49
			c1.1,0.7,2.6,0.5,3.4-0.6l20.9-27.3l2.3,1.8c0.3,0.3,0.8,0.2,1.1-0.1c0.1-0.1,0.2-0.3,0.2-0.5L91.7,14c0-0.4-0.4-0.8-0.8-0.8
			C90.9,13.3,90.8,13.3,90.8,13.3z"/>
		<circle class="st4" cx="41.2" cy="28.6" r="19.1"/>
		<rect x="38.8" y="29.8" class="st5" width="4.7" height="13.1"/>
		<polygon class="st5" points="43.5,29.9 38.8,29.9 31.1,16.4 36,16.4 		"/>
		<polygon class="st5" points="38.8,29.9 43.5,29.9 51.2,16.4 46.3,16.4 		"/>
		<rect x="35.6" y="29.8" class="st5" width="11.1" height="3.5"/>
		<rect x="35.6" y="35.1" class="st5" width="11.1" height="3.5"/>
	</g>
</g>
</svg>
