<svg xmlns="http://www.w3.org/2000/svg" viewBox="0 0 30.99 37.86"><defs><style>.cls-1{fill:#f90;}</style></defs><g id="圖層_2" data-name="圖層 2"><g id="圖層_1-2" data-name="圖層 1"><path class="cls-1" d="M14.16,8.59c-.17-3.22-.64-6.33-1.3-7.19A3.59,3.59,0,0,0,10,0,3.54,3.54,0,0,0,7.8.76,3.54,3.54,0,0,0,6.43,3.15a3.55,3.55,0,0,0,.72,2.67c.6.77,3,1.85,5.72,2.77Z"/><path class="cls-1" d="M0,13.26v4H14.58V10.52H2.73A2.74,2.74,0,0,0,0,13.26Z"/><path class="cls-1" d="M0,35.13a2.73,2.73,0,0,0,2.73,2.73H14.58V19H0Z"/><path class="cls-1" d="M16.4,37.86H28.25A2.74,2.74,0,0,0,31,35.13V19H16.4Z"/><path class="cls-1" d="M28.25,10.52H16.4v6.69H31v-4A2.74,2.74,0,0,0,28.25,10.52Z"/><path class="cls-1" d="M23.83,5.82A3.61,3.61,0,0,0,23.19.76a3.6,3.6,0,0,0-5.06.64c-.67.86-1.14,4-1.31,7.19h1.29C20.83,7.67,23.24,6.59,23.83,5.82Z"/></g></g></svg>