<svg xmlns="http://www.w3.org/2000/svg" viewBox="0 0 106.05 97.06"><defs><style>.cls-1{fill:#f2f2f2;}.cls-2{fill:#999;}.cls-3{fill:#fff;}.cls-4{fill:gray;}.cls-5{fill:#fac44b;}.cls-6{fill:#fed84d;}.cls-7{fill:#773d7f;}</style></defs><g id="圖層_2" data-name="圖層 2"><g id="圖層_1-2" data-name="圖層 1"><rect class="cls-1" y="5.3" width="70.24" height="91.77" rx="10.87"/><path class="cls-2" d="M20,58.82H50.23A.79.79,0,0,0,51,58a.79.79,0,0,0-.79-.79H20a.79.79,0,0,0-.79.79A.79.79,0,0,0,20,58.82Z"/><path class="cls-2" d="M22.37,65.53a.8.8,0,0,0,0,1.6h25.5a.8.8,0,0,0,0-1.6Z"/><path class="cls-2" d="M53.34,74.41H16.9a.8.8,0,0,0-.8.8.79.79,0,0,0,.8.79H53.34a.79.79,0,0,0,.8-.79A.8.8,0,0,0,53.34,74.41Z"/><path class="cls-2" d="M45.79,83.66H24.45a.8.8,0,1,0,0,1.6H45.79a.8.8,0,1,0,0-1.6Z"/><path class="cls-3" d="M47.78,27.37A13.64,13.64,0,0,0,40.65,20a13.46,13.46,0,0,0-5.52-1.17,13.68,13.68,0,1,0,0,27.36,13.52,13.52,0,0,0,5.32-1.08A13.74,13.74,0,0,0,47.7,37.9a13.54,13.54,0,0,0,1.1-5.38A13.4,13.4,0,0,0,47.78,27.37Zm-7.1,12a8.64,8.64,0,0,1-5.55,2,8.81,8.81,0,1,1,0-17.62,8.8,8.8,0,0,1,5.55,15.63Z"/><path class="cls-4" d="M19,0H48.12A2.9,2.9,0,0,1,51,2.9V7.69a2.9,2.9,0,0,1-2.9,2.9H19A2.91,2.91,0,0,1,16.1,7.69V2.91A2.91,2.91,0,0,1,19,0Z"/><path class="cls-5" d="M91.08,73.93,29.19,59.11a5,5,0,0,1-3.75-6l8.4-33.21A5.13,5.13,0,0,1,40,16.21L101.93,31a5,5,0,0,1,3.75,6l-8.4,33.21A5.12,5.12,0,0,1,91.08,73.93Z"/><path class="cls-6" d="M38.09,28.18c-2.11,5.46-1.41,13,4.21,15.71,20.11,11.66,41.53,10.63,60.92,2.94l2.71-10.73a4,4,0,0,0-3-4.83L47.1,17.9A22.15,22.15,0,0,0,38.09,28.18Z"/><polygon class="cls-7" points="98.03 67.35 26.18 50.14 28.29 41.79 100.14 59 98.03 67.35"/><path class="cls-7" d="M59.44,30.26l-21.71-5.2a2,2,0,0,1-1.5-2.42l.07-.29a2.06,2.06,0,0,1,2.49-1.46l21.71,5.2A2,2,0,0,1,62,28.51l-.07.29A2.05,2.05,0,0,1,59.44,30.26Z"/><path class="cls-7" d="M78.48,39.25,35.68,29a1,1,0,0,1-.75-1.21l0-.15a1,1,0,0,1,1.25-.73L79,37.16a1,1,0,0,1,.75,1.21l0,.15A1,1,0,0,1,78.48,39.25Z"/><path class="cls-3" d="M69.71,47.17l-1.4-.33a1.42,1.42,0,0,1-1.06-1.71l0-.2a1.46,1.46,0,0,1,1.75-1l1.4.34a1.4,1.4,0,0,1,1.06,1.7l-.05.2A1.44,1.44,0,0,1,69.71,47.17Z"/><path class="cls-3" d="M75.06,48.45l-1.4-.33a1.41,1.41,0,0,1-1.06-1.7l.05-.21a1.46,1.46,0,0,1,1.75-1l1.4.34a1.41,1.41,0,0,1,1.06,1.7l0,.2A1.44,1.44,0,0,1,75.06,48.45Z"/><path class="cls-3" d="M80.41,49.73,79,49.4A1.41,1.41,0,0,1,78,47.7l0-.21a1.46,1.46,0,0,1,1.75-1l1.4.34a1.41,1.41,0,0,1,1.06,1.7l0,.2A1.45,1.45,0,0,1,80.41,49.73Z"/></g></g></svg>