<svg xmlns="http://www.w3.org/2000/svg" viewBox="0 0 72.68 72.68"><defs><style>.cls-1{fill:#009e96;}.cls-2{fill:gray;}.cls-3{fill:#4caf50;}.cls-4{fill:#c8e6c9;}.cls-5{fill:#455a64;}.cls-6{fill:#ccc;}.cls-7{fill:#fafafa;}</style></defs><g id="圖層_2" data-name="圖層 2"><g id="圖層_1-2" data-name="圖層 1"><path class="cls-1" d="M65.11,0H7.57A7.57,7.57,0,0,0,0,7.57V34.83a1.52,1.52,0,0,0,1.51,1.51H71.17a1.51,1.51,0,0,0,1.51-1.51V7.57A7.57,7.57,0,0,0,65.11,0Z"/><path class="cls-2" d="M72.68,33.31H0v31.8a7.57,7.57,0,0,0,7.57,7.57H65.11a7.57,7.57,0,0,0,7.57-7.57Z"/><path class="cls-3" d="M10.6,42.4H34.83a1.52,1.52,0,0,1,1.51,1.51v21.2a1.52,1.52,0,0,1-1.51,1.52H10.6a1.51,1.51,0,0,1-1.51-1.52V43.91A1.51,1.51,0,0,1,10.6,42.4Z"/><path class="cls-4" d="M29.38,48.59a1.54,1.54,0,0,0-1.63.25,8.56,8.56,0,0,1-5,2.64,8.51,8.51,0,0,1-5-2.64A1.52,1.52,0,0,0,15.14,50v9.09a1.52,1.52,0,0,0,1.52,1.51H28.77a1.51,1.51,0,0,0,1.51-1.51V50A1.5,1.5,0,0,0,29.38,48.59Z"/><path class="cls-5" d="M37.86,45.43H7.57a1.52,1.52,0,0,1,0-3H37.86a1.52,1.52,0,0,1,0,3Z"/><path class="cls-6" d="M46.94,54.51h-3a1.52,1.52,0,0,1,0-3h3a1.52,1.52,0,1,1,0,3Z"/><path class="cls-6" d="M56,54.51H53a1.52,1.52,0,1,1,0-3h3a1.52,1.52,0,0,1,0,3Z"/><path class="cls-6" d="M46.94,60.57h-3a1.52,1.52,0,0,1,0-3h3a1.52,1.52,0,1,1,0,3Z"/><path class="cls-6" d="M56,60.57H53a1.52,1.52,0,1,1,0-3h3a1.52,1.52,0,0,1,0,3Z"/><path class="cls-6" d="M46.94,66.63h-3a1.52,1.52,0,0,1,0-3h3a1.52,1.52,0,1,1,0,3Z"/><path class="cls-6" d="M56,66.63H53a1.52,1.52,0,1,1,0-3h3a1.52,1.52,0,0,1,0,3Z"/><path class="cls-6" d="M65.11,54.51h-3a1.52,1.52,0,0,1,0-3h3a1.52,1.52,0,1,1,0,3Z"/><path class="cls-6" d="M65.11,60.57h-3a1.52,1.52,0,0,1,0-3h3a1.52,1.52,0,1,1,0,3Z"/><path class="cls-6" d="M65.11,66.63h-3a1.52,1.52,0,0,1,0-3h3a1.52,1.52,0,1,1,0,3Z"/><path class="cls-7" d="M65.11,42.4H58.78a4.52,4.52,0,0,0-8.53,0H43.91a1.52,1.52,0,0,0,0,3h6.34a4.52,4.52,0,0,0,8.53,0h6.33a1.52,1.52,0,1,0,0-3Z"/><path class="cls-7" d="M22.71,27.26a1.51,1.51,0,0,1-1.4-1L16.66,14.68,12,26.31a1.51,1.51,0,0,1-2.81-1.13h0L15.25,10a1.57,1.57,0,0,1,2.12-.69,1.54,1.54,0,0,1,.69.69l6.06,15.14a1.52,1.52,0,0,1-.85,2h0A1.47,1.47,0,0,1,22.71,27.26Z"/><path class="cls-7" d="M21.2,24.23H12.11a1.52,1.52,0,0,1,0-3H21.2a1.52,1.52,0,0,1,0,3Z"/><path class="cls-7" d="M40.88,12.11H28.77a1.51,1.51,0,1,1,0-3H40.88a1.51,1.51,0,1,1,0,3Z"/><path class="cls-7" d="M34.83,27.26a1.52,1.52,0,0,1-1.52-1.52V10.6a1.52,1.52,0,0,1,3,0V25.74A1.52,1.52,0,0,1,34.83,27.26Z"/><path class="cls-7" d="M62.08,27.26a1.52,1.52,0,0,1-1.51-1.52V15.6l-3.28,4.92a1.57,1.57,0,0,1-2.2.32,1.39,1.39,0,0,1-.32-.32L51.48,15.6V25.74a1.51,1.51,0,1,1-3,0V10.6a1.51,1.51,0,0,1,2.77-.84L56,17l4.79-7.2a1.52,1.52,0,0,1,2.78.84V25.74A1.52,1.52,0,0,1,62.08,27.26Z"/></g></g></svg>