<svg xmlns="http://www.w3.org/2000/svg" viewBox="0 0 73.68 101.45"><defs><style>.cls-1{fill:#4d4d4d;}.cls-2{fill:#090808;}.cls-3{fill:#676869;}.cls-4{fill:#18304e;}.cls-5{fill:#fff;}</style></defs><g id="圖層_2" data-name="圖層 2"><g id="圖層_1-2" data-name="圖層 1"><rect class="cls-1" x="57.09" width="4.11" height="1.09" rx="0.28"/><rect class="cls-1" x="72.59" y="14.45" width="1.09" height="4.11" rx="0.28"/><rect class="cls-1" x="72.59" y="20.29" width="1.09" height="4.11" rx="0.28"/><rect class="cls-2" x="0.27" y="0.8" width="72.46" height="100.38" rx="4.86"/><path class="cls-3" d="M67.86,101.45H5.13A5.14,5.14,0,0,1,0,96.31V5.66A5.13,5.13,0,0,1,5.13.53H67.86A5.14,5.14,0,0,1,73,5.66V96.31A5.14,5.14,0,0,1,67.86,101.45ZM5.13,1.07A4.6,4.6,0,0,0,.54,5.66V96.31a4.6,4.6,0,0,0,4.59,4.59H67.86a4.6,4.6,0,0,0,4.6-4.59V5.66a4.6,4.6,0,0,0-4.6-4.59Z"/><rect class="cls-1" x="3.39" y="4.04" width="66.21" height="93.89" rx="1.66"/><circle class="cls-4" cx="36.5" cy="2.97" r="0.54"/><path class="cls-5" d="M14.94,48.05a1,1,0,0,1,1.09-1,1,1,0,1,1,0,2A1,1,0,0,1,14.94,48.05Zm.14,1.8H17v6H15.08Z"/><path class="cls-5" d="M18.64,48h2.77c1.74,0,3.18.61,3.18,2.57s-1.46,2.7-3.13,2.7h-.92V55.9h-1.9Zm2.73,3.78c.92,0,1.37-.44,1.37-1.21s-.51-1.08-1.42-1.08h-.78v2.29Z"/><path class="cls-5" d="M25.13,54.21c0-1.28,1-2,3.36-2.22,0-.49-.3-.78-.92-.78a3.37,3.37,0,0,0-1.58.54l-.66-1.25a5,5,0,0,1,2.6-.79c1.57,0,2.45.87,2.45,2.76V55.9H28.84l-.14-.61h0a2.59,2.59,0,0,1-1.73.76A1.75,1.75,0,0,1,25.13,54.21Zm3.36-.11v-1c-1.18.16-1.56.5-1.56.92s.25.52.64.52A1.19,1.19,0,0,0,28.49,54.1Z"/><path class="cls-5" d="M31.53,52.88c0-2,1.24-3.17,2.49-3.17a1.92,1.92,0,0,1,1.46.62l-.08-.9v-2h1.9V55.9H35.76l-.14-.59h0a2.32,2.32,0,0,1-1.58.74C32.49,56.05,31.53,54.85,31.53,52.88ZM35.4,54V51.61a1.31,1.31,0,0,0-.93-.36c-.52,0-1,.48-1,1.6s.38,1.65,1,1.65A1,1,0,0,0,35.4,54Z"/><path class="cls-5" d="M41.41,48h2.77c1.74,0,3.17.61,3.17,2.57s-1.45,2.7-3.12,2.7h-.92V55.9h-1.9Zm2.73,3.78c.92,0,1.37-.44,1.37-1.21s-.51-1.08-1.43-1.08h-.77v2.29Z"/><path class="cls-5" d="M48.56,49.85H50.1l.12,1.06h.05A2,2,0,0,1,52,49.71a1.79,1.79,0,0,1,.73.12l-.32,1.63a2.54,2.54,0,0,0-.66-.1,1.47,1.47,0,0,0-1.3,1.09V55.9H48.56Z"/><path class="cls-5" d="M53,52.88a3,3,0,1,1,3,3.17A3,3,0,0,1,53,52.88Zm4,0c0-1-.32-1.64-1-1.64s-1,.63-1,1.64.32,1.64,1,1.64S57,53.88,57,52.88Z"/></g></g></svg>