<?xml version="1.0" encoding="utf-8"?>
<!-- Generator: Adobe Illustrator 24.1.0, SVG Export Plug-In . SVG Version: 6.00 Build 0)  -->
<svg version="1.1" id="圖層_1" xmlns="http://www.w3.org/2000/svg" xmlns:xlink="http://www.w3.org/1999/xlink" x="0px" y="0px"
	 viewBox="0 0 339.5 423.7" style="enable-background:new 0 0 339.5 423.7;" xml:space="preserve">
<style type="text/css">
	.st0{fill:#A4E3FC;}
	.st1{fill:#E7EEFE;}
	.st2{fill:#495185;}
	.st3{fill:#D6EDEB;}
	.st4{fill:#FFFFFF;}
	.st5{fill:#FFBA9C;}
	.st6{fill:#FF9D76;}
	.st7{clip-path:url(#SVGID_2_);}
	.st8{fill:#FBA3AC;}
	.st9{fill:#B0C7FF;}
	.st10{fill:#3E488B;}
	.st11{fill:#EE7581;}
	.st12{fill:#D0DFFE;}
</style>
<g>
	<g id="圖層_2_1_">
		<g id="圖層_1-2">
			<path class="st0" d="M114.8,345.6l-54.9-26.2c-6.5-3.1-14.2-0.3-17.3,6.2c-0.1,0.2-0.1,0.3-0.2,0.5L0,423.7h210.3l8.9-45.3
				C219.2,378.4,112.9,343.7,114.8,345.6z"/>
			
				<rect x="125.1" y="276.3" transform="matrix(0.379 -0.9254 0.9254 0.379 -265.0515 346.9386)" class="st1" width="1.8" height="189.4"/>
			<path class="st2" d="M142.9,43.3h138.8c15.5,0,28.1,12.6,28.1,28.1v293.4c0,15.5-12.6,28.1-28.1,28.1H142.9
				c-15.5,0-28.1-12.6-28.1-28.1V71.4C114.8,55.9,127.3,43.3,142.9,43.3z"/>
			<path class="st3" d="M275.5,52.2h-17.1V57c0,6.4-5,8.8-11.2,8.8h-69.9c-6.2,0-11.2-2.5-11.2-8.8v-4.8H149
				c-14.3,0-25.8,11.9-25.8,26.6v276c0,14.7,11.6,26.6,25.8,26.6h126.5c14.3,0,25.8-11.9,25.8-26.6v-276
				C301.3,64.2,289.8,52.2,275.5,52.2z"/>
			<path class="st4" d="M199.2,52.3h39.9c1.6,0,2.9,1.3,2.9,2.9v0.3c0,1.6-1.3,2.9-2.9,2.9h-39.9c-1.6,0-2.9-1.3-2.9-2.9v-0.3
				C196.3,53.6,197.6,52.3,199.2,52.3z"/>
			<path class="st4" d="M185.3,55.4c0,2.2-1.8,4-4,4s-4-1.8-4-4s1.8-4,4-4S185.3,53.2,185.3,55.4z"/>
			<path class="st5" d="M309.8,110.2l28.1,51.8c0,0,5.6,13.2-4.4,18.2s-23.7-5.9-23.7-5.9V110.2z"/>
			<path class="st4" d="M151.9,112h120c11.9,0,21.5,9.6,21.5,21.5v186.4c0,11.9-9.6,21.5-21.5,21.5h-120c-11.9,0-21.5-9.6-21.5-21.5
				V133.4C130.4,121.6,140,112,151.9,112z"/>
			<path class="st5" d="M53.9,310.1l-4-119.9l29.7-123c1.9-7.7,5.8-14.8,11.4-20.4l43.8-43.6c4.2-4.2,11.1-4.2,15.3,0
				c0.9,0.9,1.6,1.9,2.1,3c3.7,7.7,3.8,16.5,0.5,24.4c-8.6,21.6-28.6,51.7-28.6,51.7l-9,71.2c0,0,23.8,12.5,23.8,69.6
				c0,36.2-24.3,85.4-24.3,85.4v37.2l-60.1-27.5L53.9,310.1z"/>
			<path class="st6" d="M109.6,327.2c-0.3,0-0.6-0.1-0.9-0.2c-1.2-0.5-1.7-1.8-1.2-3c0,0,0,0,0,0l7.3-17.2l1.9-5.1l-1.9,6.6v10.2
				l-3.1,7.3C111.3,326.6,110.5,327.2,109.6,327.2z"/>
			<circle class="st4" cx="213.5" cy="120" r="34.1"/>
			<g>
				<defs>
					<circle id="SVGID_1_" cx="213.5" cy="120" r="34.1"/>
				</defs>
				<clipPath id="SVGID_2_">
					<use xlink:href="#SVGID_1_"  style="overflow:visible;"/>
				</clipPath>
				<g class="st7">
					<polygon class="st8" points="215.8,134.6 216.3,118.7 223.7,115.7 225.1,126.7 224,130.4 					"/>
					<path class="st9" d="M216,129.4c0,0-0.9,2.6,2.8,1.4s6.8-5.3,6.8-5.3s4.3,1.6,9.5,7.1s7,22.4,7,22.4s-16,10.5-25.4,9.3
						s-13.9-10.3-13.9-10.3S211.2,136.9,216,129.4z"/>
					<path class="st4" d="M210.9,134.3l30.6-1.1L210.9,134.3z"/>
					
						<rect x="211.6" y="131.4" transform="matrix(0.9992 -3.996804e-02 3.996804e-02 0.9992 -5.1259 9.1768)" class="st4" width="30.6" height="2.7"/>
					<path class="st4" d="M208.7,139.2l31.2,1.8L208.7,139.2z"/>
					
						<rect x="222.9" y="124.5" transform="matrix(5.756408e-02 -0.9983 0.9983 5.756408e-02 71.431 355.9567)" class="st4" width="2.7" height="31.2"/>
					<path class="st4" d="M204.5,145l37,1.9L204.5,145z"/>
					
						<rect x="221.6" y="127.4" transform="matrix(5.233596e-02 -0.9986 0.9986 5.233596e-02 65.5878 360.9506)" class="st4" width="2.7" height="37"/>
					<path class="st4" d="M202,151.4l42.6,1.4L202,151.4z"/>
					
						<rect x="222" y="130.7" transform="matrix(3.263191e-02 -0.9995 0.9995 3.263191e-02 64.0693 370.3069)" class="st4" width="2.7" height="42.7"/>
					<path class="st4" d="M199.9,158.7l42.6,1.4L199.9,158.7z"/>
					
						<rect x="219.8" y="138" transform="matrix(3.263191e-02 -0.9995 0.9995 3.263191e-02 54.6824 375.2026)" class="st4" width="2.7" height="42.6"/>
					<path class="st4" d="M238.9,158.6c-0.3,0-34.3-0.8-35.2-0.8v-0.8c0.9,0,33.8,0.7,35.2,0.8L238.9,158.6z"/>
					<path class="st10" d="M209.7,96c-3.6,0.9-6.2,3.9-6.6,7.6c0.1,1-0.1,2-0.3,3c-0.3,0.6-0.6,1.1-1.1,1.5
						c-1.3,1.6-2.4,3.4-3.2,5.4c-0.8,1.6-1,3.4-0.6,5.1c0.9,2.7,4,3.8,6.7,4.7c1,0.4,2.1,0.6,3.1,0.5c0.4,0,0.7-0.2,0.9-0.5
						c0.1-0.3,0.1-0.5,0.1-0.8c-0.3-2.7-1.1-5.4-1.4-8.2s0.2-5.7,2.1-7.7c2.2-2.3,9.3-2.9,9.5-6.4C219.2,95.8,212.5,95.2,209.7,96z"
						/>
					<ellipse class="st8" cx="214" cy="114" rx="11" ry="13"/>
					<path class="st4" d="M205.3,118.9c0.4,0.7,0.6,1.6,0.5,2.4c0,0.3,0.1,1.1,0.7,1.2c0.4,0.2,0.9,0.3,1.4,0.3
						c1.7,0,3.4-0.8,4.5-2.1c0.3-0.4,0.6-0.7,0.9-1.1c0.1-0.2,0.3-0.3,0.2-0.6c-0.3-0.7-1.3-0.4-1.7-0.2c-2,0.5-4.2,0.4-6.2-0.3
						C205.3,118.5,205.2,118.7,205.3,118.9z"/>
					<path class="st11" d="M208,117.6c0.1,0,0.3-0.1,0.4-0.2c0.1-0.2,0-0.4-0.2-0.5c-0.2-0.1-0.4-0.2-0.7-0.2
						c-0.7-0.2-0.9-0.3-0.8-0.7c0.2-0.4,0.4-0.8,0.8-1.2c0.9-0.9,1.5-1.9,2-3.1c0.1-0.2-0.1-0.4-0.3-0.5c-0.2-0.1-0.4,0.1-0.5,0.3
						c-0.4,1-1,2-1.8,2.8c-0.4,0.5-0.8,1-0.9,1.6c-0.1,1.1,0.8,1.4,1.4,1.6c0.2,0.1,0.4,0.1,0.6,0.2
						C207.9,117.6,207.9,117.6,208,117.6z"/>
					<path class="st10" d="M212.3,111.7L212.3,111.7c0.3,0,0.4,0.1,0.5,0.2c0.1,0.2,0.2,0.4,0.2,0.6c0,0.2,0,0.5-0.1,0.7
						c-0.1,0.2-0.3,0.3-0.4,0.3h-0.1c-0.2,0-0.4-0.1-0.5-0.2c-0.1-0.2-0.2-0.4-0.2-0.6c0-0.2,0-0.4,0.1-0.6
						C212,111.8,212.1,111.7,212.3,111.7z"/>
					<path class="st10" d="M205.5,111.7L205.5,111.7c0.3,0,0.4,0.1,0.5,0.2c0.1,0.2,0.2,0.4,0.2,0.6c0,0.2,0,0.5-0.1,0.7
						c-0.1,0.2-0.3,0.3-0.4,0.3h-0.1c-0.2,0-0.4-0.1-0.5-0.2c-0.1-0.2-0.2-0.4-0.2-0.6c0-0.2,0-0.4,0.1-0.7
						C205.1,111.8,205.3,111.7,205.5,111.7L205.5,111.7z"/>
					
						<rect x="214.1" y="160.1" transform="matrix(0.9979 -6.453231e-02 6.453231e-02 0.9979 -9.8957 14.5239)" class="st4" width="11.6" height="0.8"/>
					<path class="st12" d="M223.2,163.8l-45.4,2.4v-37.1h24.6c5.8,0,8.3,4.8,10.5,10.5L223.2,163.8z"/>
					<path class="st10" d="M220.1,94.9c4.2,1.1,7.9,4.6,8.2,8.5c0,1.1,0.1,2.3,0.5,3.3c0.4,0.6,0.8,1.2,1.4,1.7c1.7,1.8,3,3.8,4.1,6
						c0.9,1.8,1.5,3.8,0.9,5.6c-1,2.9-4.7,4.1-7.9,4.9c-1.2,0.4-2.5,0.6-3.8,0.5c-0.4,0-0.9-0.2-1.1-0.5c-0.1-0.3-0.2-0.6-0.1-0.9
						c0.3-3,1.2-5.9,1.4-8.9s-0.4-6.3-2.8-8.5c-2.7-2.6-11.4-3.4-11.7-7.3C208.5,94.4,216.6,94,220.1,94.9z"/>
				</g>
			</g>
			<path class="st5" d="M309.8,212.4l-31.8,29c0,0-7.6,8.1-2.6,15.8s9,12.3,19.8,9s28.5-19.8,28.5-19.8l4.2-23.8
				c1.2-6.6-0.3-13.3-4.2-18.8l-14-19.9L309.8,212.4z"/>
			<path class="st6" d="M287.1,263c-0.3,0-0.7-0.1-0.9-0.3c-2.7-2.7-4-6.4-3.6-10.2c0.5-6.4,13.8-13.1,15.3-13.9
				c0.7-0.4,1.5-0.2,1.9,0.5c0.4,0.7,0.2,1.5-0.5,1.9c-0.1,0-0.1,0.1-0.2,0.1c-5.2,2.6-13.5,8-13.8,11.6c-0.3,2.9,0.7,5.8,2.7,7.9
				c0.6,0.5,0.6,1.4,0.1,1.9C287.8,262.8,287.4,263,287.1,263L287.1,263z"/>
			<path class="st5" d="M309.8,250L278,279c0,0-7.6,8.1-2.6,15.9s9,12.3,19.8,9c6.5-2,15.5-8.8,21.7-13.9c4.4-3.6,7.3-8.6,8.3-14.2
				l2.1-12c1.6-8.8-0.4-17.9-5.6-25.2l-11.9-16.9L309.8,250z"/>
			<path class="st6" d="M287.1,300.8c-0.3,0-0.7-0.1-0.9-0.3c-2.7-2.7-4-6.4-3.6-10.2c0.5-6.4,13.8-13.1,15.3-13.9
				c0.7-0.3,1.5,0.1,1.8,0.8c0.3,0.6,0,1.3-0.6,1.7c-5.2,2.6-13.5,8-13.8,11.6c-0.3,2.9,0.7,5.8,2.7,7.9c0.6,0.5,0.6,1.4,0.1,1.9
				C287.8,300.6,287.5,300.8,287.1,300.8L287.1,300.8z"/>
		</g>
	</g>
</g>
<path class="st5" d="M315.5,282.5l-20.1,18.3c0,0-4.8,5.1-1.6,10c3.2,4.9,5.7,7.8,12.5,5.7c4.1-1.3,9.8-5.6,13.7-8.8
	c2.8-2.3,4.6-5.5,5.3-9l1.3-7.6c1-5.6-0.3-11.3-3.5-16l-7.5-10.7V282.5z"/>
<g>
	<path class="st6" d="M301.1,314.7c-0.2,0-0.4-0.1-0.6-0.2c-0.1-0.1-2.6-2.4-2.3-6.4c0.3-4,8.7-8.3,9.7-8.8c0.4-0.2,0.9,0,1.2,0.4
		c0.2,0.4,0,0.9-0.4,1.2c-3.3,1.6-8.6,5.1-8.8,7.4c-0.3,3.2,1.7,5,1.7,5c0.4,0.3,0.4,0.9,0.1,1.2
		C301.6,314.6,301.4,314.7,301.1,314.7z"/>
</g>
</svg>
