<svg xmlns="http://www.w3.org/2000/svg" viewBox="0 0 366.77 116"><defs><style>.cls-1{fill:#00a4ef;}.cls-2{fill:#ffc517;}.cls-3{fill:#ed4848;}.cls-4{fill:#00c08b;}.cls-5{fill:#f90;}</style></defs><g id="圖層_2" data-name="圖層 2"><g id="圖層_1-2" data-name="圖層 1"><rect class="cls-1" x="117.49" y="30.79" width="32.26" height="14.66" rx="2.93"/><path class="cls-2" d="M238.46,51.32v-.07h0a25.65,25.65,0,0,0-36.69-23.09,2.94,2.94,0,0,0-2.9-2.5h-8.8a2.93,2.93,0,0,0-2.93,2.93V77.72a2.93,2.93,0,0,0,2.93,2.93h8.8a2.93,2.93,0,0,0,2.93-2.93V51.32h0a11,11,0,0,1,22,0V77.79a2.93,2.93,0,0,0,2.93,2.93h8.8a2.93,2.93,0,0,0,2.93-2.93V51.32Z"/><path class="cls-3" d="M339.28,25.66a27.5,27.5,0,1,0,27.49,27.5A27.54,27.54,0,0,0,339.28,25.66Zm0,40.33a12.83,12.83,0,1,1,12.83-12.83A12.84,12.84,0,0,1,339.28,66Z"/><rect class="cls-4" x="161.48" y="25.66" width="14.66" height="54.99" rx="2.93"/><path class="cls-5" d="M301.52,25.66h-8.8a2.93,2.93,0,0,0-2.93,2.93v2.58a27.5,27.5,0,1,0,0,44V88a13.35,13.35,0,0,1-26.49,2.4,2.94,2.94,0,0,0-2.88-2.4h-8.9a2.93,2.93,0,0,0-2.91,3.27A28,28,0,0,0,304.45,88V28.59A2.93,2.93,0,0,0,301.52,25.66ZM273.29,66a12.83,12.83,0,1,1,12.83-12.83A12.85,12.85,0,0,1,273.29,66Z"/><path class="cls-1" d="M139.48,0h-41a2.93,2.93,0,0,0-2.93,2.93l-.06,74.79a2.93,2.93,0,0,0,2.93,2.93h8.8a2.94,2.94,0,0,0,2.94-2.93V14.66h44A14.67,14.67,0,0,0,139.48,0Z"/><circle class="cls-4" cx="80.78" cy="73.04" r="7.33"/><path class="cls-4" d="M171.41,1.8a2.94,2.94,0,0,0-5.08,0l-4.69,8.13a2.93,2.93,0,0,0,2.54,4.4h9.38a2.93,2.93,0,0,0,2.54-4.4Z"/><path class="cls-4" d="M33.26,14.6A33,33,0,1,0,60.89,65.34a2.93,2.93,0,0,0-2.47-4.52H46.9a3,3,0,0,0-1.94.73,18.33,18.33,0,0,1-29.33-8.07H63a2.93,2.93,0,0,0,2.92-2.65A32.6,32.6,0,0,0,66,47.12,33.11,33.11,0,0,0,33.26,14.6ZM15.63,41.75a18.36,18.36,0,0,1,34.79,0Z"/></g></g></svg>