<svg xmlns="http://www.w3.org/2000/svg" viewBox="0 0 25.45 32.69"><defs><style>.cls-1{fill:#00c08b;}.cls-2,.cls-3{fill:#fff;}.cls-3{opacity:0.5;}</style></defs><g id="圖層_2" data-name="圖層 2"><g id="圖層_1-2" data-name="圖層 1"><ellipse class="cls-1" cx="12.73" cy="20.31" rx="12.73" ry="12.39"/><circle class="cls-1" cx="6.79" cy="4.07" r="4.07"/><circle class="cls-1" cx="13.24" cy="4.07" r="4.07"/><circle class="cls-1" cx="18.67" cy="4.07" r="4.07"/><path class="cls-1" d="M3.52,6.5s6.32,3.79,5.64,10.58h7.47c0-2.71,1.73-7.95,4.75-10.18"/><g id="_" data-name=" "><g id="Group_867" data-name="Group 867"><path id="Path_1132" data-name="Path 1132" class="cls-2" d="M15.82,24.61a2.62,2.62,0,0,1-1.08.9,4.29,4.29,0,0,1-1.61.4v.92a.41.41,0,0,1-.11.3.45.45,0,0,1-.6,0,.41.41,0,0,1-.12-.3v-.92a8.08,8.08,0,0,1-2.66-.63.67.67,0,0,1-.28-.22.59.59,0,0,1,.05-.74.55.55,0,0,1,.65-.11,6.22,6.22,0,0,0,2.24.53v-3a9.15,9.15,0,0,1-1.5-.51,2.53,2.53,0,0,1-1.08-.86,2.21,2.21,0,0,1-.38-1.24,2.62,2.62,0,0,1,.34-1.29,2.58,2.58,0,0,1,1-1,4,4,0,0,1,1.58-.46v-.9a.42.42,0,0,1,.12-.3.38.38,0,0,1,.29-.12.42.42,0,0,1,.42.42v.91a7.49,7.49,0,0,1,2.3.43.55.55,0,0,1,.38.55.59.59,0,0,1-.16.39.49.49,0,0,1-.38.18.46.46,0,0,1-.21-.05,6.34,6.34,0,0,0-1.93-.36v3.13a10.06,10.06,0,0,1,1.59.49A2.52,2.52,0,0,1,15.8,22a2.2,2.2,0,0,1,.4,1.36A2.34,2.34,0,0,1,15.82,24.61ZM11,19.89a3.94,3.94,0,0,0,1.32.55V17.55a2.48,2.48,0,0,0-1.28.51,1.2,1.2,0,0,0-.45,1,1.08,1.08,0,0,0,.41.88Zm4,3.35a.92.92,0,0,0-.44-.77,5,5,0,0,0-1.41-.55v2.83c1.23-.1,1.85-.6,1.85-1.51Z"/></g></g><rect class="cls-3" x="5.92" y="8.17" width="13.62" height="1.36" rx="0.68"/></g></g></svg>