<svg xmlns="http://www.w3.org/2000/svg" viewBox="0 0 35.79 21.1"><defs><style>.cls-1{fill:#ffc517;}.cls-2,.cls-3{fill:#fff;}.cls-2{opacity:0.5;}.cls-3{opacity:0.81;isolation:isolate;}</style></defs><g id="圖層_2" data-name="圖層 2"><g id="圖層_1-2" data-name="圖層 1"><path id="Rectangle_171" data-name="Rectangle 171" class="cls-1" d="M4.55,0H31.24a3.21,3.21,0,0,1,3.21,3.21h0V17.73H1.34V3.21A3.21,3.21,0,0,1,4.55,0Z"/><path id="Rectangle_172" data-name="Rectangle 172" class="cls-2" d="M7.2,1.69H28.59A3.21,3.21,0,0,1,31.8,4.9h0V17.73H4V4.9A3.21,3.21,0,0,1,7.2,1.69Z"/><path id="Rectangle_173" data-name="Rectangle 173" class="cls-1" d="M0,17.73H35.79v.15a3.22,3.22,0,0,1-3.21,3.22H3.21A3.22,3.22,0,0,1,0,17.88Z"/><circle id="Ellipse_47" data-name="Ellipse 47" class="cls-3" cx="17.91" cy="10" r="5.29"/><g id="_" data-name=" "><g id="Group_867" data-name="Group 867"><path id="Path_1132" data-name="Path 1132" class="cls-1" d="M20,12.31a1.75,1.75,0,0,1-.72.6,2.86,2.86,0,0,1-1.07.27v.61a.28.28,0,0,1-.08.2.29.29,0,0,1-.4,0,.28.28,0,0,1-.08-.2v-.61a5.51,5.51,0,0,1-1.78-.42.52.52,0,0,1-.18-.15.38.38,0,0,1,0-.49A.32.32,0,0,1,16,12a.34.34,0,0,1,.17,0,4.28,4.28,0,0,0,1.49.36v-2a5.93,5.93,0,0,1-1-.35,1.68,1.68,0,0,1-.72-.57,1.36,1.36,0,0,1-.25-.83,1.72,1.72,0,0,1,.22-.86,1.75,1.75,0,0,1,.7-.65,2.56,2.56,0,0,1,1.05-.31v-.6a.3.3,0,0,1,.08-.2.27.27,0,0,1,.19-.08.29.29,0,0,1,.29.28v.6a5,5,0,0,1,1.53.3.36.36,0,0,1,.26.36.41.41,0,0,1-.11.26.32.32,0,0,1-.26.12.25.25,0,0,1-.14,0,4.31,4.31,0,0,0-1.28-.23V9.67a7.49,7.49,0,0,1,1,.32,1.75,1.75,0,0,1,.73.56,1.51,1.51,0,0,1,.27.9A1.55,1.55,0,0,1,20,12.31ZM16.75,9.16a2.62,2.62,0,0,0,.88.37V7.6a1.63,1.63,0,0,0-.85.34.74.74,0,0,0-.3.63.71.71,0,0,0,.27.59Zm2.67,2.24a.61.61,0,0,0-.29-.52,3.48,3.48,0,0,0-.94-.37V12.4c.82-.06,1.23-.39,1.23-1Z"/></g></g></g></g></svg>