<svg xmlns="http://www.w3.org/2000/svg" viewBox="0 0 20 32"><defs><style>.cls-1{fill:#ffc517;}.cls-2,.cls-3{fill:#fff;}.cls-2{opacity:0.5;}</style></defs><g id="圖層_2" data-name="圖層 2"><g id="圖層_1-2" data-name="圖層 1"><rect class="cls-1" width="20" height="32" rx="3.19"/><rect class="cls-2" x="1.5" y="1.5" width="17" height="29" rx="2.17"/><rect class="cls-1" x="6" y="0.75" width="8" height="2" rx="0.86"/><rect class="cls-1" x="3" y="11.75" width="14" height="7" rx="0.85"/><path class="cls-3" d="M5.75,16.92H4.32V14H5.68c.64,0,1,.25,1,.7a.7.7,0,0,1-.57.69.78.78,0,0,1,.69.67C6.83,16.64,6.47,16.92,5.75,16.92ZM5.58,14.5H5v.7h.6c.28,0,.42-.13.43-.37S5.86,14.51,5.58,14.5Zm.06,1.19H5v.77h.65c.32,0,.49-.13.5-.39S6,15.69,5.64,15.69Z"/><path class="cls-3" d="M9.89,16.92H9.17L9,16.29H7.85l-.21.63H6.93L8,14H8.8ZM8.84,15.79l-.37-1c0-.09-.05-.17-.06-.25h0a1.85,1.85,0,0,1-.06.26l-.33,1Z"/><path class="cls-3" d="M12.7,16.92H12l-1.15-1.81-.16-.28c0,.13,0,.3,0,.5v1.59h-.62V14h.71l1.11,1.79a1.62,1.62,0,0,1,.15.29h0c0-.1,0-.24,0-.45V14h.62Z"/><path class="cls-3" d="M15.9,16.91h-.83l-.84-1.22-.44.47v.76h-.66V14h.66v1.33L15,14h.82l-1.16,1.22Z"/></g></g></svg>