<svg xmlns="http://www.w3.org/2000/svg" viewBox="0 0 27.08 18.39"><defs><style>.cls-1{fill:none;stroke:#ed4848;stroke-miterlimit:10;}.cls-2{fill:#ed4848;}</style></defs><g id="圖層_2" data-name="圖層 2"><g id="圖層_1-2" data-name="圖層 1"><path class="cls-1" d="M3.22.5H23.86a2.72,2.72,0,0,1,2.72,2.72v12a2.72,2.72,0,0,1-2.72,2.72H3.22A2.72,2.72,0,0,1,.5,15.17V3.22A2.72,2.72,0,0,1,3.22.5Z"/><rect class="cls-2" x="0.5" y="3.76" width="26.08" height="4.35"/><path class="cls-2" d="M8.65,12.45H4.3a.54.54,0,1,1,0-1.08H8.65a.54.54,0,0,1,0,1.08Z"/><path class="cls-2" d="M11.91,14.63H4.3a.55.55,0,0,1-.54-.55.54.54,0,0,1,.54-.54h7.61a.54.54,0,0,1,.54.54A.55.55,0,0,1,11.91,14.63Z"/></g></g></svg>