<svg xmlns="http://www.w3.org/2000/svg" viewBox="0 0 36.93 35.23"><defs><style>.cls-1{fill:#00a4ef;}.cls-2{fill:#fafafa;}.cls-3{fill:none;stroke:#fafafa;stroke-miterlimit:10;}</style></defs><g id="圖層_2" data-name="圖層 2"><g id="圖層_1-2" data-name="圖層 1"><circle class="cls-1" cx="18.57" cy="17.57" r="13.07"/><path class="cls-2" d="M18.44,23a3.55,3.55,0,0,1-3.84-2.86.76.76,0,0,1,.7-.83.79.79,0,0,1,.83.7c.07.8,1.1,1.45,2.3,1.45s2.31-.7,2.31-1.54-.73-1.23-2.29-1.52l-.16,0c-2.5-.45-3.69-1.48-3.69-3.06a3.53,3.53,0,0,1,3.84-3.07,3.55,3.55,0,0,1,3.84,2.86.76.76,0,0,1-.7.83.79.79,0,0,1-.83-.7c-.07-.8-1.1-1.46-2.31-1.46s-2.31.71-2.31,1.54.74,1.23,2.31,1.52l.16,0c2.5.46,3.69,1.48,3.69,3.05A3.53,3.53,0,0,1,18.44,23Z"/><path class="cls-2" d="M18.44,24.49a.78.78,0,0,1-.77-.77V11.42a.77.77,0,0,1,1.54,0v12.3A.77.77,0,0,1,18.44,24.49Z"/><path class="cls-3" d="M33.57,19.18l2.86-2A17.48,17.48,0,0,1,18.91,34.73"/><path class="cls-3" d="M3.36,16.05.5,18A17.51,17.51,0,0,1,18,.5"/></g></g></svg>