<svg xmlns="http://www.w3.org/2000/svg" viewBox="0 0 23.18 13.15"><defs><style>.cls-1{fill:#ed4848;}.cls-2{fill:#fff;}</style></defs><g id="圖層_2" data-name="圖層 2"><g id="表頭尾"><rect class="cls-1" width="23.18" height="11.27" rx="1.69"/><polygon class="cls-1" points="17.72 13.15 19.89 9.4 15.56 9.4 17.72 13.15"/><path class="cls-2" d="M4.87,3.65h.82l.06.5h0A1.78,1.78,0,0,1,7,3.56c.82,0,1.18.57,1.18,1.53V7.46h-1V5.21c0-.59-.17-.8-.54-.8a1.11,1.11,0,0,0-.8.43V7.46h-1Z"/><path class="cls-2" d="M9,5.56a1.85,1.85,0,0,1,1.77-2c1.05,0,1.6.76,1.6,1.82a1.78,1.78,0,0,1,0,.46H10a1,1,0,0,0,1,1,1.56,1.56,0,0,0,.86-.27l.34.62a2.44,2.44,0,0,1-1.33.42A1.85,1.85,0,0,1,9,5.56Zm2.51-.38c0-.52-.23-.85-.72-.85a.86.86,0,0,0-.83.85Z"/><path class="cls-2" d="M12.81,3.65h1l.42,1.89c.07.36.12.73.19,1.11h0c.08-.38.15-.75.24-1.11l.46-1.89H16l.48,1.89c.09.36.15.73.23,1.11h0c.07-.38.11-.75.19-1.11l.41-1.89h.93l-.94,3.81H16.19l-.4-1.66c-.08-.36-.14-.71-.22-1.11h0c-.07.4-.13.76-.21,1.11l-.39,1.66H13.8Z"/></g></g></svg>