<?xml version="1.0" encoding="utf-8"?>
<!-- Generator: Adobe Illustrator 24.1.0, SVG Export Plug-In . SVG Version: 6.00 Build 0)  -->
<svg version="1.1" id="圖層_1" xmlns="http://www.w3.org/2000/svg" xmlns:xlink="http://www.w3.org/1999/xlink" x="0px" y="0px"
	 viewBox="0 0 117 117" style="enable-background:new 0 0 117 117;" xml:space="preserve">
<style type="text/css">
	.st0{fill:#FFFFFF;}
	.st1{fill:#009D95;}
	.st2{fill:#666666;}
	.st3{fill:#B9BBC1;}
	.st4{fill:#FFD200;}
	.st5{fill:#D6EDEB;}
	.st6{fill:#8B8996;}
</style>
<rect x="12.3" y="28.1" class="st0" width="92.4" height="56.9"/>
<rect x="12.3" y="28.1" class="st1" width="92.4" height="14.2"/>
<path class="st2" d="M103.6,21H13.4c-4.5,0-8.2,3.7-8.2,8.2c0,0,0,0,0,0v64.7c0,1,0.8,1.8,1.8,1.8c0,0,0,0,0.1,0h103.1
	c1,0,1.8-0.8,1.8-1.8V29.2C111.9,24.6,108.2,21,103.6,21C103.7,21,103.7,21,103.6,21z M12.3,83.2V29.9c0-1,0.8-1.8,1.8-1.8
	c0,0,0,0,0,0h88.9c1,0,1.8,0.8,1.8,1.8v53.3c0,1-0.8,1.8-1.8,1.8H14.1C13.1,85,12.3,84.2,12.3,83.2z"/>
<path class="st3" d="M113.6,92.1H3.4c-1,0-1.8,0.8-1.8,1.8l0,0c0,3.9,3.2,7.1,7.1,7.1h99.5c3.9,0,7.1-3.2,7.1-7.1l0,0
	C115.4,92.9,114.6,92.1,113.6,92.1z"/>
<path class="st4" d="M33.6,37H21.2c-1,0-1.8-0.8-1.8-1.8c0-1,0.8-1.8,1.8-1.8h12.4c1,0,1.8,0.8,1.8,1.8C35.4,36.2,34.6,37,33.6,37z"
	/>
<path class="st0" d="M65.6,37h-1.8c-1,0-1.8-0.8-1.8-1.8c0-1,0.8-1.8,1.8-1.8h1.8c1,0,1.8,0.8,1.8,1.8C67.4,36.2,66.6,37,65.6,37z"
	/>
<path class="st0" d="M74.5,37h-1.8c-1,0-1.8-0.8-1.8-1.8c0-1,0.8-1.8,1.8-1.8h1.8c1,0,1.8,0.8,1.8,1.8C76.3,36.2,75.5,37,74.5,37z"
	/>
<path class="st0" d="M83.4,37h-1.8c-1,0-1.8-0.8-1.8-1.8c0-1,0.8-1.8,1.8-1.8h1.8c1,0,1.8,0.8,1.8,1.8C85.2,36.2,84.4,37,83.4,37z"
	/>
<path class="st0" d="M92.3,37h-1.8c-1,0-1.8-0.8-1.8-1.8c0-1,0.8-1.8,1.8-1.8h1.8c1,0,1.8,0.8,1.8,1.8C94,36.2,93.3,37,92.3,37z"/>
<path class="st5" d="M51.4,79.7H21.2c-1,0-1.8-0.8-1.8-1.8V49.4c0-1,0.8-1.8,1.8-1.8h30.2c1,0,1.8,0.8,1.8,1.8v28.4
	C53.2,78.9,52.4,79.7,51.4,79.7L51.4,79.7z"/>
<path class="st3" d="M94.1,51.2H60.3c-1,0-1.8-0.8-1.8-1.8c0-1,0.8-1.8,1.8-1.8l0,0h33.8c1,0,1.8,0.8,1.8,1.8
	C95.8,50.4,95,51.2,94.1,51.2z"/>
<path class="st3" d="M74.5,65.4H60.3c-1,0.1-1.8-0.7-1.9-1.6c-0.1-1,0.7-1.8,1.6-1.9c0.1,0,0.2,0,0.3,0h14.2c1-0.1,1.8,0.7,1.9,1.6
	c0.1,1-0.7,1.8-1.6,1.9C74.7,65.4,74.6,65.4,74.5,65.4z"/>
<path class="st3" d="M74.5,72.5H60.3c-1,0.1-1.8-0.7-1.9-1.6S59,69.1,60,69c0.1,0,0.2,0,0.3,0h14.2c1-0.1,1.8,0.7,1.9,1.6
	c0.1,1-0.7,1.8-1.6,1.9C74.7,72.6,74.6,72.6,74.5,72.5z"/>
<path class="st3" d="M74.5,79.7H60.3c-1,0.1-1.8-0.7-1.9-1.6s0.7-1.8,1.6-1.9c0.1,0,0.2,0,0.3,0h14.2c1-0.1,1.8,0.7,1.9,1.6
	c0.1,1-0.7,1.8-1.6,1.9C74.7,79.7,74.6,79.7,74.5,79.7z"/>
<path class="st3" d="M95.8,65.4H81.6c-1,0.1-1.8-0.7-1.9-1.6c-0.1-1,0.7-1.8,1.6-1.9c0.1,0,0.2,0,0.3,0h14.2c1-0.1,1.8,0.7,1.9,1.6
	c0.1,1-0.7,1.8-1.6,1.9C96,65.4,95.9,65.4,95.8,65.4z"/>
<path class="st3" d="M95.8,72.5H81.6c-1,0.1-1.8-0.7-1.9-1.6c-0.1-1,0.7-1.8,1.6-1.9c0.1,0,0.2,0,0.3,0h14.2c1-0.1,1.8,0.7,1.9,1.6
	c0.1,1-0.7,1.8-1.6,1.9C96,72.6,95.9,72.6,95.8,72.5z"/>
<path class="st3" d="M95.8,79.7H81.6c-1,0.1-1.8-0.7-1.9-1.6c-0.1-1,0.7-1.8,1.6-1.9c0.1,0,0.2,0,0.3,0h14.2c1-0.1,1.8,0.7,1.9,1.6
	c0.1,1-0.7,1.8-1.6,1.9C96,79.7,95.9,79.7,95.8,79.7z"/>
<path class="st3" d="M83.4,58.3H60.3c-1,0-1.8-0.8-1.8-1.8c0-1,0.8-1.8,1.8-1.8l0,0h23.1c1,0,1.8,0.8,1.8,1.8
	C85.2,57.5,84.4,58.3,83.4,58.3z"/>
<path class="st6" d="M51.4,95.7h14.2c2,0,3.6-1.6,3.6-3.6H47.8C47.8,94.1,49.4,95.7,51.4,95.7z"/>
</svg>
