<svg xmlns="http://www.w3.org/2000/svg" xmlns:xlink="http://www.w3.org/1999/xlink" viewBox="0 0 281.17 563.57"><defs><style>.cls-1,.cls-10,.cls-11,.cls-12,.cls-13,.cls-14,.cls-15,.cls-16,.cls-17,.cls-18,.cls-19,.cls-2,.cls-20,.cls-21,.cls-22,.cls-23,.cls-24,.cls-25,.cls-26,.cls-27,.cls-3,.cls-4,.cls-5,.cls-6,.cls-7,.cls-8,.cls-9{fill-rule:evenodd;}.cls-1{fill:url(#New_Gradient_23);}.cls-2{fill:url(#New_Gradient_21);}.cls-3{fill:url(#New_Gradient_23-2);}.cls-4{fill:url(#New_Gradient_21-2);}.cls-5{fill:url(#New_Gradient_23-3);}.cls-6{fill:url(#New_Gradient_21-3);}.cls-7{fill:url(#New_Gradient_23-4);}.cls-8{fill:url(#New_Gradient_21-4);}.cls-11,.cls-23,.cls-9{stroke:#000;}.cls-11,.cls-18,.cls-19,.cls-20,.cls-23,.cls-9{stroke-miterlimit:2.41;stroke-width:0.57px;}.cls-9{fill:url(#New_Gradient_20);}.cls-10{fill:url(#New_Gradient_22);}.cls-11{fill:#fff;}.cls-12{fill:url(#New_Gradient_14);}.cls-13{fill:url(#New_Gradient_17);}.cls-14{fill:url(#New_Gradient_16);}.cls-15{fill:#b3b3b3;}.cls-16{fill:url(#New_Gradient_15);}.cls-18{fill:#1a1a1a;}.cls-18,.cls-19,.cls-20{stroke:#333;}.cls-20{fill:url(#New_Gradient_19);}.cls-21{fill:url(#New_Gradient_18);}.cls-22{fill:#333;}.cls-24{fill:url(#New_Gradient_14-2);}.cls-25{fill:url(#New_Gradient_15-2);}.cls-26{fill:url(#New_Gradient_17-2);}.cls-27{fill:url(#New_Gradient_16-2);}</style><linearGradient id="New_Gradient_23" x1="-783.51" y1="1025.23" x2="-776.53" y2="1025.23" gradientTransform="translate(783.51 -857.06)" gradientUnits="userSpaceOnUse"><stop offset="0" stop-color="#60605e"/><stop offset="1" stop-color="#2e2e2e"/></linearGradient><linearGradient id="New_Gradient_21" x1="-782.95" y1="1022.43" x2="-776.75" y2="1022.43" gradientTransform="translate(783.74 -854.1)" gradientUnits="userSpaceOnUse"><stop offset="0" stop-color="#b5b5b5"/><stop offset="1" stop-color="#6a6a6a"/></linearGradient><linearGradient id="New_Gradient_23-2" x1="-783.51" y1="1069.66" x2="-776.53" y2="1069.66" gradientTransform="translate(783.51 -948.48)" xlink:href="#New_Gradient_23"/><linearGradient id="New_Gradient_21-2" x1="-782.95" y1="1066.85" x2="-776.75" y2="1066.85" gradientTransform="translate(783.74 -945.52)" xlink:href="#New_Gradient_21"/><linearGradient id="New_Gradient_23-3" x1="-783.51" y1="1095.35" x2="-776.53" y2="1095.35" gradientTransform="translate(783.51 -1020.38)" xlink:href="#New_Gradient_23"/><linearGradient id="New_Gradient_21-3" x1="-782.95" y1="1093.94" x2="-776.75" y2="1093.94" gradientTransform="translate(783.74 -1018.89)" xlink:href="#New_Gradient_21"/><linearGradient id="New_Gradient_23-4" x1="-1043.96" y1="1069.34" x2="-1050.95" y2="1069.34" gradientTransform="translate(1325.14 -924.7)" xlink:href="#New_Gradient_23"/><linearGradient id="New_Gradient_21-4" x1="-1044.53" y1="1064.85" x2="-1050.73" y2="1064.85" gradientTransform="translate(1324.91 -919.95)" xlink:href="#New_Gradient_21"/><radialGradient id="New_Gradient_20" cx="-311.81" cy="1069.83" r="238.32" gradientTransform="translate(509.24 -982.65) scale(1.18)" gradientUnits="userSpaceOnUse"><stop offset="0" stop-color="#434343"/><stop offset="1" stop-color="#5d5d5d"/></radialGradient><radialGradient id="New_Gradient_22" cx="-314.53" cy="1063.72" r="235.03" gradientTransform="translate(512.46 -975.43) scale(1.18)" gradientUnits="userSpaceOnUse"><stop offset="0" stop-color="#3c3c3c"/><stop offset="1" stop-color="#141414"/></radialGradient><radialGradient id="New_Gradient_14" cx="-401.83" cy="1155" r="105.84" gradientTransform="translate(598.12 -1148.03) scale(1.14 1)" gradientUnits="userSpaceOnUse"><stop offset="0" stop-color="#ebebeb"/><stop offset="1" stop-color="#1a1a1a"/></radialGradient><linearGradient id="New_Gradient_17" x1="-399.54" y1="151.94" x2="-389.59" y2="151.94" gradientTransform="translate(480.92 102.96) scale(1.18 1.18)" gradientUnits="userSpaceOnUse"><stop offset="0" stop-color="#666"/><stop offset="1" stop-color="#737373"/></linearGradient><linearGradient id="New_Gradient_16" x1="-395.15" y1="149.99" x2="-385.2" y2="149.99" gradientTransform="translate(470.24 104.04) scale(1.18 1.18)" gradientUnits="userSpaceOnUse"><stop offset="0" stop-color="#d0d0d0"/><stop offset="1" stop-color="#626262"/></linearGradient><radialGradient id="New_Gradient_15" cx="-454.56" cy="1151.03" r="105.84" gradientTransform="translate(648.16 -1139.87) scale(1.12 1)" gradientUnits="userSpaceOnUse"><stop offset="0" stop-color="#5e5e5e"/><stop offset="1" stop-color="#545454"/></radialGradient><radialGradient id="New_Gradient_19" cx="-4373.42" cy="3598.18" r="4.48" gradientTransform="translate(2136.77 -1606.11) scale(0.45)" gradientUnits="userSpaceOnUse"><stop offset="0" stop-color="#2862a1"/><stop offset="1" stop-color="#0b1121"/></radialGradient><radialGradient id="New_Gradient_18" cx="-4373.32" cy="3595.79" r="2.59" gradientTransform="translate(2136.68 -1605.64) scale(0.45)" gradientUnits="userSpaceOnUse"><stop offset="0" stop-color="#0e162b"/><stop offset="1" stop-color="#18365c"/></radialGradient><radialGradient id="New_Gradient_14-2" cx="-402.76" cy="-2430.28" r="105.84" gradientTransform="matrix(1.14, 0, 0, -1, 600.3, -1866.61)" xlink:href="#New_Gradient_14"/><radialGradient id="New_Gradient_15-2" cx="-455.51" cy="-2434.25" r="105.84" gradientTransform="matrix(1.12, 0, 0, -1, 650.35, -1874.77)" xlink:href="#New_Gradient_15"/><linearGradient id="New_Gradient_17-2" x1="4389.76" y1="151.62" x2="4399.71" y2="151.62" gradientTransform="matrix(-1.18, 0, 0, 1.18, 5460.89, 103.73)" xlink:href="#New_Gradient_17"/><linearGradient id="New_Gradient_16-2" x1="4394.15" y1="149.68" x2="4404.1" y2="149.68" gradientTransform="matrix(-1.18, 0, 0, 1.18, 5471.56, 104.8)" xlink:href="#New_Gradient_16"/></defs><g id="圖層_2" data-name="圖層 2"><g id="圖層_1-2" data-name="圖層 1"><path class="cls-1" d="M1.38,149.52H5.61A1.38,1.38,0,0,1,7,150.89v34.55a1.38,1.38,0,0,1-1.38,1.38H1.38A1.38,1.38,0,0,1,0,185.44V150.89a1.38,1.38,0,0,1,1.38-1.37Z"/><path class="cls-2" d="M1.49,151H6.28a.71.71,0,0,1,.71.7V184.9a.71.71,0,0,1-.71.71H1.49a.71.71,0,0,1-.7-.71V151.74a.71.71,0,0,1,.7-.7Z"/><path class="cls-3" d="M1.38,102.52H5.61A1.38,1.38,0,0,1,7,103.9v34.55a1.38,1.38,0,0,1-1.38,1.38H1.38A1.38,1.38,0,0,1,0,138.45V103.9a1.38,1.38,0,0,1,1.38-1.38Z"/><path class="cls-4" d="M1.49,104.05H6.28a.7.7,0,0,1,.71.7v33.16a.71.71,0,0,1-.71.71H1.49a.71.71,0,0,1-.7-.71V104.75a.7.7,0,0,1,.7-.7Z"/><path class="cls-5" d="M1.38,65.57H5.61A1.38,1.38,0,0,1,7,66.94V83a1.38,1.38,0,0,1-1.38,1.37H1.38A1.38,1.38,0,0,1,0,83V66.94a1.38,1.38,0,0,1,1.38-1.37Z"/><path class="cls-6" d="M1.49,66.33H6.28A.71.71,0,0,1,7,67v16a.7.7,0,0,1-.71.7H1.49a.7.7,0,0,1-.7-.7V67a.71.71,0,0,1,.7-.71Z"/><path class="cls-7" d="M279.79,114.75h-4.23a1.38,1.38,0,0,0-1.38,1.38v57a1.38,1.38,0,0,0,1.38,1.38h4.23a1.38,1.38,0,0,0,1.38-1.38v-57a1.38,1.38,0,0,0-1.38-1.38Z"/><path class="cls-8" d="M279.68,117.19h-4.79a.71.71,0,0,0-.71.71v54a.71.71,0,0,0,.71.71h4.79a.71.71,0,0,0,.7-.71v-54a.71.71,0,0,0-.7-.71Z"/><path class="cls-9" d="M39.74.28h202a37.49,37.49,0,0,1,37.37,37.38V525.91a37.48,37.48,0,0,1-37.37,37.37H39.74A37.48,37.48,0,0,1,2.37,525.91V37.66A37.49,37.49,0,0,1,39.74.28ZM41.39,4H240a35.24,35.24,0,0,1,35.13,35.13v485.3A35.24,35.24,0,0,1,240,559.57H41.39A35.24,35.24,0,0,1,6.26,524.43V39.13A35.24,35.24,0,0,1,41.39,4Z"/><path class="cls-10" d="M41.39,4H240a35.24,35.24,0,0,1,35.13,35.13v485.3A35.24,35.24,0,0,1,240,559.57H41.39A35.24,35.24,0,0,1,6.26,524.43V39.13A35.24,35.24,0,0,1,41.39,4ZM41,10.3H240.39a28.58,28.58,0,0,1,28.5,28.5v486a28.58,28.58,0,0,1-28.5,28.5H41a28.58,28.58,0,0,1-28.5-28.5V38.8A28.58,28.58,0,0,1,41,10.3Z"/><path class="cls-11" d="M40.73,15h200a23.61,23.61,0,0,1,23.54,23.55V525a23.61,23.61,0,0,1-23.54,23.54h-200A23.61,23.61,0,0,1,17.18,525V38.56A23.62,23.62,0,0,1,40.73,15Z"/><path class="cls-12" d="M43.13.91H237.74A38.94,38.94,0,0,1,261,8.42a41.92,41.92,0,0,0-19.92-4.94H39.8A41.89,41.89,0,0,0,19.88,8.42,38.9,38.9,0,0,1,43.13.91Z"/><path class="cls-13" d="M20.46,549.87a35.44,35.44,0,0,1-8.59-23.16V37.18A35.44,35.44,0,0,1,20.46,14,34.9,34.9,0,0,0,8.7,40.11V523.78a34.9,34.9,0,0,0,11.76,26.09Z"/><path class="cls-14" d="M15,549.53a35.61,35.61,0,0,1-8.59-23.2V35.82A35.57,35.57,0,0,1,15,12.62,35,35,0,0,0,3.21,38.75V523.39A35,35,0,0,0,15,549.53Z"/><polygon class="cls-15" points="3.21 49.57 3.21 52.62 6.26 52.62 6.26 49.57 3.21 49.57 3.21 49.57"/><polygon class="cls-15" points="3.21 510.73 3.21 513.78 6.26 513.78 6.26 510.73 3.21 510.73 3.21 510.73"/><path class="cls-16" d="M45.75,5.11H236.37a37.67,37.67,0,0,1,22.77,7.5,40.37,40.37,0,0,0-19.51-4.93H42.49A40.4,40.4,0,0,0,23,12.61a37.69,37.69,0,0,1,22.77-7.5Z"/><path class="cls-17" d="M204.89,15.17a3.64,3.64,0,0,0-3.64,3.64v.67A13.77,13.77,0,0,1,187.3,33H87.65a13.76,13.76,0,0,1-14-13.49v-.67c0-1.26-.14-3.64-2.73-3.64H58.49a1.92,1.92,0,0,1-1.94-1.88v-.11h165.9v.11c0,1,3.29,1.88,2.22,1.88Z"/><path class="cls-18" d="M157.76,18.3A3.8,3.8,0,1,1,154,22.1a3.8,3.8,0,0,1,3.79-3.8Z"/><path class="cls-19" d="M157.77,19.63a2.45,2.45,0,1,1-2.45,2.45,2.45,2.45,0,0,1,2.45-2.45Z"/><path class="cls-20" d="M157.8,20a2,2,0,1,1-2,2,2,2,0,0,1,2-2Z"/><path class="cls-21" d="M157.75,20.28h0a.56.56,0,0,1,.56.56v1.22a.56.56,0,0,1-.56.56h0a.56.56,0,0,1-.55-.56V20.84a.56.56,0,0,1,.55-.56Z"/><path class="cls-18" d="M116.85,20.27H144a2.13,2.13,0,0,1,2.12,2.11h0A2.13,2.13,0,0,1,144,24.49H116.85a2.12,2.12,0,0,1-2.11-2.11h0a2.12,2.12,0,0,1,2.11-2.11Z"/><path class="cls-22" d="M115.94,20.47h0v.4h-.42v-.16a3,3,0,0,1,.38-.24Z"/><polygon class="cls-22" points="116.46 20.47 116.88 20.47 116.88 20.87 116.46 20.87 116.46 20.47 116.46 20.47"/><polygon class="cls-22" points="117.38 20.47 117.79 20.47 117.79 20.87 117.38 20.87 117.38 20.47 117.38 20.47"/><polygon class="cls-22" points="118.33 20.47 118.75 20.47 118.75 20.87 118.33 20.87 118.33 20.47 118.33 20.47"/><polygon class="cls-22" points="119.26 20.47 119.67 20.47 119.67 20.87 119.26 20.87 119.26 20.47 119.26 20.47"/><polygon class="cls-22" points="120.34 20.47 120.76 20.47 120.76 20.87 120.34 20.87 120.34 20.47 120.34 20.47"/><polygon class="cls-22" points="121.37 20.47 121.78 20.47 121.78 20.87 121.37 20.87 121.37 20.47 121.37 20.47"/><polygon class="cls-22" points="122.36 20.47 122.77 20.47 122.77 20.87 122.36 20.87 122.36 20.47 122.36 20.47"/><polygon class="cls-22" points="123.47 20.47 123.88 20.47 123.88 20.87 123.47 20.87 123.47 20.47 123.47 20.47"/><polygon class="cls-22" points="124.54 20.47 124.95 20.47 124.95 20.87 124.54 20.87 124.54 20.47 124.54 20.47"/><polygon class="cls-22" points="125.58 20.47 126 20.47 126 20.87 125.58 20.87 125.58 20.47 125.58 20.47"/><polygon class="cls-22" points="126.57 20.47 126.98 20.47 126.98 20.87 126.57 20.87 126.57 20.47 126.57 20.47"/><polygon class="cls-22" points="128.37 20.47 128.79 20.47 128.79 20.87 128.37 20.87 128.37 20.47 128.37 20.47"/><polygon class="cls-22" points="127.59 20.47 128 20.47 128 20.87 127.59 20.87 127.59 20.47 127.59 20.47"/><polygon class="cls-22" points="129.27 20.47 129.69 20.47 129.69 20.87 129.27 20.87 129.27 20.47 129.27 20.47"/><polygon class="cls-22" points="130.19 20.47 130.6 20.47 130.6 20.87 130.19 20.87 130.19 20.47 130.19 20.47"/><polygon class="cls-22" points="131.14 20.47 131.56 20.47 131.56 20.87 131.14 20.87 131.14 20.47 131.14 20.47"/><polygon class="cls-22" points="132.07 20.47 132.48 20.47 132.48 20.87 132.07 20.87 132.07 20.47 132.07 20.47"/><polygon class="cls-22" points="133.16 20.47 133.57 20.47 133.57 20.87 133.16 20.87 133.16 20.47 133.16 20.47"/><polygon class="cls-22" points="134.18 20.47 134.59 20.47 134.59 20.87 134.18 20.87 134.18 20.47 134.18 20.47"/><polygon class="cls-22" points="135.17 20.47 135.58 20.47 135.58 20.87 135.17 20.87 135.17 20.47 135.17 20.47"/><polygon class="cls-22" points="136.28 20.47 136.69 20.47 136.69 20.87 136.28 20.87 136.28 20.47 136.28 20.47"/><polygon class="cls-22" points="137.35 20.47 137.76 20.47 137.76 20.87 137.35 20.87 137.35 20.47 137.35 20.47"/><polygon class="cls-22" points="138.39 20.47 138.81 20.47 138.81 20.87 138.39 20.87 138.39 20.47 138.39 20.47"/><polygon class="cls-22" points="139.38 20.47 139.79 20.47 139.79 20.87 139.38 20.87 139.38 20.47 139.38 20.47"/><polygon class="cls-22" points="141.21 20.47 141.63 20.47 141.63 20.87 141.21 20.87 141.21 20.47 141.21 20.47"/><polygon class="cls-22" points="140.43 20.47 140.84 20.47 140.84 20.87 140.43 20.87 140.43 20.47 140.43 20.47"/><polygon class="cls-22" points="142.11 20.47 142.53 20.47 142.53 20.87 142.11 20.87 142.11 20.47 142.11 20.47"/><polygon class="cls-22" points="143.03 20.47 143.44 20.47 143.44 20.87 143.03 20.87 143.03 20.47 143.03 20.47"/><polygon class="cls-22" points="143.98 20.47 144.4 20.47 144.4 20.87 143.98 20.87 143.98 20.47 143.98 20.47"/><path class="cls-22" d="M144.91,20.47h0a1.91,1.91,0,0,1,.41.26v.14h-.41v-.4Z"/><path class="cls-22" d="M115.32,20.93h.24v.4h-.41v-.19a1.2,1.2,0,0,1,.17-.21Z"/><polygon class="cls-22" points="116.05 20.93 116.46 20.93 116.46 21.33 116.05 21.33 116.05 20.93 116.05 20.93"/><polygon class="cls-22" points="116.96 20.93 117.38 20.93 117.38 21.33 116.96 21.33 116.96 20.93 116.96 20.93"/><polygon class="cls-22" points="117.92 20.93 118.33 20.93 118.33 21.33 117.92 21.33 117.92 20.93 117.92 20.93"/><polygon class="cls-22" points="118.84 20.93 119.26 20.93 119.26 21.33 118.84 21.33 118.84 20.93 118.84 20.93"/><polygon class="cls-22" points="119.93 20.93 120.34 20.93 120.34 21.33 119.93 21.33 119.93 20.93 119.93 20.93"/><polygon class="cls-22" points="120.96 20.93 121.37 20.93 121.37 21.33 120.96 21.33 120.96 20.93 120.96 20.93"/><polygon class="cls-22" points="121.94 20.93 122.36 20.93 122.36 21.33 121.94 21.33 121.94 20.93 121.94 20.93"/><polygon class="cls-22" points="123.06 20.93 123.47 20.93 123.47 21.33 123.06 21.33 123.06 20.93 123.06 20.93"/><polygon class="cls-22" points="124.13 20.93 124.54 20.93 124.54 21.33 124.13 21.33 124.13 20.93 124.13 20.93"/><polygon class="cls-22" points="125.17 20.93 125.58 20.93 125.58 21.33 125.17 21.33 125.17 20.93 125.17 20.93"/><polygon class="cls-22" points="126.15 20.93 126.57 20.93 126.57 21.33 126.15 21.33 126.15 20.93 126.15 20.93"/><polygon class="cls-22" points="127.96 20.93 128.37 20.93 128.37 21.33 127.96 21.33 127.96 20.93 127.96 20.93"/><polygon class="cls-22" points="127.17 20.93 127.59 20.93 127.59 21.33 127.17 21.33 127.17 20.93 127.17 20.93"/><polygon class="cls-22" points="128.86 20.93 129.27 20.93 129.27 21.33 128.86 21.33 128.86 20.93 128.86 20.93"/><polygon class="cls-22" points="129.77 20.93 130.19 20.93 130.19 21.33 129.77 21.33 129.77 20.93 129.77 20.93"/><polygon class="cls-22" points="130.73 20.93 131.14 20.93 131.14 21.33 130.73 21.33 130.73 20.93 130.73 20.93"/><polygon class="cls-22" points="131.66 20.93 132.07 20.93 132.07 21.33 131.66 21.33 131.66 20.93 131.66 20.93"/><polygon class="cls-22" points="132.74 20.93 133.15 20.93 133.15 21.33 132.74 21.33 132.74 20.93 132.74 20.93"/><polygon class="cls-22" points="133.77 20.93 134.18 20.93 134.18 21.33 133.77 21.33 133.77 20.93 133.77 20.93"/><polygon class="cls-22" points="134.75 20.93 135.17 20.93 135.17 21.33 134.75 21.33 134.75 20.93 134.75 20.93"/><polygon class="cls-22" points="135.87 20.93 136.28 20.93 136.28 21.33 135.87 21.33 135.87 20.93 135.87 20.93"/><polygon class="cls-22" points="136.94 20.93 137.35 20.93 137.35 21.33 136.94 21.33 136.94 20.93 136.94 20.93"/><polygon class="cls-22" points="137.98 20.93 138.39 20.93 138.39 21.33 137.98 21.33 137.98 20.93 137.98 20.93"/><polygon class="cls-22" points="138.96 20.93 139.38 20.93 139.38 21.33 138.96 21.33 138.96 20.93 138.96 20.93"/><polygon class="cls-22" points="140.8 20.93 141.21 20.93 141.21 21.33 140.8 21.33 140.8 20.93 140.8 20.93"/><polygon class="cls-22" points="140.01 20.93 140.43 20.93 140.43 21.33 140.01 21.33 140.01 20.93 140.01 20.93"/><polygon class="cls-22" points="141.7 20.93 142.11 20.93 142.11 21.33 141.7 21.33 141.7 20.93 141.7 20.93"/><polygon class="cls-22" points="142.61 20.93 143.03 20.93 143.03 21.33 142.61 21.33 142.61 20.93 142.61 20.93"/><polygon class="cls-22" points="143.57 20.93 143.98 20.93 143.98 21.33 143.57 21.33 143.57 20.93 143.57 20.93"/><polygon class="cls-22" points="144.5 20.93 144.91 20.93 144.91 21.33 144.5 21.33 144.5 20.93 144.5 20.93"/><path class="cls-22" d="M145.83,21.33h-.25V21a1.48,1.48,0,0,1,.25.35Z"/><path class="cls-22" d="M115,21.44h.25v.4h-.4a2.74,2.74,0,0,1,.15-.4Z"/><polygon class="cls-22" points="115.7 21.44 116.12 21.44 116.12 21.84 115.7 21.84 115.7 21.44 115.7 21.44"/><polygon class="cls-22" points="116.66 21.44 117.07 21.44 117.07 21.84 116.66 21.84 116.66 21.44 116.66 21.44"/><polygon class="cls-22" points="117.59 21.44 118 21.44 118 21.84 117.59 21.84 117.59 21.44 117.59 21.44"/><polygon class="cls-22" points="118.67 21.44 119.09 21.44 119.09 21.84 118.67 21.84 118.67 21.44 118.67 21.44"/><polygon class="cls-22" points="119.7 21.44 120.11 21.44 120.11 21.84 119.7 21.84 119.7 21.44 119.7 21.44"/><polygon class="cls-22" points="120.69 21.44 121.1 21.44 121.1 21.84 120.69 21.84 120.69 21.44 120.69 21.44"/><polygon class="cls-22" points="121.8 21.44 122.21 21.44 122.21 21.84 121.8 21.84 121.8 21.44 121.8 21.44"/><polygon class="cls-22" points="122.87 21.44 123.28 21.44 123.28 21.84 122.87 21.84 122.87 21.44 122.87 21.44"/><polygon class="cls-22" points="123.91 21.44 124.33 21.44 124.33 21.84 123.91 21.84 123.91 21.44 123.91 21.44"/><polygon class="cls-22" points="124.9 21.44 125.31 21.44 125.31 21.84 124.9 21.84 124.9 21.44 124.9 21.44"/><polygon class="cls-22" points="126.7 21.44 127.12 21.44 127.12 21.84 126.7 21.84 126.7 21.44 126.7 21.44"/><polygon class="cls-22" points="125.92 21.44 126.33 21.44 126.33 21.84 125.92 21.84 125.92 21.44 125.92 21.44"/><polygon class="cls-22" points="127.6 21.44 128.01 21.44 128.01 21.84 127.6 21.84 127.6 21.44 127.6 21.44"/><polygon class="cls-22" points="128.51 21.44 128.93 21.44 128.93 21.84 128.51 21.84 128.51 21.44 128.51 21.44"/><polygon class="cls-22" points="129.47 21.44 129.89 21.44 129.89 21.84 129.47 21.84 129.47 21.44 129.47 21.44"/><polygon class="cls-22" points="130.4 21.44 130.81 21.44 130.81 21.84 130.4 21.84 130.4 21.44 130.4 21.44"/><polygon class="cls-22" points="131.48 21.44 131.9 21.44 131.9 21.84 131.48 21.84 131.48 21.44 131.48 21.44"/><polygon class="cls-22" points="132.51 21.44 132.93 21.44 132.93 21.84 132.51 21.84 132.51 21.44 132.51 21.44"/><polygon class="cls-22" points="133.5 21.44 133.91 21.44 133.91 21.84 133.5 21.84 133.5 21.44 133.5 21.44"/><polygon class="cls-22" points="134.61 21.44 135.02 21.44 135.02 21.84 134.61 21.84 134.61 21.44 134.61 21.44"/><polygon class="cls-22" points="135.68 21.44 136.09 21.44 136.09 21.84 135.68 21.84 135.68 21.44 135.68 21.44"/><polygon class="cls-22" points="136.72 21.44 137.14 21.44 137.14 21.84 136.72 21.84 136.72 21.44 136.72 21.44"/><polygon class="cls-22" points="137.71 21.44 138.12 21.44 138.12 21.84 137.71 21.84 137.71 21.44 137.71 21.44"/><polygon class="cls-22" points="139.54 21.44 139.96 21.44 139.96 21.84 139.54 21.84 139.54 21.44 139.54 21.44"/><polygon class="cls-22" points="138.76 21.44 139.17 21.44 139.17 21.84 138.76 21.84 138.76 21.44 138.76 21.44"/><polygon class="cls-22" points="140.44 21.44 140.85 21.44 140.85 21.84 140.44 21.84 140.44 21.44 140.44 21.44"/><polygon class="cls-22" points="141.35 21.44 141.77 21.44 141.77 21.84 141.35 21.84 141.35 21.44 141.35 21.44"/><polygon class="cls-22" points="142.31 21.44 142.72 21.44 142.72 21.84 142.31 21.84 142.31 21.44 142.31 21.44"/><polygon class="cls-22" points="143.24 21.44 143.65 21.44 143.65 21.84 143.24 21.84 143.24 21.44 143.24 21.44"/><polygon class="cls-22" points="144.32 21.44 144.74 21.44 144.74 21.84 144.32 21.84 144.32 21.44 144.32 21.44"/><polygon class="cls-22" points="145.35 21.44 145.77 21.44 145.77 21.84 145.35 21.84 145.35 21.44 145.35 21.44"/><path class="cls-22" d="M114.79,21.93h0v.4h-.05a1.75,1.75,0,0,1,.05-.4Z"/><polygon class="cls-22" points="115.28 21.93 115.69 21.93 115.69 22.33 115.28 22.33 115.28 21.93 115.28 21.93"/><polygon class="cls-22" points="116.19 21.93 116.6 21.93 116.6 22.33 116.19 22.33 116.19 21.93 116.19 21.93"/><polygon class="cls-22" points="117.15 21.93 117.56 21.93 117.56 22.33 117.15 22.33 117.15 21.93 117.15 21.93"/><polygon class="cls-22" points="118.07 21.93 118.49 21.93 118.49 22.33 118.07 22.33 118.07 21.93 118.07 21.93"/><polygon class="cls-22" points="119.16 21.93 119.57 21.93 119.57 22.33 119.16 22.33 119.16 21.93 119.16 21.93"/><polygon class="cls-22" points="120.19 21.93 120.6 21.93 120.6 22.33 120.19 22.33 120.19 21.93 120.19 21.93"/><polygon class="cls-22" points="121.17 21.93 121.58 21.93 121.58 22.33 121.17 22.33 121.17 21.93 121.17 21.93"/><polygon class="cls-22" points="122.28 21.93 122.7 21.93 122.7 22.33 122.28 22.33 122.28 21.93 122.28 21.93"/><polygon class="cls-22" points="123.36 21.93 123.77 21.93 123.77 22.33 123.36 22.33 123.36 21.93 123.36 21.93"/><polygon class="cls-22" points="124.4 21.93 124.81 21.93 124.81 22.33 124.4 22.33 124.4 21.93 124.4 21.93"/><polygon class="cls-22" points="125.38 21.93 125.8 21.93 125.8 22.33 125.38 22.33 125.38 21.93 125.38 21.93"/><polygon class="cls-22" points="127.19 21.93 127.6 21.93 127.6 22.33 127.19 22.33 127.19 21.93 127.19 21.93"/><polygon class="cls-22" points="126.4 21.93 126.82 21.93 126.82 22.33 126.4 22.33 126.4 21.93 126.4 21.93"/><polygon class="cls-22" points="128.09 21.93 128.5 21.93 128.5 22.33 128.09 22.33 128.09 21.93 128.09 21.93"/><polygon class="cls-22" points="129 21.93 129.41 21.93 129.41 22.33 129 22.33 129 21.93 129 21.93"/><polygon class="cls-22" points="129.96 21.93 130.37 21.93 130.37 22.33 129.96 22.33 129.96 21.93 129.96 21.93"/><polygon class="cls-22" points="130.88 21.93 131.3 21.93 131.3 22.33 130.88 22.33 130.88 21.93 130.88 21.93"/><polygon class="cls-22" points="131.97 21.93 132.38 21.93 132.38 22.33 131.97 22.33 131.97 21.93 131.97 21.93"/><polygon class="cls-22" points="133 21.93 133.41 21.93 133.41 22.33 133 22.33 133 21.93 133 21.93"/><polygon class="cls-22" points="133.98 21.93 134.4 21.93 134.4 22.33 133.98 22.33 133.98 21.93 133.98 21.93"/><polygon class="cls-22" points="135.09 21.93 135.51 21.93 135.51 22.33 135.09 22.33 135.09 21.93 135.09 21.93"/><polygon class="cls-22" points="136.17 21.93 136.58 21.93 136.58 22.33 136.17 22.33 136.17 21.93 136.17 21.93"/><polygon class="cls-22" points="137.21 21.93 137.62 21.93 137.62 22.33 137.21 22.33 137.21 21.93 137.21 21.93"/><polygon class="cls-22" points="138.19 21.93 138.61 21.93 138.61 22.33 138.19 22.33 138.19 21.93 138.19 21.93"/><polygon class="cls-22" points="140.03 21.93 140.44 21.93 140.44 22.33 140.03 22.33 140.03 21.93 140.03 21.93"/><polygon class="cls-22" points="139.24 21.93 139.66 21.93 139.66 22.33 139.24 22.33 139.24 21.93 139.24 21.93"/><polygon class="cls-22" points="140.93 21.93 141.34 21.93 141.34 22.33 140.93 22.33 140.93 21.93 140.93 21.93"/><polygon class="cls-22" points="141.84 21.93 142.25 21.93 142.25 22.33 141.84 22.33 141.84 21.93 141.84 21.93"/><polygon class="cls-22" points="142.8 21.93 143.21 21.93 143.21 22.33 142.8 22.33 142.8 21.93 142.8 21.93"/><polygon class="cls-22" points="143.72 21.93 144.14 21.93 144.14 22.33 143.72 22.33 143.72 21.93 143.72 21.93"/><polygon class="cls-22" points="144.81 21.93 145.22 21.93 145.22 22.33 144.81 22.33 144.81 21.93 144.81 21.93"/><path class="cls-22" d="M145.84,21.93h.23a2.58,2.58,0,0,1,0,.4h-.27v-.4Z"/><polygon class="cls-22" points="114.92 22.46 115.33 22.46 115.33 22.86 114.92 22.86 114.92 22.46 114.92 22.46"/><polygon class="cls-22" points="115.85 22.46 116.26 22.46 116.26 22.86 115.85 22.86 115.85 22.46 115.85 22.46"/><polygon class="cls-22" points="116.93 22.46 117.35 22.46 117.35 22.86 116.93 22.86 116.93 22.46 116.93 22.46"/><polygon class="cls-22" points="117.96 22.46 118.37 22.46 118.37 22.86 117.96 22.86 117.96 22.46 117.96 22.46"/><polygon class="cls-22" points="118.94 22.46 119.36 22.46 119.36 22.86 118.94 22.86 118.94 22.46 118.94 22.46"/><polygon class="cls-22" points="120.06 22.46 120.47 22.46 120.47 22.86 120.06 22.86 120.06 22.46 120.06 22.46"/><polygon class="cls-22" points="121.13 22.46 121.54 22.46 121.54 22.86 121.13 22.86 121.13 22.46 121.13 22.46"/><polygon class="cls-22" points="122.17 22.46 122.58 22.46 122.58 22.86 122.17 22.86 122.17 22.46 122.17 22.46"/><polygon class="cls-22" points="123.16 22.46 123.57 22.46 123.57 22.86 123.16 22.86 123.16 22.46 123.16 22.46"/><polygon class="cls-22" points="124.96 22.46 125.38 22.46 125.38 22.86 124.96 22.86 124.96 22.46 124.96 22.46"/><polygon class="cls-22" points="124.18 22.46 124.59 22.46 124.59 22.86 124.18 22.86 124.18 22.46 124.18 22.46"/><polygon class="cls-22" points="125.86 22.46 126.27 22.46 126.27 22.86 125.86 22.86 125.86 22.46 125.86 22.46"/><polygon class="cls-22" points="126.77 22.46 127.19 22.46 127.19 22.86 126.77 22.86 126.77 22.46 126.77 22.46"/><polygon class="cls-22" points="127.73 22.46 128.14 22.46 128.14 22.86 127.73 22.86 127.73 22.46 127.73 22.46"/><polygon class="cls-22" points="128.66 22.46 129.07 22.46 129.07 22.86 128.66 22.86 128.66 22.46 128.66 22.46"/><polygon class="cls-22" points="129.74 22.46 130.16 22.46 130.16 22.86 129.74 22.86 129.74 22.46 129.74 22.46"/><polygon class="cls-22" points="130.77 22.46 131.18 22.46 131.18 22.86 130.77 22.86 130.77 22.46 130.77 22.46"/><polygon class="cls-22" points="131.75 22.46 132.17 22.46 132.17 22.86 131.75 22.86 131.75 22.46 131.75 22.46"/><polygon class="cls-22" points="132.87 22.46 133.28 22.46 133.28 22.86 132.87 22.86 132.87 22.46 132.87 22.46"/><polygon class="cls-22" points="133.94 22.46 134.35 22.46 134.35 22.86 133.94 22.86 133.94 22.46 133.94 22.46"/><polygon class="cls-22" points="134.98 22.46 135.4 22.46 135.4 22.86 134.98 22.86 134.98 22.46 134.98 22.46"/><polygon class="cls-22" points="135.97 22.46 136.38 22.46 136.38 22.86 135.97 22.86 135.97 22.46 135.97 22.46"/><polygon class="cls-22" points="137.8 22.46 138.22 22.46 138.22 22.86 137.8 22.86 137.8 22.46 137.8 22.46"/><polygon class="cls-22" points="137.01 22.46 137.43 22.46 137.43 22.86 137.01 22.86 137.01 22.46 137.01 22.46"/><polygon class="cls-22" points="138.7 22.46 139.11 22.46 139.11 22.86 138.7 22.86 138.7 22.46 138.7 22.46"/><polygon class="cls-22" points="139.61 22.46 140.03 22.46 140.03 22.86 139.61 22.86 139.61 22.46 139.61 22.46"/><polygon class="cls-22" points="140.57 22.46 140.98 22.46 140.98 22.86 140.57 22.86 140.57 22.46 140.57 22.46"/><polygon class="cls-22" points="141.5 22.46 141.91 22.46 141.91 22.86 141.5 22.86 141.5 22.46 141.5 22.46"/><polygon class="cls-22" points="142.58 22.46 143 22.46 143 22.86 142.58 22.86 142.58 22.46 142.58 22.46"/><polygon class="cls-22" points="143.61 22.46 144.02 22.46 144.02 22.86 143.61 22.86 143.61 22.46 143.61 22.46"/><polygon class="cls-22" points="144.59 22.46 145.01 22.46 145.01 22.86 144.59 22.86 144.59 22.46 144.59 22.46"/><path class="cls-22" d="M145.71,22.46h.4a1.83,1.83,0,0,1-.05.4h-.35v-.4Z"/><path class="cls-22" d="M114.82,22.94h0V23l0-.1Z"/><polygon class="cls-22" points="115.46 22.94 115.88 22.94 115.88 23.34 115.46 23.34 115.46 22.94 115.46 22.94"/><polygon class="cls-22" points="116.45 22.94 116.86 22.94 116.86 23.34 116.45 23.34 116.45 22.94 116.45 22.94"/><polygon class="cls-22" points="117.56 22.94 117.97 22.94 117.97 23.34 117.56 23.34 117.56 22.94 117.56 22.94"/><polygon class="cls-22" points="118.63 22.94 119.05 22.94 119.05 23.34 118.63 23.34 118.63 22.94 118.63 22.94"/><polygon class="cls-22" points="119.67 22.94 120.09 22.94 120.09 23.34 119.67 23.34 119.67 22.94 119.67 22.94"/><polygon class="cls-22" points="120.66 22.94 121.07 22.94 121.07 23.34 120.66 23.34 120.66 22.94 120.66 22.94"/><polygon class="cls-22" points="122.46 22.94 122.88 22.94 122.88 23.34 122.46 23.34 122.46 22.94 122.46 22.94"/><polygon class="cls-22" points="121.68 22.94 122.09 22.94 122.09 23.34 121.68 23.34 121.68 22.94 121.68 22.94"/><polygon class="cls-22" points="123.36 22.94 123.78 22.94 123.78 23.34 123.36 23.34 123.36 22.94 123.36 22.94"/><polygon class="cls-22" points="124.28 22.94 124.69 22.94 124.69 23.34 124.28 23.34 124.28 22.94 124.28 22.94"/><polygon class="cls-22" points="125.23 22.94 125.65 22.94 125.65 23.34 125.23 23.34 125.23 22.94 125.23 22.94"/><polygon class="cls-22" points="126.16 22.94 126.57 22.94 126.57 23.34 126.16 23.34 126.16 22.94 126.16 22.94"/><polygon class="cls-22" points="127.25 22.94 127.66 22.94 127.66 23.34 127.25 23.34 127.25 22.94 127.25 22.94"/><polygon class="cls-22" points="128.27 22.94 128.69 22.94 128.69 23.34 128.27 23.34 128.27 22.94 128.27 22.94"/><polygon class="cls-22" points="129.26 22.94 129.67 22.94 129.67 23.34 129.26 23.34 129.26 22.94 129.26 22.94"/><polygon class="cls-22" points="130.37 22.94 130.78 22.94 130.78 23.34 130.37 23.34 130.37 22.94 130.37 22.94"/><polygon class="cls-22" points="131.44 22.94 131.86 22.94 131.86 23.34 131.44 23.34 131.44 22.94 131.44 22.94"/><polygon class="cls-22" points="132.48 22.94 132.9 22.94 132.9 23.34 132.48 23.34 132.48 22.94 132.48 22.94"/><polygon class="cls-22" points="133.47 22.94 133.88 22.94 133.88 23.34 133.47 23.34 133.47 22.94 133.47 22.94"/><polygon class="cls-22" points="135.3 22.94 135.72 22.94 135.72 23.34 135.3 23.34 135.3 22.94 135.3 22.94"/><polygon class="cls-22" points="134.52 22.94 134.93 22.94 134.93 23.34 134.52 23.34 134.52 22.94 134.52 22.94"/><polygon class="cls-22" points="136.2 22.94 136.62 22.94 136.62 23.34 136.2 23.34 136.2 22.94 136.2 22.94"/><polygon class="cls-22" points="137.12 22.94 137.53 22.94 137.53 23.34 137.12 23.34 137.12 22.94 137.12 22.94"/><polygon class="cls-22" points="138.07 22.94 138.49 22.94 138.49 23.34 138.07 23.34 138.07 22.94 138.07 22.94"/><polygon class="cls-22" points="139 22.94 139.41 22.94 139.41 23.34 139 23.34 139 22.94 139 22.94"/><polygon class="cls-22" points="140.08 22.94 140.5 22.94 140.5 23.34 140.08 23.34 140.08 22.94 140.08 22.94"/><polygon class="cls-22" points="141.11 22.94 141.53 22.94 141.53 23.34 141.11 23.34 141.11 22.94 141.11 22.94"/><polygon class="cls-22" points="142.1 22.94 142.51 22.94 142.51 23.34 142.1 23.34 142.1 22.94 142.1 22.94"/><polygon class="cls-22" points="143.21 22.94 143.62 22.94 143.62 23.34 143.21 23.34 143.21 22.94 143.21 22.94"/><polygon class="cls-22" points="144.28 22.94 144.69 22.94 144.69 23.34 144.28 23.34 144.28 22.94 144.28 22.94"/><polygon class="cls-22" points="145.32 22.94 145.74 22.94 145.74 23.34 145.32 23.34 145.32 22.94 145.32 22.94"/><path class="cls-22" d="M115,23.46h.32v.39h0a2,2,0,0,1-.31-.39Z"/><polygon class="cls-22" points="115.93 23.45 116.35 23.45 116.35 23.86 115.93 23.86 115.93 23.45 115.93 23.45"/><polygon class="cls-22" points="117.05 23.45 117.46 23.45 117.46 23.86 117.05 23.86 117.05 23.45 117.05 23.45"/><polygon class="cls-22" points="118.12 23.45 118.53 23.45 118.53 23.86 118.12 23.86 118.12 23.45 118.12 23.45"/><polygon class="cls-22" points="119.16 23.45 119.57 23.45 119.57 23.86 119.16 23.86 119.16 23.45 119.16 23.45"/><polygon class="cls-22" points="120.14 23.45 120.56 23.45 120.56 23.86 120.14 23.86 120.14 23.45 120.14 23.45"/><polygon class="cls-22" points="121.95 23.45 122.36 23.45 122.36 23.86 121.95 23.86 121.95 23.45 121.95 23.45"/><polygon class="cls-22" points="121.16 23.45 121.58 23.45 121.58 23.86 121.16 23.86 121.16 23.45 121.16 23.45"/><polygon class="cls-22" points="122.85 23.45 123.26 23.45 123.26 23.86 122.85 23.86 122.85 23.45 122.85 23.45"/><polygon class="cls-22" points="123.76 23.45 124.18 23.45 124.18 23.86 123.76 23.86 123.76 23.45 123.76 23.45"/><polygon class="cls-22" points="124.72 23.45 125.13 23.45 125.13 23.86 124.72 23.86 124.72 23.45 124.72 23.45"/><polygon class="cls-22" points="125.65 23.45 126.06 23.45 126.06 23.86 125.65 23.86 125.65 23.45 125.65 23.45"/><polygon class="cls-22" points="126.73 23.45 127.14 23.45 127.14 23.86 126.73 23.86 126.73 23.45 126.73 23.45"/><polygon class="cls-22" points="127.76 23.45 128.17 23.45 128.17 23.86 127.76 23.86 127.76 23.45 127.76 23.45"/><polygon class="cls-22" points="128.74 23.45 129.16 23.45 129.16 23.86 128.74 23.86 128.74 23.45 128.74 23.45"/><polygon class="cls-22" points="129.86 23.45 130.27 23.45 130.27 23.86 129.86 23.86 129.86 23.45 129.86 23.45"/><polygon class="cls-22" points="130.93 23.45 131.34 23.45 131.34 23.86 130.93 23.86 130.93 23.45 130.93 23.45"/><polygon class="cls-22" points="131.97 23.45 132.38 23.45 132.38 23.86 131.97 23.86 131.97 23.45 131.97 23.45"/><polygon class="cls-22" points="132.95 23.45 133.37 23.45 133.37 23.86 132.95 23.86 132.95 23.45 132.95 23.45"/><polygon class="cls-22" points="134.79 23.45 135.2 23.45 135.2 23.86 134.79 23.86 134.79 23.45 134.79 23.45"/><polygon class="cls-22" points="134 23.45 134.42 23.45 134.42 23.86 134 23.86 134 23.45 134 23.45"/><polygon class="cls-22" points="135.69 23.45 136.1 23.45 136.1 23.86 135.69 23.86 135.69 23.45 135.69 23.45"/><polygon class="cls-22" points="136.6 23.45 137.01 23.45 137.01 23.86 136.6 23.86 136.6 23.45 136.6 23.45"/><polygon class="cls-22" points="137.56 23.45 137.97 23.45 137.97 23.86 137.56 23.86 137.56 23.45 137.56 23.45"/><polygon class="cls-22" points="138.49 23.45 138.9 23.45 138.9 23.86 138.49 23.86 138.49 23.45 138.49 23.45"/><polygon class="cls-22" points="139.57 23.45 139.99 23.45 139.99 23.86 139.57 23.86 139.57 23.45 139.57 23.45"/><polygon class="cls-22" points="140.6 23.45 141.01 23.45 141.01 23.86 140.6 23.86 140.6 23.45 140.6 23.45"/><polygon class="cls-22" points="141.58 23.45 142 23.45 142 23.86 141.58 23.86 141.58 23.45 141.58 23.45"/><polygon class="cls-22" points="142.7 23.45 143.11 23.45 143.11 23.86 142.7 23.86 142.7 23.45 142.7 23.45"/><polygon class="cls-22" points="143.77 23.45 144.18 23.45 144.18 23.86 143.77 23.86 143.77 23.45 143.77 23.45"/><polygon class="cls-22" points="144.81 23.45 145.22 23.45 145.22 23.86 144.81 23.86 144.81 23.45 144.81 23.45"/><polygon class="cls-22" points="145.79 23.45 145.82 23.45 145.79 23.49 145.79 23.45 145.79 23.45"/><path class="cls-22" d="M115.47,24h.41v.28a2,2,0,0,1-.41-.28Z"/><polygon class="cls-22" points="116.45 23.97 116.86 23.97 116.86 24.37 116.45 24.37 116.45 23.97 116.45 23.97"/><polygon class="cls-22" points="117.56 23.97 117.97 23.97 117.97 24.37 117.56 24.37 117.56 23.97 117.56 23.97"/><polygon class="cls-22" points="118.63 23.97 119.05 23.97 119.05 24.37 118.63 24.37 118.63 23.97 118.63 23.97"/><polygon class="cls-22" points="119.67 23.97 120.09 23.97 120.09 24.37 119.67 24.37 119.67 23.97 119.67 23.97"/><polygon class="cls-22" points="120.66 23.97 121.07 23.97 121.07 24.37 120.66 24.37 120.66 23.97 120.66 23.97"/><polygon class="cls-22" points="122.46 23.97 122.88 23.97 122.88 24.37 122.46 24.37 122.46 23.97 122.46 23.97"/><polygon class="cls-22" points="121.68 23.97 122.09 23.97 122.09 24.37 121.68 24.37 121.68 23.97 121.68 23.97"/><polygon class="cls-22" points="123.36 23.97 123.78 23.97 123.78 24.37 123.36 24.37 123.36 23.97 123.36 23.97"/><polygon class="cls-22" points="124.28 23.97 124.69 23.97 124.69 24.37 124.28 24.37 124.28 23.97 124.28 23.97"/><polygon class="cls-22" points="125.23 23.97 125.65 23.97 125.65 24.37 125.23 24.37 125.23 23.97 125.23 23.97"/><polygon class="cls-22" points="126.16 23.97 126.57 23.97 126.57 24.37 126.16 24.37 126.16 23.97 126.16 23.97"/><polygon class="cls-22" points="127.25 23.97 127.66 23.97 127.66 24.37 127.25 24.37 127.25 23.97 127.25 23.97"/><polygon class="cls-22" points="128.27 23.97 128.69 23.97 128.69 24.37 128.27 24.37 128.27 23.97 128.27 23.97"/><polygon class="cls-22" points="129.26 23.97 129.67 23.97 129.67 24.37 129.26 24.37 129.26 23.97 129.26 23.97"/><polygon class="cls-22" points="130.37 23.97 130.78 23.97 130.78 24.37 130.37 24.37 130.37 23.97 130.37 23.97"/><polygon class="cls-22" points="131.44 23.97 131.86 23.97 131.86 24.37 131.44 24.37 131.44 23.97 131.44 23.97"/><polygon class="cls-22" points="132.48 23.97 132.9 23.97 132.9 24.37 132.48 24.37 132.48 23.97 132.48 23.97"/><polygon class="cls-22" points="133.47 23.97 133.88 23.97 133.88 24.37 133.47 24.37 133.47 23.97 133.47 23.97"/><polygon class="cls-22" points="135.3 23.97 135.72 23.97 135.72 24.37 135.3 24.37 135.3 23.97 135.3 23.97"/><polygon class="cls-22" points="134.52 23.97 134.93 23.97 134.93 24.37 134.52 24.37 134.52 23.97 134.52 23.97"/><polygon class="cls-22" points="136.2 23.97 136.62 23.97 136.62 24.37 136.2 24.37 136.2 23.97 136.2 23.97"/><polygon class="cls-22" points="137.12 23.97 137.53 23.97 137.53 24.37 137.12 24.37 137.12 23.97 137.12 23.97"/><polygon class="cls-22" points="138.07 23.97 138.49 23.97 138.49 24.37 138.07 24.37 138.07 23.97 138.07 23.97"/><polygon class="cls-22" points="139 23.97 139.41 23.97 139.41 24.37 139 24.37 139 23.97 139 23.97"/><polygon class="cls-22" points="140.08 23.97 140.5 23.97 140.5 24.37 140.08 24.37 140.08 23.97 140.08 23.97"/><polygon class="cls-22" points="141.11 23.97 141.53 23.97 141.53 24.37 141.11 24.37 141.11 23.97 141.11 23.97"/><polygon class="cls-22" points="142.1 23.97 142.51 23.97 142.51 24.37 142.1 24.37 142.1 23.97 142.1 23.97"/><polygon class="cls-22" points="143.21 23.97 143.62 23.97 143.62 24.37 143.21 24.37 143.21 23.97 143.21 23.97"/><polygon class="cls-22" points="144.28 23.97 144.69 23.97 144.69 24.37 144.28 24.37 144.28 23.97 144.28 23.97"/><path class="cls-22" d="M145.32,24h.07a.18.18,0,0,1-.07.05V24Z"/><path class="cls-23" d="M41,10.3H240.39a28.58,28.58,0,0,1,28.5,28.5v486a28.58,28.58,0,0,1-28.5,28.5H41a28.58,28.58,0,0,1-28.5-28.5V38.8A28.58,28.58,0,0,1,41,10.3ZM40.73,15h200a23.61,23.61,0,0,1,23.54,23.55V525a23.61,23.61,0,0,1-23.54,23.54h-200A23.61,23.61,0,0,1,17.18,525V38.56A23.62,23.62,0,0,1,40.73,15Z"/><path class="cls-24" d="M44.25,562.56H238.86a39,39,0,0,0,23.25-7.5A41.91,41.91,0,0,1,242.19,560H40.92A41.91,41.91,0,0,1,21,555.06a39,39,0,0,0,23.25,7.5Z"/><path class="cls-25" d="M46.88,558.37H237.49a37.59,37.59,0,0,0,22.77-7.51,40.37,40.37,0,0,1-19.51,4.93H43.62a40.37,40.37,0,0,1-19.51-4.93,37.59,37.59,0,0,0,22.77,7.51Z"/><path class="cls-26" d="M260.87,550.26a35.41,35.41,0,0,0,8.59-23.15V37.57a35.41,35.41,0,0,0-8.59-23.15A34.88,34.88,0,0,1,272.63,40.5V524.18a34.88,34.88,0,0,1-11.76,26.08Z"/><path class="cls-27" d="M266.36,549.92a35.57,35.57,0,0,0,8.59-23.2V36.21A35.59,35.59,0,0,0,266.36,13a35,35,0,0,1,11.76,26.14V523.79a35,35,0,0,1-11.76,26.13Z"/><polygon class="cls-15" points="54.76 0.91 54.76 3.48 51.72 3.48 51.72 0.91 54.76 0.91 54.76 0.91"/><polygon class="cls-15" points="51.72 562.57 54.76 562.57 54.76 559.99 51.72 559.99 51.72 562.57 51.72 562.57"/><polygon class="cls-15" points="229.57 0.91 229.57 3.48 226.52 3.48 226.52 0.91 229.57 0.91 229.57 0.91"/><polygon class="cls-15" points="226.52 562.57 229.57 562.57 229.57 559.99 226.52 559.99 226.52 562.57 226.52 562.57"/></g></g></svg>