<svg xmlns="http://www.w3.org/2000/svg" xmlns:xlink="http://www.w3.org/1999/xlink" viewBox="0 0 221.56 20.88"><defs><style>.cls-1{fill:url(#未命名漸層_4);}.cls-2{fill:url(#未命名漸層_4-2);}.cls-3{fill:url(#未命名漸層_4-3);}.cls-4{fill:url(#未命名漸層_4-4);}.cls-5{fill:url(#未命名漸層_4-5);}.cls-6{fill:url(#未命名漸層_4-6);}.cls-7{fill:url(#未命名漸層_4-7);}.cls-8{fill:url(#未命名漸層_4-8);}.cls-9{fill:url(#未命名漸層_4-9);}.cls-10{fill:url(#未命名漸層_4-10);}</style><linearGradient id="未命名漸層_4" x1="-19.44" y1="12.5" x2="241.6" y2="-2.79" gradientUnits="userSpaceOnUse"><stop offset="0" stop-color="#00c08b"/><stop offset="0.27" stop-color="#00a4ef"/><stop offset="0.53" stop-color="#ffc517"/><stop offset="0.8" stop-color="#f90"/><stop offset="1" stop-color="#ed4848"/></linearGradient><linearGradient id="未命名漸層_4-2" x1="-19.39" y1="13.48" x2="241.66" y2="-1.82" xlink:href="#未命名漸層_4"/><linearGradient id="未命名漸層_4-3" x1="-19.29" y1="15.18" x2="241.76" y2="-0.11" xlink:href="#未命名漸層_4"/><linearGradient id="未命名漸層_4-4" x1="-19.21" y1="16.41" x2="241.83" y2="1.12" xlink:href="#未命名漸層_4"/><linearGradient id="未命名漸層_4-5" x1="-19.14" y1="17.58" x2="241.9" y2="2.28" xlink:href="#未命名漸層_4"/><linearGradient id="未命名漸層_4-6" x1="-19.08" y1="18.74" x2="241.97" y2="3.44" xlink:href="#未命名漸層_4"/><linearGradient id="未命名漸層_4-7" x1="-19" y1="20.06" x2="242.04" y2="4.76" xlink:href="#未命名漸層_4"/><linearGradient id="未命名漸層_4-8" x1="-18.93" y1="21.23" x2="242.11" y2="5.93" xlink:href="#未命名漸層_4"/><linearGradient id="未命名漸層_4-9" x1="-18.83" y1="23" x2="242.22" y2="7.71" xlink:href="#未命名漸層_4"/><linearGradient id="未命名漸層_4-10" x1="-18.74" y1="24.52" x2="242.31" y2="9.22" xlink:href="#未命名漸層_4"/></defs><g id="圖層_2" data-name="圖層 2"><g id="圖層_1-2" data-name="圖層 1"><path class="cls-1" d="M0,19.87A7.94,7.94,0,0,0,1.5,16l1.76.53a8.58,8.58,0,0,1-1.57,4.25Zm.48-6.6c1.1,0,2.45-.07,3.92-.11V12.1H1v-2H4.4v-1H1V.86h9.31V9.15H6.71v1h3.52v2H6.71v1l3.87-.15,0,2c-3.57.22-7.33.42-10,.53ZM2.93,7.39H4.77V2.62H2.93v.92l1-.31a14.14,14.14,0,0,1,.7,3.17L3.5,6.75a14.84,14.84,0,0,0-.57-3ZM5,15.91a23,23,0,0,1,.46,3.85l-1.7.2a18.45,18.45,0,0,0-.37-3.85Zm2.15-.2a19.73,19.73,0,0,1,.95,3.65l-1.61.33A18.27,18.27,0,0,0,5.61,16ZM8.25,2.62H6.36V6.25a21.47,21.47,0,0,0,.83-3l1.06.38Zm0,4.77V4.27c-.35.92-.7,1.87-1,2.51l-.9-.33v.94Zm1.06,7.86A14.2,14.2,0,0,1,11,18.66l-1.65.68a15.18,15.18,0,0,0-1.6-3.52Zm7.17-8.1v3.39H20v10.1H17.49v-.77H13.42v.86H11V10.54h2.89V.22h2.55V4.73h4.25V7.15Zm1,5.77H13.42v4.59h4.07Z"/><path class="cls-2" d="M41.27,6.49a29.8,29.8,0,0,1-1.89,8.3,9.36,9.36,0,0,0,3.48,3.89,6.76,6.76,0,0,0-1.48,1.78A10.55,10.55,0,0,1,38.19,17a12.41,12.41,0,0,1-3.94,3.89,8.46,8.46,0,0,0-1-1.58l-1.41,1.21A23.34,23.34,0,0,0,29,19a23.05,23.05,0,0,1-6.16,1.63A6.88,6.88,0,0,0,21.91,19a26.89,26.89,0,0,0,4.64-1c-1-.4-2-.75-2.92-1a10.78,10.78,0,0,0,1-1.27l-2,.11L22.42,14l3.39-.16a15.6,15.6,0,0,0,.77-1.36H23.34v-4h3.94V7.92H23.94V5.61H22.26V3.76h1.68V1.54h3.34V.2h2V1.54H32.8V3.76h1.5V5.61H32.8V7.92H29.26v.62h4v1.6c1.45-2.35,2.18-6.09,2.57-9.88l2.2.29c-.15,1.23-.33,2.46-.57,3.65H42.7V6.49ZM25.48,10.94h1.8v-.82h-1.8Zm.61-7.75v.7h1.19v-.7Zm1.19,3.08V5.48H26.09v.79Zm-.59,9.86c.72.24,1.47.5,2.2.79a3.85,3.85,0,0,0,1.54-1.56l-3.35.17Zm6-.9A4.67,4.67,0,0,1,31,17.82c.79.35,1.5.71,2.11,1A9.69,9.69,0,0,0,37,14.63a30.23,30.23,0,0,1-1.3-4.38,10.16,10.16,0,0,1-.84,1.61,14.26,14.26,0,0,0-1.6-1.61v2.27h-4.4c-.22.42-.47.84-.71,1.28l2.58-.14v-.77h2v.69l.71-.05,0,1.65Zm-3.41-12v.7h1.28v-.7Zm1.28,3.08V5.48H29.26v.79Zm-1.28,3.85v.82H31v-.82ZM37,6.49a35.37,35.37,0,0,0,1.12,5.28,28.54,28.54,0,0,0,.94-5.28Z"/><path class="cls-3" d="M50.27,16.22h3.5V5.92h-3v-2A10.49,10.49,0,0,0,54.6,2.55H57V16.22h3.06v2.61H50.27Z"/><path class="cls-4" d="M67,19.87A7.93,7.93,0,0,0,68.44,16l1.76.53a8.58,8.58,0,0,1-1.56,4.25Zm.48-6.6c1.1,0,2.44-.07,3.92-.11V12.1H68v-2h3.39v-1H67.91V.86h9.31V9.15H73.66v1h3.52v2H73.66v1l3.87-.15,0,2c-3.56.22-7.32.42-10,.53Zm2.44-5.88h1.85V2.62H69.87v.92l1-.31a14.71,14.71,0,0,1,.7,3.17l-1.17.35a13.61,13.61,0,0,0-.57-3ZM72,15.91a22,22,0,0,1,.46,3.85l-1.69.2a19.15,19.15,0,0,0-.37-3.85Zm2.16-.2a19.66,19.66,0,0,1,.94,3.65l-1.6.33a19,19,0,0,0-.9-3.67ZM75.2,2.62H73.3V6.25a21.53,21.53,0,0,0,.84-3l1.06.38Zm0,4.77V4.27c-.36.92-.71,1.87-1,2.51l-.91-.33v.94Zm1,7.86A13.9,13.9,0,0,1,78,18.66l-1.65.68a15.68,15.68,0,0,0-1.61-3.52Zm7.18-8.1v3.39H87v10.1H84.44v-.77H80.37v.86H78V10.54h2.88V.22h2.56V4.73h4.24V7.15Zm1,5.77H80.37v4.59h4.07Z"/><path class="cls-5" d="M94.25,6.6h11.29V8.91H94.25Zm0,5.7h11.29v2.31H94.25Z"/><path class="cls-6" d="M115.94,14.57a21.06,21.06,0,0,1-2.22,4.51A16.84,16.84,0,0,0,112,17.89a16,16,0,0,0,1.94-3.9ZM119,13.29V20.6h-2.53V13.29H112.4v-2.2h4.09V9.4h-4.23V7.24h2.14A13.57,13.57,0,0,0,113.76,5l1.8-.44h-3V2.38h3.77c-.2-.6-.44-1.21-.66-1.74L118.32,0c.33.73.72,1.63,1,2.38h3.14V4.51H119.7l1.78.35c-.33.84-.66,1.7-1,2.38h2.29V9.4H119v1.69h3.41v2.2Zm-3.17-8.78a10.93,10.93,0,0,1,.73,2.29L115,7.24h3.17a24.51,24.51,0,0,0,1-2.73ZM132.6,9.86h-2v10.8H128V9.86h-2v.26c0,3.24-.29,7.77-2.16,10.59a9.72,9.72,0,0,0-2-1.57,8.47,8.47,0,0,0,1-2.13l-1.56,1a25.71,25.71,0,0,0-1.72-3.3l1.72-.93a23.34,23.34,0,0,1,1.65,2.88,24,24,0,0,0,.68-6.51V2.29A31.18,31.18,0,0,0,130.2.42l2,1.91A33.16,33.16,0,0,1,126,4V7.44h6.65Z"/><path class="cls-7" d="M154.13,1.3V2.9h-8.51v.73h6.73V5.15H136.44V3.63H143V2.9h-8.32V1.3H143V.2h2.64V1.3Zm-8.51,17.23H154v1.76H134.81V18.53H143v-.71h-6V16.28h6v-.64c-3.77.09-4.43.16-4.91.31-.09-.35-.35-1.16-.53-1.63a5.17,5.17,0,0,0,1.15-.28,13.36,13.36,0,0,0,1.49-.64h-3V13H134.9V9.75h19V13h-2.46V11.38H137.23V12h14.09V13.4h-1.57a21.56,21.56,0,0,1,2.45,1.69l-1.43,1.19h1.3v1.54h-6.45Zm6-12.74V9.11H137.23V5.79Zm-2.58,1.27h-9.46v.77h9.46ZM143,13.4q-.75.47-1.47.84l6-.09-1.19-.66.11-.09Zm2.6,2.88h4.93c-.27-.24-.62-.53-1-.81l-3.94.11Z"/><path class="cls-8" d="M175.28,4.27a11.85,11.85,0,0,1-2.07,3.78,10,10,0,0,0,3.52,1.9,7.39,7.39,0,0,0-1.39,1.78,11.17,11.17,0,0,1-3.67-2.22,12.87,12.87,0,0,1-3.59,2,9.75,9.75,0,0,0-1.21-2,11.18,11.18,0,0,0,3.32-1.63,16.41,16.41,0,0,1-1.32-2.18,5.44,5.44,0,0,1-.92.88c-.24-.29-.68-.79-1.1-1.21v5.68H165V5.17H162.8v6.21h-1.61V5.17h-2.13V8.76a12.72,12.72,0,0,0,.61-3l1.28.26A15.55,15.55,0,0,1,160,9.77c-.2-.15-.64-.35-1-.53v2.33h-1.85V3.63h1.1a10.18,10.18,0,0,0-1.14-2.22L159,.64A9.88,9.88,0,0,1,160.31,3l-1.38.64h1.93V.22h2.27V3.63H165l-1.12-.46A21.72,21.72,0,0,0,165.09.59l2.11.73c-.62.86-1.21,1.69-1.67,2.31h1.32v.92A9,9,0,0,0,169.4.22l2.18.46a13.87,13.87,0,0,1-.6,1.63h5.4v2Zm-.78,13c0,1.17-.26,1.76-1.16,2.12a10.78,10.78,0,0,1-3.7.35,9.55,9.55,0,0,0-.86-2.16c1.06,0,2.38,0,2.67,0s.48-.11.48-.38V14.79H167.6v6H165v-6h-3.92v4.95h-2.53V12.61H165V11.44h2.6v1.17h6.9ZM164.05,5.74a18,18,0,0,1,.84,3.66l-1.14.35a15.68,15.68,0,0,0-.82-3.68Zm6.27-1.47a10.66,10.66,0,0,0,1.32,2.22,7.75,7.75,0,0,0,1.24-2.22Z"/><path class="cls-9" d="M184.16,16.22h3.5V5.92h-2.95v-2a10.62,10.62,0,0,0,3.79-1.37h2.39V16.22H194v2.61h-9.79Z"/><path class="cls-10" d="M218.17,17.93c.73,0,.86-.57,1-3.74a7.28,7.28,0,0,0,2.42,1.1c-.26,3.94-.92,5.09-3.17,5.09h-2.64c-2.48,0-3.12-.84-3.12-3.42V10.23h-3.3c-.4,4.58-1.41,8.34-6.67,10.48A7.42,7.42,0,0,0,201,18.57c4.58-1.72,5.2-4.69,5.46-8.34h-5V7.68h19.62v2.55h-5.8V17c0,.84.13,1,.85,1Zm1-13.66H203.5V1.74h15.62Z"/></g></g></svg>