<svg xmlns="http://www.w3.org/2000/svg" xmlns:xlink="http://www.w3.org/1999/xlink" viewBox="0 0 58.03 97.08"><defs><style>.cls-1{fill:#fff;}.cls-2{clip-path:url(#clip-path);}.cls-3{clip-path:url(#clip-path-2);}</style><clipPath id="clip-path" transform="translate(1.71 1.71)"><circle class="cls-1" cx="27.31" cy="85.13" r="8.53"/></clipPath><clipPath id="clip-path-2" transform="translate(1.71 1.71)"><path class="cls-1" d="M27.31,0A27.34,27.34,0,0,0,0,27.31a6.82,6.82,0,0,0,6.82,6.82h0a6.82,6.82,0,0,0,6.83-6.82h0A13.65,13.65,0,1,1,27.3,41a6.82,6.82,0,0,0-6.83,6.82h0V64.85a6.83,6.83,0,0,0,6.83,6.83h0a6.82,6.82,0,0,0,6.82-6.83h0V53.75A27.31,27.31,0,0,0,27.31,0Z"/></clipPath></defs><g id="圖層_2" data-name="圖層 2"><g id="圖層_1-2" data-name="圖層 1"><circle class="cls-1" cx="29.02" cy="86.84" r="8.53"/><g class="cls-2"><g id="Group_217" data-name="Group 217"><path id="Path_239" data-name="Path 239" class="cls-1" d="M17.07,74.89H37.55V95.37H17.07Z" transform="translate(1.71 1.71)"/></g></g><path class="cls-1" d="M27.31,0A27.34,27.34,0,0,0,0,27.31a6.82,6.82,0,0,0,6.82,6.82h0a6.82,6.82,0,0,0,6.83-6.82h0A13.65,13.65,0,1,1,27.3,41a6.82,6.82,0,0,0-6.83,6.82h0V64.85a6.83,6.83,0,0,0,6.83,6.83h0a6.82,6.82,0,0,0,6.82-6.83h0V53.75A27.31,27.31,0,0,0,27.31,0Z" transform="translate(1.71 1.71)"/><g class="cls-3"><g id="Group_219" data-name="Group 219"><path id="Path_243" data-name="Path 243" class="cls-1" d="M-1.71-1.71h58V73.4h-58Z" transform="translate(1.71 1.71)"/></g></g></g></g></svg>