<svg xmlns="http://www.w3.org/2000/svg" xmlns:xlink="http://www.w3.org/1999/xlink" viewBox="0 0 25.25 20.08"><defs><style>.cls-1{clip-path:url(#clip-path);}.cls-2{clip-path:url(#clip-path-2);}.cls-3{clip-path:url(#clip-path-3);}.cls-4{clip-path:url(#clip-path-4);}</style><clipPath id="clip-path" transform="translate(0.24 0.24)"><path d="M18.54.06,5.78,5.16H2.32A2.32,2.32,0,0,0,0,7.48v2.84a2.11,2.11,0,0,0,2.14,2.07H3.2l.94,6.56a.77.77,0,0,0,.76.66H8a.79.79,0,0,0,.58-.25.83.83,0,0,0,.19-.6l-.61-5.42,10.39,4.16a.92.92,0,0,0,.28.05.76.76,0,0,0,.44-.13.77.77,0,0,0,.34-.64V.78a.77.77,0,0,0-.34-.64A.76.76,0,0,0,18.54.06Z"/></clipPath><clipPath id="clip-path-2" transform="translate(0.24 0.24)"><path d="M21.89,6.54l2.58-2.07a.77.77,0,0,0-1-1.21L20.93,5.33a.77.77,0,0,0-.12,1.09.79.79,0,0,0,.6.29A.78.78,0,0,0,21.89,6.54Z"/></clipPath><clipPath id="clip-path-3" transform="translate(0.24 0.24)"><path d="M21.89,12a.77.77,0,0,0-1,1.21l2.58,2.07a.74.74,0,0,0,.48.17.79.79,0,0,0,.6-.29.78.78,0,0,0-.12-1.09Z"/></clipPath><clipPath id="clip-path-4" transform="translate(0.24 0.24)"><path d="M24,8.51H21.41a.78.78,0,0,0,0,1.55H24a.78.78,0,0,0,0-1.55Z"/></clipPath></defs><g id="圖層_2" data-name="圖層 2"><g id="圖層_1-2" data-name="圖層 1"><path d="M18.54.06,5.78,5.16H2.32A2.32,2.32,0,0,0,0,7.48v2.84a2.11,2.11,0,0,0,2.14,2.07H3.2l.94,6.56a.77.77,0,0,0,.76.66H8a.79.79,0,0,0,.58-.25.83.83,0,0,0,.19-.6l-.61-5.42,10.39,4.16a.92.92,0,0,0,.28.05.76.76,0,0,0,.44-.13.77.77,0,0,0,.34-.64V.78a.77.77,0,0,0-.34-.64A.76.76,0,0,0,18.54.06Z" transform="translate(0.24 0.24)"/><g class="cls-1"><g id="Group_705-2" data-name="Group 705-2"><path id="Path_891" data-name="Path 891" d="M-.24,19.85H19.84V-.24H-.24Z" transform="translate(0.24 0.24)"/></g></g><path d="M21.89,6.54l2.58-2.07a.77.77,0,0,0-1-1.21L20.93,5.33a.77.77,0,0,0-.12,1.09.79.79,0,0,0,.6.29A.78.78,0,0,0,21.89,6.54Z" transform="translate(0.24 0.24)"/><g class="cls-2"><g id="Group_706" data-name="Group 706"><path id="Path_893" data-name="Path 893" d="M20.39,7H25V2.85H20.39Z" transform="translate(0.24 0.24)"/></g></g><path d="M21.89,12a.77.77,0,0,0-1,1.21l2.58,2.07a.74.74,0,0,0,.48.17.79.79,0,0,0,.6-.29.78.78,0,0,0-.12-1.09Z" transform="translate(0.24 0.24)"/><g class="cls-3"><g id="Group_707" data-name="Group 707"><path id="Path_895" data-name="Path 895" d="M20.39,15.72H25v-4.1H20.39Z" transform="translate(0.24 0.24)"/></g></g><path d="M24,8.51H21.41a.78.78,0,0,0,0,1.55H24a.78.78,0,0,0,0-1.55Z" transform="translate(0.24 0.24)"/><g class="cls-4"><g id="Group_708" data-name="Group 708"><path id="Path_897" data-name="Path 897" d="M20.39,10.3H25v-2H20.39Z" transform="translate(0.24 0.24)"/></g></g></g></g></svg>